<?xml version="1.0" encoding="utf-8"?>
<!-- Generator: Adobe Illustrator 26.0.1, SVG Export Plug-In . SVG Version: 6.00 Build 0)  -->
<svg version="1.1" id="Layer_1" xmlns="http://www.w3.org/2000/svg" xmlns:xlink="http://www.w3.org/1999/xlink" x="0px" y="0px"
	 viewBox="0 0 1000 800" style="enable-background:new 0 0 1000 800;" xml:space="preserve">
<style type="text/css">
	.st0{fill:#F8C83E;}
	.st1{fill:#43BCA0;}
	.st2{fill:#45A17B;}
	.st3{fill:#FA9377;}
	.st4{fill:#122032;}
	.st5{fill:#303C4C;}
	.st6{fill:#FFFFFF;}
	.st7{fill:#4D50A2;}
	.st8{fill:#F76159;}
	.st9{fill:#303178;}
	.st10{fill:none;stroke:#B1E3D7;stroke-width:5.4763;stroke-miterlimit:10;}
	.st11{fill:none;stroke:#FA9377;stroke-width:21.9051;stroke-linecap:round;stroke-miterlimit:10;}
	.st12{fill:#F8756E;}
</style>
<g>
	<g>
		<path class="st0" d="M8.1,381.9l-0.7-42.8c0-1.2,1-2.2,2.2-2.3l42.8-0.7c1.2,0,2.2,1,2.3,2.2l0.7,42.8c0,1.2-1,2.2-2.2,2.3
			L10.3,384C9.1,384.1,8.1,383.1,8.1,381.9z"/>
		<path class="st1" d="M665.4,394.1l-15.5-43.9c-0.8-2.2,0.4-4.6,2.6-5.3c59.9-20.8,119.2-32.5,176.1-34.9
			c41-1.7,81.8,1.3,121.4,9.1c2.3,0.4,3.7,2.7,3.3,4.9l-9.4,45.6c-0.5,2.2-2.6,3.6-4.8,3.2c-35.3-6.9-71.7-9.6-108.2-8.1
			c-51.5,2.2-105.4,12.9-160.3,31.9C668.5,397.3,666.2,396.2,665.4,394.1z"/>
		<path class="st1" d="M365.1,482.3c-0.1,2.3-2,4.1-4.3,4.1c-32.3-1.1-63.7-5.3-93.5-12.7c-49.4-12.2-95.1-32.8-139.2-52.8
			c-5.6-2.5-11.1-5-16.6-7.5c-2.1-0.9-3-3.3-2.1-5.4l19-42.5c0.9-2.1,3.4-3,5.4-2.1c5.6,2.5,11.2,5,16.8,7.6
			c41.9,18.9,85.2,38.5,129.8,49.5c26,6.4,53.5,10.1,81.8,11.1c2.3,0.1,4,1.9,4,4.2L365.1,482.3z"/>
	</g>
	<g>
		<path class="st2" d="M318.4,479.4c0,0.1,0.8-0.5,1-0.6C319.1,478.8,318.2,479.6,318.4,479.4z"/>
		<polygon class="st2" points="315.6,479.7 316,479.5 315,479.9 		"/>
		<path class="st2" d="M314.9,478.6c-1.5,1.1,0.5,0.2,0.1,0.8l-0.3,0.3l1.3-0.7C315.6,478.9,314.6,479.1,314.9,478.6z"/>
		<path class="st2" d="M318,476c-0.6,0.4-0.6,0.2-0.1,0.2c0.1-0.1,0.1-0.1,0.1-0.1C318,476.1,318,476,318,476z"/>
		<path class="st2" d="M318,476.1C318.1,476.2,318.5,475.7,318,476.1L318,476.1z"/>
		<path class="st2" d="M317.4,475.8l0.6-0.2c0.3-0.3,0.4-0.4,0.7-0.5C318.3,475.1,317.9,475.3,317.4,475.8z"/>
		<path class="st2" d="M316.1,476.3l0.3-0.1C316.5,476.2,316.6,476.1,316.1,476.3z"/>
		<path class="st2" d="M317,476.1l-0.6,0.1c-0.2,0.2-0.8,0.5,0.2,0C316.1,476.5,316.6,476.3,317,476.1z"/>
		<path class="st2" d="M316.8,476.4c-0.3,0.3-0.4,0.5-1.1,0.7C316.1,477.3,317.2,476.5,316.8,476.4z"/>
		<path class="st2" d="M313.3,479.6l-0.4,0.4l0.6-0.2C313.2,479.9,313.8,479.3,313.3,479.6z"/>
		<path class="st2" d="M317.7,474.4c-0.3,0.2-0.9,0.6-1.3,0.8l0.5-0.1C317,474.9,317.2,474.7,317.7,474.4z"/>
		<path class="st2" d="M316.3,475.2l-0.7,0.2C315.7,475.6,316,475.5,316.3,475.2z"/>
		<polygon class="st2" points="314.3,477.4 315.7,476.9 314.3,477.3 		"/>
		<polygon class="st2" points="317.4,473.8 318.2,473.4 316.9,473.9 		"/>
		<path class="st2" d="M317,473.5c0.7-0.3,1.1-0.7,1.5-0.8c-0.2,0-0.8,0.2-1.4,0.3C317.5,472.9,317.5,473,317,473.5z"/>
		<path class="st2" d="M316.3,473.2c0.2,0,0.5-0.1,0.8-0.2C317,473,316.7,473.1,316.3,473.2z"/>
		<path class="st2" d="M315.7,475c0.2-0.1,0.7-0.5,0.9-0.7L315.7,475C315.7,475,315.7,475,315.7,475z"/>
		<path class="st2" d="M315.6,475L315.6,475c0-0.1,0-0.2,0-0.2C315.6,474.8,315.6,474.9,315.6,475z"/>
		<path class="st2" d="M315.7,475L315.7,475C315.6,475.1,315.5,475.1,315.7,475z"/>
		<path class="st2" d="M314.9,476.4c-0.6,0.2-1.3,0.3-2,1C313.6,477.1,314,476.7,314.9,476.4z"/>
		<path class="st2" d="M314.5,475.8l-0.1,0.3c0.3-0.1,0.6-0.4,0.9-0.5L314.5,475.8z"/>
		<polygon class="st2" points="314.2,475.9 314.5,475.8 314.6,475.7 		"/>
		<path class="st2" d="M315.6,474c-0.5,0.1-0.5,0.1-0.7,0c-0.1,0.2-0.2,0.4-0.1,0.5C315.1,474.3,315.7,474.1,315.6,474z"/>
		<path class="st2" d="M315.5,474.5C315.5,474.5,315.5,474.5,315.5,474.5C315.4,474.6,315.3,474.6,315.5,474.5z"/>
		<path class="st2" d="M314.4,473c-0.1,0-0.1,0.1-0.2,0.1L314.4,473L314.4,473z"/>
		<path class="st2" d="M314.6,474.6c-0.1,0.2,0.1,0.1,0.4,0c-0.1,0-0.2,0-0.3-0.1C314.6,474.6,314.5,474.6,314.6,474.6z"/>
		<path class="st2" d="M315.7,473.2c-0.2,0.1-0.3,0.3-0.5,0.4C315.6,473.4,316,473.1,315.7,473.2z"/>
		<path class="st2" d="M315.7,474.4C315.7,474.4,315.7,474.4,315.7,474.4C315.9,474.2,315.8,474.3,315.7,474.4z"/>
		<path class="st2" d="M315.7,474.4c-0.2,0-0.4,0.1-0.7,0.2c0.1,0,0.2,0,0.4-0.1C315.5,474.5,315.6,474.4,315.7,474.4z"/>
		<path class="st2" d="M307.9,475.9c0.9-0.4,1.9-0.6,1,0.1c0.8-0.1,3.7-1.8,5.4-2.8c-0.4,0.2-0.8,0.4-1.4,0.5c-0.5,0.3-1,1-1.9,1.3
			c-0.6,0,0.2-0.4,0.6-0.7c-1.1,0.7-1.8,0.5-3.5,1.4l0.7-0.1C308.6,475.6,308.1,475.7,307.9,475.9z"/>
		<path class="st2" d="M314.3,473.5l0.2,0c0.1-0.2,0.5-0.4,1.1-0.9c-0.5,0.1-0.9,0.2-1.2,0.4l0.1,0.4L314.3,473.5z"/>
		<path class="st2" d="M314.7,473.9c-1,0.5-1.5,0.5-2.6,1.2c0.2,0.2,0.9-0.3,1.4-0.4c-0.4-0.2,0.6-0.2,1-0.7c0.2,0,0.3,0,0.4,0.1
			c0.1-0.1,0.2-0.3,0.4-0.4c0,0,0,0-0.1,0l0,0l0,0c-0.1,0.1-0.2,0.1-0.1,0.1c0,0,0,0,0,0C314.9,473.8,314.8,473.8,314.7,473.9
			c0.2-0.2,0.3-0.2,0.4-0.2c0.1,0,0.1,0,0.2-0.1l0,0l-0.7-0.1C314.4,473.7,314.5,473.8,314.7,473.9z"/>
		<path class="st2" d="M310.7,478.4c0.1-0.1,0.1-0.1,0.2-0.1C310.8,478.3,310.7,478.4,310.7,478.4z"/>
		<path class="st2" d="M311.2,477.9c0.2,0,0.6-0.2,0.5-0.1c-0.2,0.2-0.5,0.3-0.8,0.5c0.3-0.1,0.8-0.2,1.2-0.7l-0.1,0
			c0.2-0.3,1.4-1.2,1.5-1.3C312.6,477,312,477.3,311.2,477.9z"/>
		<path class="st2" d="M312.6,476c-0.2,0-0.4,0-0.6,0l-0.8,0.6l0.5-0.3C311.6,476.6,312.2,476.2,312.6,476z"/>
		<polygon class="st2" points="314.9,472.8 316,472.3 314.4,472.8 		"/>
		<polygon class="st2" points="314.6,472.4 315.5,472 314.9,472.2 		"/>
		<path class="st2" d="M294.8,450.6l-0.3-0.1C294.6,450.6,294.7,450.6,294.8,450.6z"/>
		<path class="st2" d="M294.9,451.4l0.5-0.1C295.1,451.3,294.9,451.4,294.9,451.4z"/>
		<path class="st2" d="M310.6,462.5c0.9-0.4,2.2-1,1.1-0.7l-1.1,0.4C310.9,462.2,310.8,462.3,310.6,462.5z"/>
		<path class="st2" d="M302.1,456.6c-0.1,0-0.2,0.1-0.3,0.1c0.4,0,0.7-0.1,1.1-0.1C302.6,456.6,302.3,456.6,302.1,456.6z"/>
		<path class="st2" d="M297.5,457.5l0.7-0.4C297.9,457.3,297.7,457.4,297.5,457.5z"/>
		<path class="st2" d="M292.9,446.4l-1.2,0C291.8,446.7,292.3,446.5,292.9,446.4z"/>
		<path class="st2" d="M312.4,468.5c0.4-0.3,0.5-0.4,0.5-0.5C312.4,468.4,311.5,468.9,312.4,468.5z"/>
		<path class="st2" d="M306.6,448.7c-0.2,0-0.4,0-0.7,0C306.1,448.8,306.4,448.8,306.6,448.7z"/>
		<path class="st2" d="M312.8,467.7c-0.1,0.1-0.1,0.1-0.2,0.2c0.2,0,0.4,0,0.4,0.2C313.3,467.7,313.6,467.5,312.8,467.7z"/>
		<path class="st2" d="M291.8,430.5c0,0,0.1,0,0.1-0.1C291.7,430.5,291.7,430.5,291.8,430.5z"/>
		<path class="st2" d="M302.6,424.8c0.1,0,0.1,0.1,0.1,0.2C302.8,424.9,302.8,424.9,302.6,424.8z"/>
		<path class="st2" d="M314.3,470.7C314.4,470.7,314.4,470.6,314.3,470.7L314.3,470.7z"/>
		<path class="st2" d="M310.4,472.9c-0.1,0-0.3,0.1-0.5,0.2C310.2,473,310.3,473,310.4,472.9z"/>
		<path class="st2" d="M305.9,469.3L305.9,469.3C305.7,469.4,305.7,469.3,305.9,469.3z"/>
		<path class="st2" d="M313.9,471c0.1-0.1,0.2-0.2,0.3-0.2C314.1,470.8,314,470.9,313.9,471z"/>
		<path class="st2" d="M314.4,470.8c0,0,0,0.1-0.1,0.1C314.5,470.8,314.6,470.8,314.4,470.8z"/>
		<path class="st2" d="M314.2,470.6c0,0,0,0.1,0,0.2c0.1,0,0.1-0.1,0.2-0.1C314.3,470.7,314.2,470.6,314.2,470.6z"/>
		<path class="st2" d="M295.7,438.5c0,0,0.1,0,0.1,0C295.4,438.5,295.4,438.5,295.7,438.5z"/>
		<path class="st2" d="M298.6,463.2C298.6,463.2,298.7,463.2,298.6,463.2L298.6,463.2L298.6,463.2z"/>
		<path class="st2" d="M297.7,463.1c1.4-0.2,1.3-0.1,1,0.1l3.1-1L297.7,463.1z"/>
		<path class="st2" d="M294.1,448.7l-1,0.4c-1.7,0-1.2-0.4-2.5,0.1c3.5-0.6,0.5,1,4,0.4L294,450c0-0.1-0.2,0-0.2-0.1
			c-1.6,0.6,2.6-0.2,2.1,0.3c-0.2,0.2-0.7,0.4-1.2,0.4l0.9,0.2c0,0.1-0.7,0.2-0.6,0.1l0.4,0.5l-0.1,0c0.6,0,1.4,0,1.8,0
			c-0.5,0.2-0.4,0-0.8,0.1l0.9,0.1c-0.9,0.3-1.8,0.2-1.7,0c-3.4,0.9,0.9,0.1-1,1l-0.5-0.2c-1.9,0.6-1.2,0.6-2.3,1.2
			c0.6-0.2,3-1.2,3.9-1.1c-0.2,0.1-0.3,0.3,0.4,0.3c-1.2,0.2-0.9,0.3-0.8,0.5l-1.6,0.3c0.5,0.1,1.3-0.1,2.1-0.1
			c-0.1,0.3-1.4,0.6-2.4,0.9c-0.2,0.4,2-0.7,2.4-0.3c-0.6,0.5,0.2,0.5,1.2,0.7c-0.5,0.3-1,0.2-1.5,0.3l1.3-0.1
			c0,0.1-0.4,0.1-0.6,0.2c0.5,0.1,1.6-0.3,2.1-0.2c1.8-0.3-2.5,1.1-0.4,1c-0.4,0.2-1,0.2-1.6,0.3c1.4,0.2,1.1,0.2,2.9,0.1l-1,0.6
			c1.2-0.5,2.7-0.5,3.9-0.6c0.6-0.2,1.1-0.4,1.3-0.5l1,0.2c-0.3,0.1-0.8,0.2-1.5,0.3c0.1,0,0.3,0,0.4,0c-0.6,0.3-1.5,0.4-2.4,0.5
			c0.3-0.1,0.6-0.2,1-0.4c-1,0.1-2.1,0.3-3.1,0.5c0.2,0,0.4,0,0.5,0c-0.3,0-0.5,0.1-0.7,0.1c-0.2,0.1,0.2,0,0.6,0l-1.8,0.5l0.7-0.1
			l-1,0.8c1.9,0,4.7-0.4,5.5,0c-1.4,0.2-2.2,0.5-3.7,0.9c1.6-0.6-0.8-0.3-0.6-0.7c-0.1,0.2-0.9,0.4-1.2,0.4l1.6,0.2
			c-1.3,0.3-0.9,0.4-1.4,0.6c2.5-0.7,1.8,0,2.6,0c-0.8,0.2-1.7,0.4-1.6,0.1c-1.8,0.8,3.1-0.4,1.5,0.4c0-0.1,0.1-0.1-0.4,0
			c0.8,0,0.3,0.5-0.5,0.6l0-0.1c-0.2,0.5,0.4,1.4,2.5,0.9c-0.3,0.1-2.6,0.6-3,0.7c2.5-0.4,4.9-0.8,7.4-1.2c-1.8,0.4-6.1,1.9-7.3,1.9
			c-0.2,0.2-0.5,0.4,0.2,0.4c0.2-0.1,2.6-0.9,2.8-0.9c-2,0.9-1,0.5-2.7,1.3c0.4-0.2,3.3-0.9,3.2-0.7c-0.4,0.1-2.8,0.8-3.1,0.9
			l2.9-0.4c-0.5,0-2.4,0.7-3.1,1c0.5-0.2,0.1,0.4,0.4,0.4l0.6-0.4c-0.3,0.6,4.1-0.7,4.1-0.2c-0.6,0.1-3.6,1-3.9,1.3
			c1.5-0.3,7-1.7,8.2-1.6l-0.8,0.3l1,0c-2.2,0.5-6.9,1.4-8.7,1.7c-0.6,0.4-0.9,0.4-0.8,0.6c-0.7,0.3-1.2,0.2-1.3,0.1l-0.3,0.8
			c1.7-0.6,1.8,0,3.2-0.5l-1.9-0.1c1.7-0.6,4.8-1.1,4.7-0.6c-0.6,0.3-3,0.9-3.5,1.1c0.6-0.1,1.2,0.1,0.8,0.2l-0.9,0.1
			c-0.5,0.5,2.3-0.3,0.8,0.5c-0.1,0.1-2,1-1,0.7c1.8-0.8,7.6-2.9,9.1-3.2c-0.1,0.1-1.6,1.1-2.5,1.6c-1.4,0.7-3.6,1-4.8,1.6
			c0.5-0.2,1-0.3,1.2-0.3c-0.3,0.2-1.4,0.4-1.1,0.6c1.7-0.6,0,0.5,1.5-0.4c0.6,0.1-0.3,0.4-0.1,0.6c1-0.5,3.7-1.1,4.3-1.1
			c-0.4,0.1-1,0.4-1.2,0.5c0,0.5-0.6,1-0.5,1.5c-0.4,0.2-0.8,0.6-1.5,0.8c0.3-0.1,0.9-0.2,1-0.1c-1.3,0.8-0.3-0.2-2,0.7
			c1-0.4,1.4-0.2,2.1-0.2c1.4-0.7,0.1-0.5-0.6-0.5c2-0.8,4.3-1.3,5.4-1.3c0.6,0.1-1.2,0.7-0.9,0.6c-0.1,0.8,3.8-1,2.5,0.2
			c-1.2,0.8-2.5,1.1-3.5,1.6c-0.6-0.1,0.6-0.8,0.5-0.9l-0.5,0.5c-0.5,0.1-0.9,0-0.5-0.2c-1.1,0.7,0.2,1.2-0.6,2.1
			c0.5-0.1,1-0.2,1.5-0.5l-0.2-0.1c1-0.6,1.5-0.4,1.9-0.8c0.8-0.1,2-0.4,1.6,0.1l-1.4,0.7c0.4-0.2,0.8-0.6,0.3-0.5
			c0.7-0.2-1.8,1.3,0.2,0.6l0.9-0.7c0.8-0.1,2.5-0.6,2.1-0.2c1.4-0.8-0.2,0,1.4-0.9c-2,1.1-0.2-0.6-2.3,0.6c1.8-1.1,0.7-0.7,2.2-1.7
			c-0.5,0.2-0.9,0.5-0.7,0.2c-0.1,0-0.3,0.1-0.4,0.1c0,0,0,0,0,0l-0.1,0c-0.1,0-0.1,0,0,0c-0.2,0.1-0.4,0.3-0.7,0.4
			c-1.1,0.4-1.2,0.1-1.9,0.2c0.2-0.2,0.6-0.2,1.1-0.5l-0.9,0.2c1.1-0.5,1.6-1.1,2.4-1.1l-0.1-0.3c0.5-0.4,0.7-0.7,0.2-0.6
			c0.2-0.2-1.3,0.2-0.4,0l-0.8-0.1l0.3-0.1c0-0.4-2.1-0.1-0.3-1.3c-0.3,0-0.7,0-0.5-0.4l0.9-0.4c-0.4,0,0.8-0.9-0.3-0.6
			c2.5-1.1,0.3-1,0.6-1.5l-1.2,0.4c0-0.2-0.4-0.3-1-0.4l-1.1,0.4c-1,0.1,0.6-0.9,0.4-1.2c0.4-0.1,0.4,0,0.1,0.2
			c2.4-1.2-2.1-0.3-0.4-1.3c-0.4,0-0.3-0.1-0.1-0.2c0,0,0,0,0.1,0c0,0,0,0,0,0c0.2-0.1,0.4-0.2,0.5-0.3c-0.3,0.1-0.5,0.2-0.6,0.3
			c0-0.1-0.2-0.1-0.5-0.2l1.2-0.4c0,0,0,0,0,0c0.4-0.2-0.6,0.1-1.5,0.4c-0.2,0-0.5,0-0.8,0.1c1.9-0.7-0.7-0.1,1.3-0.9
			c-1,0.2-0.9-0.4-3.1,0.2c0.3-0.1,0.4-0.2,0.4-0.1c0.2-0.2,0.4-0.4-0.2-0.4l1.5-0.5l-2.1,0.3c0.9-0.4,1.4-0.7,2.6-0.8
			c-1.9,0.1-0.8-0.1-2.7,0l1-0.3c-0.1-0.1-1.5,0-0.7-0.3c1.8-0.8-0.1-1.5,1.5-2.7c-2.9,0.9,1.2-0.7-1.1-0.1c0.7-0.2,1.1-0.4,1.7-0.4
			c-0.8-0.2,1-0.8-1-0.6c0.7-0.2,1-0.2,1.4-0.3c-0.2,0-0.6,0-0.2-0.1c0.4-0.1,0.6-0.1,0.9-0.1c-0.2-0.3-2.4,0.1-4.4,0.6
			c0.9-0.4,0.7-0.5-0.6-0.3c0.6-0.2,1.3-0.5,1.6-0.3c0.1-0.2,0.8-1-0.8-0.7c0.4-0.1,0.1-0.2-0.1-0.2c0-0.3,0.2-0.4,0-0.7l-0.2,0.1
			c-2,0.3-0.5-0.2-0.8-0.4l0.2,0c1.3-0.9-0.7-0.1,0.8-1L304,453c-2.6,0.5,1.4-0.8,0.4-0.9l-0.7,0.3c-0.9,0,3.5-1.2,3.8-1.4
			c0.2-0.1,0.4,0,0.6,0c1.5-0.8-1.6,0.3-2,0c0.9-0.2,2.2-0.4,2.3-0.6c0.7-0.2-2.9-0.1-1.3-0.8c-0.7,0.2-1.3,0.4-1.8,0.3
			c-0.3-0.2,2.4-1.1,0.3-1c0.2-0.1,0.3-0.1,0.5-0.1c-0.6-0.1-1-0.4-2.2-0.4c4.2-0.9-2.3-0.8,1.6-1.5l-0.3-0.5l0.4-0.1
			c0.2-0.4-0.8-0.4-1.7-0.4c0.3-0.1,0.6-0.1,0.8-0.2c0.7-0.7,0.5-0.7-1.5-0.8l1.3-0.3c-0.8,0,1.9-1.1,0.3-1.4c0.1,0,0.4,0,0.6,0
			c-1.6-0.4,3.3-2-1.3-1.5l-1.2-0.2c-0.3,0.6-2,0.2-2.8,0.5c-0.3-0.2,1.3-0.7,1.6-0.5l-0.2,0.1c2.4-0.3,0.8-0.8,2.4-1
			c-0.3-1,1-2.2,0.9-3.1l-1.9,0.4l0.1-0.3c0.4-0.1,1.5-0.3,1.4-0.1c1.1-0.3-0.9-0.3-1.4-0.2c0.7-0.6,2.2-0.1,2.2-0.3l-0.2-0.2
			l-0.2,0.1c-0.8-0.1-1.6,0-1.6-0.3c0.4-0.2,1.2-0.2,1.2-0.3c0.1,0,0.2,0,0-0.1l0.1-0.4l-1.5,0.4c-0.8-0.1,0-0.4-1.6,0
			c2.6-0.6,0.7-1.7,1.5-2c-1.1-0.1-1.1-0.4-1-0.7c-0.3,0.1-2,0.4-1.8,0.1c3.5-0.3,1.4-0.7,3.9-1.2c-1.6,0.4-0.5-0.7-2.8-0.2
			c0.3-0.3,1.3-0.2,2.1-0.4c-1.4-0.4,0.7-1.3,0.2-1.9c-0.5,0-1.1,0.2-1.8,0.2l2.2-0.6c-0.2-0.1-2.6,0.2-1.1-0.3
			c-0.4,0.1-0.9,0.2-1.1,0.1c2.1-1.6-2.1-2.5,1.9-4.3c-0.9,0.3-1,0.2-1,0c-0.2,0.1-1.1,0.1-1.7,0.2l1.7-0.7
			c-1.7,0.1-0.2-0.6-1.8-0.5l0.3,0.1c-2,0-4.3,0.8-6.7,1c2.2,0-3.2,1,0,1.2c-0.5,0.1-0.8,0-1.4,0.1c1.1,0,1.3,0.1,0.9,0.4l-0.3,0
			c0.3,0.7-0.7,1.1-1.3,2l1.2-0.2c-0.1,0.2-0.5,0.3-0.8,0.4c1.9,0,0.1-0.5,2.1-0.5c-2.5,0.5,0.1,1.2-2.7,1.7c0,0.3,1.4-0.2,1.4,0
			l-0.8,0.2l1,0c-0.1,0.2-1.1,0.4-1.7,0.5c0.1-0.1-0.2-0.1-0.3-0.1c-0.9,0.3,0.4,0.6,0.1,0.7l0.4-0.3c0.8,0.6-0.1,1.6,1.5,2.1
			l0.6-0.1c1.1,0.4-0.6,0.5,0,1l-0.1,0c0.6,0,0.9,0.2,0.9,0.3c-0.7-0.1-1.3,0.4-2.1,0.3c1.2,0.4,0.9,0.2,3.1,0.3l-0.9,0.2
			c0.9,0,1.3,0,1.6,0.2c-0.8-0.1-1.4,0.4-2.6,0.2c-2,0.9,2.2,0.6-0.8,1.3c2.7,0,1.4-0.7,2-0.6c0.8-0.2,2,0,1.8,0.2
			c0,0.2-3.3,0.8-3.2,1.2c0-0.1-0.2,0-0.2-0.1c-0.7,0.3,1,0.2-0.1,0.6c1.6-0.1-0.1,0.3,2,0.1l-0.5-0.4c0.6,0.2,3,0.1,1.9,0.7
			c-0.4,0-1,0-1.3-0.1c-0.6,0.2,0.4,0.2-0.2,0.4c-2,0.2-0.5-0.5-2.1-0.6c-0.8,0.2,1.5,0.3-0.7,0.5c2.8-0.2-0.3,0.5,1.9,0.6l-1.2,0.1
			c0.2,0,0.8,0.1,0.8,0.2l-1.6,0c1.4,0.1-1.1,0.7-0.3,0.8c-0.1-0.5,1.5-0.3,2.3-0.7c1.7,0.4-3.1,0.8-2.5,1.5
			c-0.2-0.1,0.7-0.5,1.3-0.4c-0.2,0.2-0.7,0.4-1.3,0.6c0.3,0.5,1.2-0.3,2-0.1c-1.5,0.4,0.6,0.2,1.1,0.3L294,442
			c-0.7,0.7,2.6-0.2,1.7,0.4l-1.8,0l0.5,0.2l-1.4,0.1c1.1,0.1,0.8,0.3,0.5,0.6c0.9-0.2,2.3-0.3,2.3,0c-0.7,0.3-1.2,0.1-1,0.4
			c-0.8,0-1.8,0.1-0.7-0.2c-0.4,0-0.8,0-1.2,0.1c-0.8,0.3-0.1,0.5-0.1,0.6c0-0.1,0.1-0.1,0.3-0.2l1.8,0.3c-0.5,0.2-0.8,0.1-1.2,0.1
			c0.2,0.1,0.7,0.1,0.9,0.2c-1,0.1-2.1,0.3-2.6,0.1l1.2,0.3c-0.4,0.1-1.2,0.4-1.5,0.4c-0.6,0.4,2.1,0.4,1.3,0.9c0.2,0,0.4,0,0.5,0.1
			c-0.2,0.4-1.4,0.9,0.1,1.1L292,448c0.5,0.2,2.2-0.7,3-0.3c0.6,0.3-1.5,0.4-2,0.6c0.9,0,2.8,0,1.4,0.6
			C294,448.9,294.3,448.8,294.1,448.7z M295.7,452.5c-0.3,0-1.1,0-0.4-0.2C296.7,452.1,296,452.3,295.7,452.5z M299.8,457.7
			c-0.4,0-0.2-0.1,0.2-0.3C300.2,457.5,300.1,457.6,299.8,457.7z M313,470.2C312.9,470.2,312.9,470.2,313,470.2
			C313.3,469.8,313.1,470,313,470.2z M312.6,470.7c0.2,0,0.3-0.1,0.5-0.2c-0.3,0.1-0.3,0.1-0.3-0.1
			C312.5,470.6,312.3,470.7,312.6,470.7z M304,436.4l-0.3,0.1C303.3,436.4,303.6,436.4,304,436.4z"/>
		<path class="st2" d="M298,457.4c0.2-0.1,0.4-0.1,0.7-0.2C298.5,457.3,298.2,457.3,298,457.4z"/>
		<path class="st2" d="M293.1,446.4C293.1,446.4,293.1,446.4,293.1,446.4l-0.2,0L293.1,446.4z"/>
		<path class="st2" d="M300.8,469.6c0.1-0.1,0.3-0.2,0.6-0.4C301,469.4,300.8,469.5,300.8,469.6z"/>
		<path class="st2" d="M315.2,471.3l-0.4,0c0.1,0.1-0.1,0.2-0.3,0.3C314.8,471.5,315.2,471.2,315.2,471.3z"/>
		<path class="st2" d="M309,476.3c0.2,0,0,0.1,0.2,0l0.5-0.3C309.7,475.9,309.2,476.1,309,476.3z"/>
		<path class="st2" d="M311.5,473.2c-0.9,0.5-0.6,0.4-0.3,0.5c0,0,0,0,0,0C312.5,473.1,312,473.2,311.5,473.2z"/>
		<path class="st2" d="M311.2,473.7c0.1,0,0.1,0,0.1,0.1C311.9,473.6,311.4,473.7,311.2,473.7z"/>
		<path class="st2" d="M313.4,470.7c-0.2,0.2,1.2-0.5,0.9-0.3C315.5,470,312.6,470.7,313.4,470.7z"/>
		<polygon class="st2" points="308.4,474.8 309.6,474.2 308.6,474.6 		"/>
		<path class="st2" d="M308.8,473.3l-0.2,0.4c0.2-0.1,0.3-0.1,0.4-0.1C309,473.4,309.1,473.2,308.8,473.3z"/>
		<path class="st2" d="M309,473.6c0,0.1,0.1,0.1,0.3,0.1C309.2,473.6,309.2,473.6,309,473.6z"/>
		<polygon class="st2" points="307.9,474.7 308.1,474.5 308.1,474.3 		"/>
		<path class="st2" d="M308,470.8l-0.4-0.1c-0.4,0.1-0.6,0.3-0.4,0.3C307.4,471,307.6,471,308,470.8z"/>
		<path class="st2" d="M305,473c0.2-0.2,0.5-0.3,0.9-0.5l-1.5,0.6L305,473z"/>
		<path class="st2" d="M304.3,472.4c-0.4,0.1-1.4,0.1-1.1,0.4C303.6,472.6,304.1,472.7,304.3,472.4z"/>
		<polygon class="st2" points="304.8,467.8 304.8,467.8 307.3,466.9 		"/>
		<path class="st2" d="M297.6,466.2c-0.5,0.5,1.6-0.4,0.9,0.1c0.6-0.1,0.5-0.4,1.1-0.5C298.9,465.8,299.2,465.6,297.6,466.2z"/>
		<path class="st2" d="M299.6,465.8c0.1,0,0.2,0,0.4,0C299.9,465.8,299.7,465.8,299.6,465.8z"/>
		<polygon class="st2" points="303.9,423.9 304.5,423.7 303.6,423.9 		"/>
		<path class="st2" d="M301.9,423.7l1.7-0.2l-1.5,0C302.2,423.6,302.3,423.6,301.9,423.7z"/>
		<path class="st2" d="M292.4,453.7l0.4-0.1c0.4-0.1,0.4-0.2,0.5-0.3L292.4,453.7z"/>
		<polygon class="st2" points="293.1,450.6 293.1,450.7 294.6,450.3 		"/>
		<path class="st2" d="M290.8,448.5c0,0.1,0.3,0.2,0.3,0.3C290.8,448.6,292.7,448.2,290.8,448.5z"/>
	</g>
	<path class="st3" d="M244.4,300c-46-79.4-19-181.1,60.4-227.1s181.1-19,227.1,60.4L244.4,300z"/>
	<path class="st4" d="M295.8,514c-2.4-0.1-4.2-2.1-4.1-4.4l0,0c0.1-2.3,2.1-4.2,4.4-4.1l0,0c2.3,0.1,4.2,2.1,4.1,4.4l0,0
		c-0.1,2.3-2,4.1-4.2,4.1l0,0C296,514,295.9,514,295.8,514z M344.4,508.9c-0.2-2.3,1.5-4.4,3.9-4.6l0,0c2.3-0.2,4.4,1.5,4.6,3.9l0,0
		c0.2,2.3-1.5,4.4-3.9,4.6l0,0l0,0l0,0c-0.1,0-0.2,0-0.3,0l0,0C346.5,512.9,344.6,511.2,344.4,508.9z M243,507.8
		c-2.3-0.5-3.8-2.7-3.4-5l0,0c0.4-2.3,2.7-3.8,5-3.4l0,0c2.3,0.4,3.8,2.7,3.4,5l0,0c-0.4,2-2.2,3.5-4.2,3.5l0,0
		C243.5,507.8,243.2,507.8,243,507.8z M191.5,494.1c-2.2-0.8-3.4-3.2-2.7-5.4l0,0c0.8-2.2,3.2-3.4,5.4-2.7l0,0
		c2.2,0.8,3.4,3.2,2.7,5.4l0,0c-0.6,1.8-2.3,2.9-4,2.9l0,0C192.4,494.4,192,494.3,191.5,494.1z M142.3,473.4
		c-2.1-1.1-2.8-3.7-1.7-5.8l0,0c1.1-2.1,3.7-2.8,5.8-1.7l0,0c2.1,1.1,2.8,3.7,1.7,5.8l0,0c-0.8,1.4-2.2,2.2-3.7,2.2l0,0
		C143.7,473.9,143,473.8,142.3,473.4z"/>
	<g>
		<path class="st5" d="M660.4,735.8c0.3,0.1,0.2-0.9,0.2-1.1C660.1,734.9,660.4,736,660.4,735.8z"/>
		<polygon class="st5" points="655.2,738.2 655.3,737.7 654.5,738.8 		"/>
		<path class="st5" d="M650.3,738.2c0.5,1.8,1.8-0.3,2.6,0.3l0.1,0.4l0.4-1.4C652.4,737.7,651.1,738.7,650.3,738.2z"/>
		<path class="st5" d="M647.7,734.4c0.2,0.7-0.6,0.6,0.6,0.2c-0.1-0.1-0.1-0.1-0.1-0.2C648.1,734.4,648,734.4,647.7,734.4z"/>
		<path class="st5" d="M648.2,734.4C648.7,734.4,647.9,733.9,648.2,734.4L648.2,734.4z"/>
		<path class="st5" d="M645.8,734.8l0.7-0.6c-0.1-0.4-0.7-0.5-0.5-0.8C645.3,733.8,645.4,734.2,645.8,734.8z"/>
		<path class="st5" d="M645.2,736.1l0.3-0.3C645.5,735.7,645.4,735.6,645.2,736.1z"/>
		<path class="st5" d="M646.3,735.3l-0.7,0.6c0.1,0.3,0.1,0.9,0.3-0.2C645.8,736.2,646,735.7,646.3,735.3z"/>
		<path class="st5" d="M646.7,735.6c0.4,0.4,0.9,0.6,0.2,1.2C648.2,736.6,648,735.3,646.7,735.6z"/>
		<path class="st5" d="M650.1,740l0.5,0.5l0.4-0.6C650.8,740.2,650.1,739.5,650.1,740z"/>
		<path class="st5" d="M641.6,733.9c0,0.4,0.2,1,0.3,1.5l0.5-0.4C642.2,734.7,641.7,734.5,641.6,733.9z"/>
		<path class="st5" d="M641.9,735.4l-0.7,0.6C641.9,736.1,642,735.8,641.9,735.4z"/>
		<polygon class="st5" points="645.1,738.1 646.3,736.7 644.9,738.1 		"/>
		<polygon class="st5" points="638.8,733.9 639.2,733 638.5,734.3 		"/>
		<path class="st5" d="M636.9,734c0.3-0.7-0.4-1.2-0.1-1.7c-0.5,0.1-0.9,0.7-1.3,1.3C635.9,733.4,636.3,733.5,636.9,734z"/>
		<path class="st5" d="M634.8,734.5c0.2-0.2,0.4-0.5,0.7-0.8C635.3,733.8,635,734.1,634.8,734.5z"/>
		<path class="st5" d="M639.9,735.9c-0.1-0.2-0.2-0.8-0.6-1.1l0.3,1.1C639.7,735.9,639.8,735.9,639.9,735.9z"/>
		<path class="st5" d="M639.6,735.9L639.6,735.9c-0.3-0.1-0.5-0.1-0.6-0.1C639.1,735.8,639.3,735.8,639.6,735.9z"/>
		<path class="st5" d="M640,735.9C640,735.9,639.9,735.9,640,735.9C639.9,736,640,736,640,735.9z"/>
		<path class="st5" d="M643.1,737.1c-0.4,0.6-1.3,1.2-0.5,2.1C643,738.6,642.5,738,643.1,737.1z"/>
		<path class="st5" d="M640.4,737.2l0.8,0.2c0-0.3-0.2-0.7,0.1-1L640.4,737.2z"/>
		<polygon class="st5" points="640,737.5 640.4,737.2 640.1,737.1 		"/>
		<path class="st5" d="M636.2,735.5c-0.3,0.5-0.7,0.5-1.1,0.6c0.5,0.2,0.9,0.3,1.4,0.3C636.5,736,636.7,735.4,636.2,735.5z"/>
		<path class="st5" d="M637.9,735.8C637.8,735.8,637.8,735.8,637.9,735.8C637.8,735.9,637.9,736,637.9,735.8z"/>
		<path class="st5" d="M630.9,736.1c0,0.1,0,0.1,0.1,0.2C631,736.2,631,736.1,630.9,736.1L630.9,736.1z"/>
		<path class="st5" d="M636.5,736.6c0.3,0.2,0.5-0.1,0.7-0.4c-0.3,0.1-0.5,0.2-0.8,0.2C636.4,736.5,636.4,736.6,636.5,736.6z"/>
		<path class="st5" d="M633.7,735c0.2,0.2,0.4,0.4,0.6,0.6C634.1,735.2,633.7,734.7,633.7,735z"/>
		<path class="st5" d="M637.7,735.5C637.7,735.5,637.7,735.5,637.7,735.5C637.6,735.3,637.6,735.4,637.7,735.5z"/>
		<path class="st5" d="M637.7,735.5c-0.2,0.2-0.3,0.4-0.5,0.6c0.2-0.1,0.4-0.2,0.6-0.4C637.7,735.8,637.7,735.6,637.7,735.5z"/>
		<path class="st5" d="M629.6,742.8c0.1-1,1-1.9,1.7-0.8c0.8-0.7,0.3-4-0.4-5.8c0,0.4,0,0.8-0.8,1.4c0.3,0.5,1.7,1.3,1.1,2.1
			c-1,0.5-0.8-0.3-1.4-0.9c0.4,1.2-1.3,1.8-1.1,3.6l0.9-0.6C629.7,742.1,629.3,742.6,629.6,742.8z"/>
		<path class="st5" d="M632.4,736.3l0.3-0.1c-0.4-0.2-0.6-0.6-1.1-1.3c-0.5,0.5-0.6,0.8-0.7,1.2l1.6,0.1L632.4,736.3z"/>
		<path class="st5" d="M634.2,736.2c-0.3,1.1-1,1.5-0.6,2.7c0.9-0.1,0.7-0.9,1.2-1.4c-1.5,0.3,0.4-0.6-0.7-1.2
			c0.3-0.2,0.6-0.2,0.8-0.3c-0.3-0.1-0.5-0.3-0.8-0.5c0,0,0,0,0,0.1l0,0l0,0c0.1,0.1,0.1,0.2,0,0.1c0,0,0,0,0,0
			C634.3,736,634.2,736.1,634.2,736.2c-0.4-0.2-0.1-0.3,0.1-0.4c0-0.1,0-0.1,0-0.2l0,0l-1.5,0.6
			C633.1,736.4,633.5,736.3,634.2,736.2z"/>
		<path class="st5" d="M641.9,741.6c0-0.1,0-0.2,0-0.2C641.7,741.5,641.7,741.5,641.9,741.6z"/>
		<path class="st5" d="M641.2,740.9c0.1-0.1,0.2-0.6,0.6-0.5c0.3,0.3,0,0.5,0,0.9c0.2-0.3,0.8-0.8,0.1-1.3l-0.1,0.1
			c-0.6-0.4-1.4-1.7-1.3-1.8C640.7,739.3,640.8,740,641.2,740.9z"/>
		<path class="st5" d="M637.7,738.8l-1.3,0.5l0.6,0.9l0-0.6C637.7,740,637.6,739.3,637.7,738.8z"/>
		<polygon class="st5" points="630.7,735.5 630.9,734.4 630.2,736 		"/>
		<polygon class="st5" points="629.1,735.6 629.2,734.7 628.7,735.3 		"/>
		<path class="st5" d="M535.5,746.1l-0.4,0.3C535.4,746.3,535.5,746.2,535.5,746.1z"/>
		<path class="st5" d="M538.2,746.2l0.1-0.5C538.2,746,538.1,746.2,538.2,746.2z"/>
		<path class="st5" d="M588.5,735.2c-0.5-0.9-1.1-2.4-1.1-1.3l0.1,1.1C588,734.8,588.3,734.9,588.5,735.2z"/>
		<path class="st5" d="M560.5,740.9c0,0.1,0.1,0.2,0.2,0.3c0.1-0.4,0.3-0.7,0.4-1C560.9,740.5,560.7,740.7,560.5,740.9z"/>
		<path class="st5" d="M560.1,745.4l-0.7-0.7C559.5,744.9,559.7,745.2,560.1,745.4z"/>
		<path class="st5" d="M520.8,747.2l-0.4,1.1C521,748.3,520.7,747.7,520.8,747.2z"/>
		<path class="st5" d="M612.2,735.9c-0.5-0.4-0.8-0.6-1.2-0.7C611.6,735.8,612,736.8,612.2,735.9z"/>
		<path class="st5" d="M536.8,734.7c-0.2,0.2-0.3,0.4-0.3,0.6C536.7,735.2,536.8,735,536.8,734.7z"/>
		<path class="st5" d="M609.7,735.2c0.1,0.1,0.2,0.2,0.2,0.3c0.3-0.2,0.7-0.3,1.1-0.2C610.6,734.8,610.1,734.5,609.7,735.2z"/>
		<path class="st5" d="M467.4,747.5c0,0-0.1-0.1-0.1-0.1C467.3,747.5,467.3,747.5,467.4,747.5z"/>
		<path class="st5" d="M451.2,737.4c0.2-0.1,0.4-0.1,0.6-0.1C451.8,737.2,451.6,737.3,451.2,737.4z"/>
		<path class="st5" d="M622.5,735.1C622.8,735.1,622.5,735,622.5,735.1L622.5,735.1z"/>
		<path class="st5" d="M624.1,739.4c-0.1,0.1-0.1,0.3-0.1,0.5C624,739.7,624.1,739.5,624.1,739.4z"/>
		<path class="st5" d="M606.1,741.8L606.1,741.8C606.1,742.1,606.1,742,606.1,741.8z"/>
		<path class="st5" d="M623,735.6c-0.1-0.1-0.3-0.2-0.4-0.3C622.6,735.4,622.7,735.5,623,735.6z"/>
		<path class="st5" d="M622.9,735.1c0.1,0,0.2,0.1,0.3,0.1C623.3,735,623.2,734.9,622.9,735.1z"/>
		<path class="st5" d="M622,735.2c0.2,0,0.4,0,0.6,0.1c-0.1-0.1-0.1-0.1-0.1-0.2C622.3,735.1,622.2,735.2,622,735.2z"/>
		<path class="st5" d="M496,743.6C495.9,743.6,495.9,743.6,496,743.6C495.5,744,495.7,743.9,496,743.6z"/>
		<path class="st5" d="M579.1,746.1C579.1,746.1,579.2,746.1,579.1,746.1C579.2,746.1,579.1,746.1,579.1,746.1L579.1,746.1z"/>
		<path class="st5" d="M577.9,746.9c0.6-1.3,0.9-1.2,1.3-0.9l-0.3-3.1L577.9,746.9z"/>
		<path class="st5" d="M529.1,746.4l0.9,1c-1.1,1.6-1.8,1-1,2.4c0.1-3.4,3.4-0.3,3.6-3.7l0.6,0.7c-0.2,0-0.2,0.2-0.4,0.1
			c1.1,1.6,0.9-2.4,2.3-1.9c0.5,0.3,0.9,0.8,0.5,1.2l1.1-0.8c0.3,0.1,0.2,0.7-0.1,0.6l1.7-0.2l0,0.1c0.3-0.5,0.8-1.3,1.1-1.7
			c0.4,0.5-0.2,0.4-0.1,0.8l1-0.8c0.4,0.9-0.4,1.7-1.1,1.6c0.8,3.4,0.8-0.8,2.7,1.2l-0.9,0.4c0.6,1.9,1.3,1.2,2.3,2.4
			c-0.2-0.6-2-3-0.9-3.9c0.3,0.3,0.7,0.4,1.2-0.3c0,1.2,0.5,0.9,1.2,0.9l-0.1,1.6c0.7-0.4,0.7-1.3,1.2-2c0.8,0.2,1,1.4,1.1,2.4
			c1.3,0.3-0.9-2,0.7-2.3c1.1,0.6,1.9,0,3.2-0.9c0.8,0.6-0.2,1,0.1,1.4l0.7-1.3c0.2,0,0.1,0.4,0.1,0.6c0.6-0.5,0.1-1.6,1-2
			c0.3-1.7,1.8,2.6,3,0.6c0.3,0.5-0.2,1-0.1,1.6c1.6-1.3,1.3-0.9,2.6-2.6l1.1,1.1c-0.8-1.2,0.3-2.6,1.2-3.7
			c-0.3-0.6-0.5-1.1-0.7-1.3l1.4-0.8c0.2,0.3,0,0.8-0.2,1.5c0.1-0.1,0.2-0.3,0.3-0.4c0.5,0.6,0.2,1.5-0.2,2.4
			c-0.2-0.3-0.3-0.7-0.5-1c-0.4,1-0.7,2-0.7,2.9c0.1-0.2,0.3-0.3,0.5-0.4c-0.1,0.3-0.2,0.5-0.1,0.7c0,0.2,0.2-0.2,0.4-0.6l0.3,1.8
			l0.1-0.7l1.8,1.1c1.4-1.7,2.6-4.3,4.7-5c-0.6,1.3-0.2,2.1-0.2,3.6c-0.5-1.6-1.6,0.6-2.7,0.3c0.6,0.2,0.4,0.9,0.3,1.2l2-1.4
			c-0.1,1.3,0.4,1,0.9,1.5c-0.3-2.5,1.5-1.6,2.3-2.4c0,0.8-0.2,1.7-1.1,1.5c1,1.9,1.4-2.9,2.4-1.3c-0.2,0-0.4-0.1-0.5,0.3
			c0.6-0.7,1.9-0.1,1.6,0.6l-0.2,0c1.6,0.3,4.7,0.1,5-2c0,0.3-0.3,2.5-0.4,3l3-7c-0.3,1.8,0.6,6.1-0.8,7.1c0.4,0.3,0.8,0.6,1.6,0
			c-0.2-0.3-0.6-2.6-0.2-2.8c0.9,2,0.6,1.1,1.8,2.8c-0.4-0.4,0.1-3.2,0.7-3.1c-0.1,0.4,0,2.8-0.2,3.1l1.6-2.8
			c-0.4,0.5-0.1,2.4,0.2,3.2c-0.1-0.6,1.3,0.1,1.7-0.2l-0.6-0.7c1.7,0.5,1.8-3.9,3.4-3.7c-0.2,0.6-0.6,3.5,0.3,3.9
			c0.4-1.4,1.9-6.8,3.4-7.9l0.3,0.8l1.2-0.9c-0.7,2.1-2.8,6.6-4,8.3c0.6,0.7,0.2,1,1.1,0.9c0.3,0.8-0.5,1.1-0.8,1.2l2.2,0.5
			c-0.1-1.7,1.7-1.6,1.7-3l-2.4,1.7c-0.1-1.7,1.5-4.7,3-4.4c0.4,0.7-0.4,3-0.3,3.5c0.2-0.6,1.5-1.1,1.6-0.7l-0.7,0.9
			c0.9,0.6,1.5-2.2,2.5-0.6c0.4,0.1,1,2.2,1.1,1.2c-0.6-1.9-0.6-7.8-0.1-9.2c0.1,0.1,1.9,1.9,2.2,2.8c0.6,1.5-1,3.5-0.5,4.8
			c0-0.5,0.4-1,0.5-1.2c0.4,0.4-0.2,1.4,0.6,1.2c0.2-1.7,1.7,0.2,0.4-1.4c0.8-0.5,0.8,0.4,1.8,0.3c-0.3-1.1,0.9-3.7,1.7-4.2
			c-0.1,0.4,0.1,1,0.2,1.2c1.6,0.2,2.5,1,4.1,1c0.1,0.4,0.9,0.9,0.5,1.6c0.2-0.3,0.4-0.9,0.9-0.9c0.9,1.5-1.1,0.2-0.4,2
			c0.1-1,1.2-1.3,1.9-1.9c-0.2-1.5-1.6-0.3-2.2,0.3c0-2.1,1.2-4.3,2.8-5.2c1.3-0.5,0.5,1.4,0.8,1.1c2.4,0.4,2.1-3.6,4-2.1
			c0.8,1.3,0,2.6,0.2,3.6c-1,0.5-1.6-0.9-2.3-0.8l0.9,0.6c-0.3,0.4-1,0.8-1.4,0.4c0.6,1.2,4,0.3,5.9,1.4c0.3-0.4,0.9-0.9,0.6-1.4
			l-0.6,0.2c-0.5-1.1,1.1-1.5,0.4-2c0.8-0.7,1.7-1.9,2.8-1.3l0.2,1.5c0-0.4-0.7-0.9-1-0.4c0.5-0.7,1.7,2.1,2.2,0.1l-0.8-1.1
			c0.8-0.8,1.8-2.4,2.7-1.9c-0.4-1.5-0.2,0.2-0.9-1.6c0.6,2.2-2.5-0.1-1.5,2.2c-0.7-2-1.2-0.9-2.1-2.6c0,0.5,0.3,1-0.5,0.7
			c0,0.1-0.1,0.3-0.2,0.4c0,0,0,0-0.1,0l0,0.1c0,0.1,0,0.1,0,0c0.2,0.2,0.3,0.5,0.4,0.8c-0.4,1.1-1.7,1.1-2.2,1.7
			c-0.5-0.2,0.2-0.6-0.1-1.1l-0.7,0.9c-0.1-1.1-1.3-1.9-0.1-2.5l-1-0.1c-0.6-0.6-1.4-0.9-2-0.4c-0.5-0.2-1.2,1.2-0.8,0.4L615,736
			l0-0.3c-1.6-0.2-3.3,1.8-5.1-0.2c-0.5,0.3-1.1,0.6-2,0.3l-0.2-1c-0.7,0.3-2.1-1-2.4,0c-0.7-2.6-3.3-0.6-4.5-1.1l-0.1,1.3
			c-0.8-0.1-1.6,0.3-2.7,0.7l0,1.1c-0.9,0.9-2.3-0.8-3.7-0.7c0.1-0.4,0.5-0.3,0.7,0c-1.6-2.5-3.6,1.8-5.1-0.1
			c-0.4,0.4-0.7,0.3-0.9,0c0,0,0.1,0,0.1-0.1c0,0-0.1,0-0.2,0c-0.2-0.2-0.3-0.4-0.5-0.6c0.2,0.3,0.3,0.5,0.4,0.6
			c-0.3,0-0.7,0.1-1.2,0.4l-0.2-1.2c0,0-0.1,0-0.1,0c-0.4-0.4-0.4,0.6-0.1,1.5c-0.2,0.2-0.4,0.4-0.6,0.7c-0.3-1.9-1.2,0.6-1.6-1.4
			c-0.3,1-2.2,0.7-2.5,2.8c0-0.3-0.1-0.4,0.1-0.4c-0.5-0.3-1-0.5-1.4,0.1l-0.2-1.5l-1.1,2c-0.6-0.9-0.9-1.5-0.2-2.6
			c-1.6,1.8-1.3,0.6-2.6,2.4l0.1-1c-0.5,0-1.3,1.3-1.5,0.5c-1-1.9-5.2-0.4-7.9-2.2c0.5,2.9-1.2-1.3-1.4,0.9
			c-0.1-0.7-0.5-1.1-0.1-1.7c-1.4,0.6-2.1-1.1-3.1,0.7c-0.1-0.7,0.3-1,0.2-1.4c-0.1,0.1-0.5,0.6-0.6,0.2c-0.1-0.4,0.2-0.6,0.4-0.9
			c-1.4,0.1-1.6,2.2-1.8,4.2c-0.7-1-1.1-0.8-1.6,0.5c-0.2-0.7-0.6-1.3,0.2-1.5c-0.5-0.1-3-1-3.1,0.6c-0.1-0.4-0.7-0.1-0.8,0
			c-1.1-0.1-1.2-0.3-2.3-0.1l0.3,0.3c-0.5,1.9-0.9,0.4-1.8,0.6l0-0.2c-2-1.4-0.9,0.6-2.8-1l0.1,1.2c-0.2,2.6-1.7-1.5-2.9-0.6
			l0.4,0.7c-0.6,0.9-1.7-3.5-2.3-3.8c-0.1-0.2,0.2-0.4,0.4-0.5c-1.6-1.5-0.2,1.6-1.5,1.9c-0.2-0.8,0.3-2.1-0.5-2.3
			c-0.4-0.7-2.5,2.7-3.6,1.1c0.2,0.7,0.5,1.3-0.1,1.8c-0.9,0.2-2.4-2.5-3.2-0.4c-0.1-0.2-0.2-0.3-0.2-0.5c-0.7,0.5-2.2,0.8-2.6,1.9
			c-0.6-4.1-4.2,1.9-4.2-1.8l-2.1,0.2l0.1-0.4c-1.3-0.3-1.8,0.7-2.3,1.6c-0.3-0.3-0.1-0.6-0.1-0.8c-1.9-0.8-2.1-0.6-3.8,1.3
			l-0.2-1.2c-0.4,0.7-2.8-1.9-4.7-0.5c0-0.1,0.1-0.4,0.2-0.6c-2.1,1.5-5.1-3.4-5.9,1.1l-1.4,1.1c1.8,0.3-0.3,1.9,0.5,2.7
			c-0.7,0.3-1.9-1.3-1-1.6l0.1,0.2c0.3-2.3-2.3-0.8-2.2-2.4c-3.6,0.1-7.1-1.1-10.5-1.1l0.4,1.8l-1.2-0.1c-0.3-0.4-0.4-1.4,0.4-1.4
			c-0.5-1-1.4,0.9-1.4,1.3c-1.7-0.7,0.6-2.1,0.1-2.2l-0.7,0.1l0.2,0.2c-0.5,0.8-0.6,1.5-1.6,1.5c-0.6-0.4-0.4-1.1-0.6-1.2
			c0-0.1-0.1-0.2-0.4,0l-1.5-0.1l0.6,1.4c-0.6,0.7-1.4,0-0.7,1.6c-1.1-2.5-5.5-0.7-6.2-1.5c-0.9,1.1-1.8,1.1-2.9,1
			c0.3,0.3,0.5,1.9-0.5,1.7c0.2-3.3-1.8-1.4-2.7-3.8c0.8,1.6-2.7,0.5-1.6,2.7c-0.8-0.2-0.1-1.2-0.7-2c-1.9,1.4-4.3-0.7-6.6-0.1
			c0,0.4,0.4,1.1-0.1,1.8l-1.3-2.1c-0.5,0.2-0.3,2.5-1.2,1.1c0.1,0.4,0.3,0.9,0,1.1c-4.8-1.9-9.4,2.2-14.3-1.5
			c0.7,0.8,0.3,0.9-0.2,1c0.3,0.2,0.1,1.1,0.1,1.7l-2.1-1.5c-0.3,1.7-2.1,0.2-2.2,1.8l0.6-0.3c-0.7,1.9,1.4,4,1.4,6.4
			c0.8-2.2,2.6,3,4-0.1c0.4,0.5-0.2,0.8,0,1.3c0.3-1,0.8-1.3,1.7-0.9l-0.1,0.3c2.4-0.4,3.5,0.6,6.3,1.1l-0.3-1.2
			c0.6,0.1,0.7,0.5,1,0.8c0.6-1.8-1.6,0-1.1-2c0.9,2.3,4.1-0.2,4.8,2.5c0.9,0-0.3-1.3,0.6-1.4l0.3,0.7l0.2-1c0.6,0.1,0.9,1,1,1.7
			c-0.1-0.1-0.4,0.2-0.5,0.3c0.8,0.8,2.1-0.4,2.4-0.1l-0.9-0.4c2.4-0.8,5.5,0,7.8-1.5l-0.2-0.5c1.8-1.1,1.5,0.6,3.4,0l-0.1,0.1
			c0.4-0.6,0.9-0.9,1.4-0.8c-0.5,0.7,1,1.2,0.4,2c1.9-1.2,0.9-0.9,2.2-3l0.3,0.9c0.4-0.8,0.4-1.3,1.4-1.6c-0.8,0.8,0.7,1.4-0.2,2.4
			c2.1,1.9,3-2.1,4.1,0.8c0.9-2.6-1.8-1.4-1.3-1.9c-0.5-0.8,0.7-1.9,1.4-1.7c0.7,0,1.2,3.2,2.9,3.1c-0.2,0-0.2,0.2-0.3,0.2
			c0.6,0.6,1.2-0.9,2,0.1c0.4-1.5,1,0.1,1.1-1.9l-1.5,0.5c0.9-0.5,1.6-2.8,3.1-1.8c-0.1,0.4-0.5,0.9-0.8,1.2
			c0.4,0.6,0.8-0.4,1.2,0.2c-0.1,2-1.9,0.5-2.8,2c0.5,0.8,1.7-1.5,1.3,0.7c0.6-2.7,1.7,0.3,2.7-1.8l-0.1,1.2
			c0.2-0.2,0.5-0.7,0.9-0.7l-0.6,1.5c0.9-1.3,1.8,1.1,2.7,0.4c-1.8,0.1-0.4-1.4-1.2-2.3c2.3-1.6,1.4,3.1,3.9,2.4
			c-0.3,0.2-1.3-0.7-0.8-1.2c0.5,0.2,1.1,0.7,1.4,1.3c1.7-0.3-0.3-1.2,0.4-1.9c0.6,1.4,0.8-0.6,1.6-1.1l0,1.2
			c1.9,0.8,0.5-2.5,2.2-1.6l-0.7,1.7l0.9-0.4l-0.2,1.4c1-1,1.3-0.8,2.2-0.4c-0.2-0.8,0.1-2.2,1-2.2c0.6,0.7-0.3,1.1,0.9,1
			c-0.3,0.7-0.6,1.7-1.1,0.6c-0.1,0.4-0.3,0.8-0.3,1.1c0.6,0.8,1.6,0.2,2,0.2c-0.2,0-0.4-0.1-0.5-0.3l1.7-1.7
			c0.3,0.4,0.1,0.8-0.2,1.2c0.4-0.1,0.6-0.7,1.1-0.8c-0.1,1-0.1,2-0.8,2.4l1.7-1.1c0.1,0.4,0.9,1.2,0.6,1.5c0.9,0.6,2.3-1.9,3.5-1.1
			c0.1-0.2,0.2-0.4,0.5-0.5c1.2,0.2,2.2,1.4,3.5,0.1l0.8,1.7c1.1-0.4-1-2.2,0.7-2.8c1.3-0.6,0.5,1.5,0.9,2c0.6-0.9,1.7-2.7,2.9-1.2
			C529.7,746.5,529.4,746.2,529.1,746.4z M542.3,745.8c-0.3,0.2-0.8,1-1,0.3C541.6,744.7,541.9,745.4,542.3,745.8z M562.4,743.3
			c-0.2,0.4-0.5,0.2-0.8-0.3C561.9,742.9,562.1,743,562.4,743.3z M618.6,736.1C618.6,736.1,618.6,736.1,618.6,736.1
			C618,735.7,618.2,735.8,618.6,736.1z M619.8,736.6c0.1-0.2,0.1-0.3,0.1-0.5c-0.1,0.3-0.4,0.3-0.7,0.2
			C619.3,736.6,619.4,736.9,619.8,736.6z M492,735.7l0.2,0.3C491.7,736.3,491.9,736,492,735.7z"/>
		<path class="st5" d="M560.1,744.9c-0.1-0.2-0.1-0.4-0.1-0.7C559.9,744.4,559.9,744.7,560.1,744.9z"/>
		<path class="st5" d="M520.9,747C520.9,747,520.9,747,520.9,747c-0.1,0.1-0.1,0.1-0.1,0.2L520.9,747z"/>
		<path class="st5" d="M601.2,746.5c-0.2-0.2-0.4-0.4-0.5-0.6C600.8,746.2,600.9,746.4,601.2,746.5z"/>
		<path class="st5" d="M626.1,734.6l-0.8,0.3c0.4-0.1,0.5,0.2,0.7,0.4C626,735,625.8,734.6,626.1,734.6z"/>
		<path class="st5" d="M632.6,742c0.1-0.1,0.2,0,0.3-0.2l0-0.6C632.5,741.4,632.2,741.8,632.6,742z"/>
		<path class="st5" d="M626.8,738.6c0.1,1,0.5,0.7,1.1,0.5c0,0-0.1,0-0.1,0C627.9,737.7,627.3,738.1,626.8,738.6z"/>
		<path class="st5" d="M627.9,739c0.2,0,0.3-0.1,0.5,0C628.5,738.5,628.2,738.9,627.9,739z"/>
		<path class="st5" d="M621.3,735.9c0.2,0.3,0.2-1.3,0.3-0.9C621.9,733.8,619.9,736.6,621.3,735.9z"/>
		<polygon class="st5" points="627.2,741.9 627,740.7 626.7,741.7 		"/>
		<path class="st5" d="M623,741l0.8,0.4c0-0.2,0.1-0.3,0.2-0.4C623.5,740.9,623,740.6,623,741z"/>
		<path class="st5" d="M624,740.9c0.3,0,0.5,0,0.7-0.2C624.6,740.7,624.3,740.7,624,740.9z"/>
		<polygon class="st5" points="626,742.3 625.8,742 625.2,741.9 		"/>
		<path class="st5" d="M613.8,740.6l-0.9,0.3c-0.1,0.4,0.1,0.7,0.5,0.5C613.6,741.2,614,741.1,613.8,740.6z"/>
		<path class="st5" d="M616.6,744.1c-0.2-0.3-0.3-0.5-0.4-0.9l0,1.5L616.6,744.1z"/>
		<path class="st5" d="M613.9,744.4c-0.1,0.4-1.4,1.2-0.2,1.1C613.8,745.1,614.7,744.8,613.9,744.4z"/>
		<polygon class="st5" points="599.9,742.2 600.1,742.2 600.1,739.7 		"/>
		<path class="st5" d="M587.4,748c1.1,0.6,0.3-1.6,1.3-0.8c0.3-0.6-0.8-0.6-0.5-1.1C587.5,746.7,587.1,746.4,587.4,748z"/>
		<path class="st5" d="M588.1,746.1c0.1-0.1,0.2-0.2,0.3-0.4C588.3,745.9,588.2,746,588.1,746.1z"/>
		<polygon class="st5" points="448.6,736.2 447.8,735.7 448.3,736.6 		"/>
		<path class="st5" d="M447.3,738.2l-0.3-1.6l-0.3,1.5C446.9,738,447.2,737.8,447.3,738.2z"/>
		<path class="st5" d="M544.2,749l0.1-0.4c-0.1-0.4-0.3-0.5-0.6-0.5L544.2,749z"/>
		<polygon class="st5" points="534.6,747.7 534.8,747.7 534.5,746.3 		"/>
		<path class="st5" d="M526.6,749.5c0.3,0.1,0.7-0.3,1-0.2C526.9,749.5,526.5,747.7,526.6,749.5z"/>
	</g>
	<g>
		<circle class="st6" cx="522.4" cy="396.2" r="214.1"/>
		<path class="st7" d="M522.4,622.6c-60.5,0-117.3-23.5-160.1-66.3s-66.3-99.6-66.3-160.1s23.5-117.3,66.3-160.1
			s99.6-66.3,160.1-66.3c60.5,0,117.3,23.5,160.1,66.3s66.3,99.6,66.3,160.1s-23.5,117.3-66.3,160.1S582.9,622.6,522.4,622.6z
			 M522.4,194.3c-111.3,0-201.9,90.6-201.9,201.9s90.6,201.9,201.9,201.9c111.3,0,201.9-90.6,201.9-201.9S633.7,194.3,522.4,194.3z"
			/>
	</g>
	<g>
		<path class="st7" d="M704.3,390.7c-0.6,0-1,0.5-1,1c0,1.5,0.1,3,0.1,4.5s0,3-0.1,4.5c0,0.6,0.4,1,1,1h21.2c0.6,0,1-0.4,1-1v-9
			c0-0.6-0.4-1-1-1H704.3z"/>
		<path class="st7" d="M522.4,215.3c1.5,0,3,0,4.5,0.1c0.6,0,1-0.4,1-1v-21.2c0-0.6-0.4-1-1-1h-9c-0.6,0-1,0.4-1,1v21.2
			c0,0.6,0.5,1,1,1C519.4,215.3,520.9,215.3,522.4,215.3z"/>
		<path class="st7" d="M341.5,396.2c0-1.5,0-3,0.1-4.5c0-0.6-0.4-1-1-1h-21.2c-0.6,0-1,0.4-1,1v9c0,0.6,0.4,1,1,1h21.2
			c0.6,0,1-0.5,1-1C341.5,399.2,341.5,397.7,341.5,396.2z"/>
		<path class="st7" d="M654.9,271.5l15-15c0.4-0.4,0.4-1,0-1.4l-6.3-6.3c-0.4-0.4-1-0.4-1.4,0l-15,15c-0.4,0.4-0.4,1,0,1.4
			c2.2,2.1,4.3,4.2,6.3,6.3C653.8,271.9,654.5,271.9,654.9,271.5z"/>
		<path class="st7" d="M397.7,263.8l-15-15c-0.4-0.4-1-0.4-1.4,0l-6.3,6.3c-0.4,0.4-0.4,1,0,1.4l15,15c0.4,0.4,1,0.4,1.4,0
			c2.1-2.2,4.2-4.3,6.3-6.3C398.1,264.8,398.1,264.1,397.7,263.8z"/>
		<path class="st7" d="M647.1,528.7l15,15c0.4,0.4,1,0.4,1.4,0l6.3-6.3c0.4-0.4,0.4-1,0-1.4l-15-15c-0.4-0.4-1-0.4-1.4,0
			c-2.1,2.2-4.2,4.3-6.3,6.3C646.7,527.6,646.7,528.3,647.1,528.7z"/>
		<path class="st7" d="M389.9,520.9l-15,15c-0.4,0.4-0.4,1,0,1.4l6.3,6.3c0.4,0.4,1,0.4,1.4,0l15-15c0.4-0.4,0.4-1,0-1.4
			c-2.2-2.1-4.3-4.2-6.3-6.3C391,520.5,390.3,520.5,389.9,520.9z"/>
		<path class="st7" d="M522.4,577.1c-1.5,0-3,0-4.5-0.1c-0.6,0-1,0.4-1,1v21.2c0,0.6,0.4,1,1,1h9c0.6,0,1-0.4,1-1v-21.2
			c0-0.6-0.5-1-1-1C525.4,577.1,523.9,577.1,522.4,577.1z"/>
	</g>
	<circle class="st0" cx="522.7" cy="681.5" r="58.7"/>
	<circle class="st0" cx="754.3" cy="201.9" r="15.5"/>
	<path class="st8" d="M663.3,123.8l12.2,39.5c0.1,0.5-0.3,0.9-0.8,0.8l-39.4-12.4c-0.4-0.1-0.6-0.7-0.2-1l27.2-27.1
		C662.7,123.3,663.2,123.4,663.3,123.8z"/>
	<path class="st3" d="M835.6,436.4l-21.9,16.9c-0.2,0.1-0.4,0.1-0.5-0.1l-16.9-21.9c-0.1-0.2-0.1-0.4,0.1-0.5l21.9-16.9
		c0.2-0.1,0.4-0.1,0.5,0.1l16.9,21.9C835.8,436.1,835.7,436.3,835.6,436.4z"/>
	<polygon class="st9" points="786.4,317.6 799.3,333.1 819.1,329.6 826,310.7 813.1,295.3 793.3,298.7 	"/>
	<g>
		<g>
			<path class="st10" d="M817.2,468.3"/>
		</g>
	</g>
	<path class="st4" d="M618.4,491.2l-103.6-92.8c-0.4-0.4-0.5-1.1,0-1.5l71.4-68.1c0.4-0.4,1.1-0.4,1.4,0l4.1,4.3
		c0.4,0.4,0.4,1.1,0,1.4l-65.2,62.1c-0.4,0.4-0.4,1.1,0,1.5l97.1,87c0.4,0.4,0.5,1,0.1,1.4l-4,4.4
		C619.4,491.5,618.8,491.6,618.4,491.2z"/>
	<path class="st11" d="M572.7,523.4"/>
	<circle class="st4" cx="522.4" cy="396.2" r="26.1"/>
	<g>
		<path class="st12" d="M257.2,289.9c-0.4,0.1,0.2,1,0.2,1.3C257.9,290.6,257,289.7,257.2,289.9z"/>
		<polygon class="st12" points="262.5,284.5 262.6,285 263.1,283.5 		"/>
		<path class="st12" d="M268.6,281.7c-1.4-1.4-2,1.3-3.4,1.2l-0.4-0.3l0.2,1.6C266.2,283.4,267.4,281.6,268.6,281.7z"/>
		<path class="st12" d="M273.6,283.8c-0.5-0.6,0.4-0.9-0.8,0.2c0.1,0,0.2,0.1,0.2,0.1C273.1,284,273.3,283.9,273.6,283.8z"/>
		<path class="st12" d="M272.9,284.1C272.3,284.4,273.6,284.4,272.9,284.1L272.9,284.1z"/>
		<path class="st12" d="M275.7,282.2l-0.5,1c0.4,0.3,1.2,0,1,0.4C276.9,282.9,276.5,282.6,275.7,282.2z"/>
		<path class="st12" d="M275.8,280.6l-0.3,0.5C275.7,281.2,275.8,281.2,275.8,280.6z"/>
		<path class="st12" d="M274.9,282.1l0.7-1c-0.3-0.2-0.5-0.8-0.3,0.4C275,280.9,275.1,281.5,274.9,282.1z"/>
		<path class="st12" d="M274.2,282.1c-0.6-0.1-1.4-0.1-0.8-1.1C272,282,272.8,283.1,274.2,282.1z"/>
		<path class="st12" d="M268,279.7l-0.9-0.2l-0.3,0.8C267,280,268.3,280.3,268,279.7z"/>
		<path class="st12" d="M281.3,280.5c-0.1-0.4-0.8-0.8-1.1-1.3l-0.4,0.7C280.3,280.1,281,280,281.3,280.5z"/>
		<path class="st12" d="M280.2,279.3l0.6-1.1C280,278.5,280,278.9,280.2,279.3z"/>
		<polygon class="st12" points="275.1,278.6 274.2,280.7 275.3,278.5 		"/>
		<polygon class="st12" points="284.8,278.8 284.7,279.9 285,278.2 		"/>
		<path class="st12" d="M287.1,277.5c0,0.9,1.1,0.9,0.9,1.5c0.6-0.4,0.8-1.3,1-2.1C288.7,277.5,288.1,277.7,287.1,277.5z"/>
		<path class="st12" d="M289.5,275.7c-0.2,0.3-0.3,0.7-0.4,1.2C289.2,276.6,289.4,276.3,289.5,275.7z"/>
		<path class="st12" d="M282.5,277.6c0.2,0.2,0.6,0.7,1.2,0.7l-0.9-0.8C282.8,277.5,282.6,277.5,282.5,277.6z"/>
		<path class="st12" d="M282.8,277.4L282.8,277.4c0.4-0.1,0.7-0.3,0.8-0.3C283.6,277.1,283.3,277.2,282.8,277.4z"/>
		<path class="st12" d="M282.4,277.6C282.4,277.6,282.5,277.6,282.4,277.6C282.4,277.5,282.4,277.5,282.4,277.6z"/>
		<path class="st12" d="M277.9,278.4c0.3-0.8,1.1-2-0.5-2.3C277.4,276.9,278.3,277.1,277.9,278.4z"/>
		<path class="st12" d="M281.3,276.6l-1.1,0.3c0.2,0.3,0.5,0.6,0.4,1L281.3,276.6z"/>
		<polygon class="st12" points="281.6,276 281.3,276.6 281.7,276.5 		"/>
		<path class="st12" d="M287.3,275.7c0.2-0.7,0.6-0.9,1.1-1.3c-0.7,0.1-1.3,0.3-1.8,0.6C286.7,275.3,286.7,276,287.3,275.7z"/>
		<path class="st12" d="M285.1,276.4c0,0,0-0.1,0.1-0.1C285.1,276.2,285,276.2,285.1,276.4z"/>
		<path class="st12" d="M293.5,271.7l-0.2-0.1c0,0.1,0,0.1,0.1,0.2L293.5,271.7z"/>
		<path class="st12" d="M286.4,274.8c-0.5,0-0.6,0.4-0.7,0.8c0.3-0.3,0.6-0.5,0.9-0.7C286.6,274.8,286.5,274.7,286.4,274.8z"/>
		<path class="st12" d="M290.6,274.5c-0.3-0.1-0.7-0.2-1-0.2C290,274.6,290.7,274.8,290.6,274.5z"/>
		<path class="st12" d="M285.4,276.5C285.4,276.5,285.4,276.6,285.4,276.5C285.6,276.7,285.6,276.6,285.4,276.5z"/>
		<path class="st12" d="M285.4,276.5c0.1-0.3,0.2-0.6,0.2-0.9c-0.2,0.2-0.4,0.4-0.5,0.7C285.2,276.4,285.4,276.4,285.4,276.5z"/>
		<path class="st12" d="M291.6,264.4c0.4,1-0.2,2.4-1.7,1.9c-0.6,1.2,1.6,4,3.4,5.3c-0.2-0.4-0.4-0.8,0.3-1.9
			c-0.6-0.3-2.7-0.1-2.4-1.4c1-1.1,1.2-0.2,2.1,0c-1.1-0.9,0.7-2.5-0.5-4.1l-0.8,1.2C291.9,265.2,292.1,264.5,291.6,264.4z"/>
		<path class="st12" d="M291.5,272.4l-0.3,0.3c0.5-0.1,1,0.1,2,0.6c0.4-0.8,0.4-1.2,0.3-1.6l-2,0.9L291.5,272.4z"/>
		<path class="st12" d="M289.4,273.7c-0.2-1.2,0.5-2.1-0.7-2.9c-1.1,0.7-0.4,1.3-0.8,2.1c1.7-1.2-0.2,0.8,1.4,0.7
			c-0.3,0.4-0.6,0.6-0.9,0.8c0.4-0.1,0.8-0.1,1.2,0c0,0-0.1,0-0.1,0l0,0l0,0c-0.1-0.1-0.2-0.2-0.1-0.1c0,0,0,0,0,0
			C289.4,274,289.4,273.8,289.4,273.7c0.7-0.1,0.2,0.2,0.1,0.4c0,0.1,0,0.1,0.1,0.2c0,0,0,0,0,0l1.6-1.5
			C290.7,272.8,290.2,273.1,289.4,273.7z"/>
		<path class="st12" d="M277.4,273.3c0.1,0.1,0.1,0.1,0.2,0.2C277.6,273.3,277.6,273.2,277.4,273.3z"/>
		<path class="st12" d="M278.4,273.5c-0.1,0.2,0,0.7-0.5,0.8c-0.5-0.1-0.2-0.5-0.4-0.8c-0.1,0.4-0.6,1.2,0.5,1.3l0.1-0.2
			c0.9,0,2.5,0.8,2.5,1C279.9,274.8,279.4,274.2,278.4,273.5z"/>
		<path class="st12" d="M283.8,273.4l1.3-1.3l-1.2-0.5l0.3,0.5C283.2,272.3,283.7,272.9,283.8,273.4z"/>
		<polygon class="st12" points="293.9,272.1 294.3,273.3 294.4,271.3 		"/>
		<polygon class="st12" points="295.9,271 296.3,271.9 296.5,271.1 		"/>
		<path class="st12" d="M399.5,195.2l0.3-0.5C399.7,194.9,399.6,195.1,399.5,195.2z"/>
		<path class="st12" d="M396.4,197.1l0.2,0.5C396.5,197.3,396.5,197,396.4,197.1z"/>
		<path class="st12" d="M344.6,243.7c1.1,0.5,2.6,1.4,2,0.4l-0.8-0.9C345.5,243.7,345.1,243.8,344.6,243.7z"/>
		<path class="st12" d="M373.8,218.2c-0.1-0.1-0.2-0.1-0.4-0.2c0.1,0.4,0.1,0.8,0.1,1.2C373.6,218.9,373.7,218.6,373.8,218.2z"/>
		<path class="st12" d="M371.7,213.9l1.2,0.1C372.6,213.9,372.2,213.8,371.7,213.9z"/>
		<path class="st12" d="M416.1,183.5l-0.1-1.3C415.2,182.7,415.8,183,416.1,183.5z"/>
		<path class="st12" d="M316.2,259.6c0.8,0.1,1.3,0,1.7-0.2C317,259.2,315.9,258.6,316.2,259.6z"/>
		<path class="st12" d="M404.8,206.4c0.2-0.3,0.1-0.6,0-0.8C404.6,205.9,404.6,206.2,404.8,206.4z"/>
		<path class="st12" d="M319.6,258.5c-0.2,0-0.3,0-0.4-0.1c-0.3,0.4-0.7,0.8-1.2,1C318.7,259.5,319.4,259.5,319.6,258.5z"/>
		<path class="st12" d="M479,145.8c0.1,0,0.1,0,0.2,0C479.2,145.7,479.1,145.8,479,145.8z"/>
		<path class="st12" d="M503.4,144.8c-0.1,0.2-0.4,0.3-0.7,0.5C502.8,145.3,503.1,145.2,503.4,144.8z"/>
		<path class="st12" d="M304.2,267.1C303.8,267.4,304.2,267.3,304.2,267.1L304.2,267.1z"/>
		<path class="st12" d="M300,264.2c0-0.2,0-0.3-0.1-0.6C300,263.9,300,264.1,300,264.2z"/>
		<path class="st12" d="M320.3,249.8C320.3,249.8,320.3,249.8,320.3,249.8C320.1,249.7,320.1,249.7,320.3,249.8z"/>
		<path class="st12" d="M303.3,267c0.2,0,0.5,0,0.7,0C303.9,267,303.7,267,303.3,267z"/>
		<path class="st12" d="M303.7,267.5c-0.2,0-0.3,0.1-0.4,0.1C303.3,267.8,303.4,267.8,303.7,267.5z"/>
		<path class="st12" d="M304.8,266.8c-0.2,0.1-0.5,0.2-0.7,0.3c0.1,0,0.2,0.1,0.2,0.1C304.3,267.1,304.5,266.9,304.8,266.8z"/>
		<path class="st12" d="M447.1,169c0,0,0.1,0,0.1,0C447.4,168.4,447.3,168.6,447.1,169z"/>
		<path class="st12" d="M349.3,227C349.3,227,349.3,227.1,349.3,227C349.3,227.1,349.3,227.1,349.3,227L349.3,227z"/>
		<path class="st12" d="M350.3,225.4c0.1,1.6-0.3,1.7-1,1.7l2.2,2.6L350.3,225.4z"/>
		<path class="st12" d="M406.9,190.3l-1.6-0.2c0.3-2.2,1.5-2.3-0.2-2.9c1.8,3.2-3.8,2.8-2,6l-1.1-0.2c0.2-0.1,0.1-0.3,0.3-0.4
			c-2.2-0.7,0.4,2.8-1.6,3.5c-0.7,0.1-1.4-0.1-1.3-0.7l-0.8,1.6c-0.4,0.2-0.7-0.4-0.2-0.6l-1.9,1.5l0-0.1c0,0.7-0.2,1.8-0.3,2.3
			c-0.8-0.1,0.1-0.5-0.3-0.8l-0.7,1.4c-0.9-0.5-0.5-1.9,0.3-2.2c-2.9-2.4-0.4,1.3-3.8,0.9l0.8-1c-1.8-1.3-2.2-0.2-4-0.5
			c0.6,0.4,4.1,1.3,3.3,2.8c-0.5,0-1,0.1-1.3,1.2c-0.7-1.1-1.2-0.4-1.9,0.1l-0.8-1.5c-0.6,1-0.1,1.6-0.2,2.6c-1,0.4-1.9-0.6-2.8-1.4
			c-1.7,0.7,2.2,1.1,0.5,2.5c-1.6,0.2-2.2,1.4-3.1,3.2c-1.2,0-0.4-1-1-1.2l-0.1,1.6c-0.2,0.1-0.4-0.3-0.4-0.5
			c-0.4,0.9,0.8,1.5,0,2.5c0.7,1.8-3.6-1-3.8,1.6c-0.6-0.2-0.4-1-0.8-1.5c-1.1,2.3-1,1.8-1.5,4.3l-1.8-0.2c1.6,0.5,1.2,2.5,0.8,4.2
			c0.6,0.3,1.2,0.6,1.5,0.7l-1.2,1.8c-0.3-0.1-0.5-0.7-0.6-1.5c0,0.2-0.1,0.4-0.1,0.5c-0.9-0.2-1.1-1.2-1.2-2.3
			c0.4,0.2,0.8,0.3,1.1,0.5c-0.1-1.1-0.4-2.3-1-3.1c0,0.2-0.1,0.5-0.3,0.7c0-0.3-0.1-0.6-0.2-0.7c-0.1-0.1-0.1,0.3-0.2,0.8l-1.4-1.4
			l0.3,0.7l-2.8,0.3c-0.5,2.6-0.4,5.8-2.5,7.9c-0.1-1.6-1-2-1.9-3.5c1.6,1.1,1.5-1.8,3-2.2c-0.8,0.2-1-0.5-1-0.9l-1.4,2.7
			c-0.7-1.2-1-0.6-1.9-0.7c1.8,2-0.8,2.5-1.3,3.8c-0.5-0.7-0.8-1.7,0.5-2.1c-2.3-1,0,3.7-2.1,2.9c0.3-0.2,0.5-0.2,0.4-0.6
			c-0.2,1.1-2.1,1.5-2.2,0.6l0.3-0.2c-2,0.8-5.6,3.3-4.7,5.4c-0.2-0.2-1.2-2.5-1.3-3l0.6,8.5c-0.7-1.8-4.2-5.2-3.2-7
			c-0.6,0-1.3,0.1-1.8,1.2c0.4,0.1,2.2,2,1.9,2.4c-2.2-1.2-1.4-0.5-3.7-1.3c0.7,0.1,1.7,3,1,3.4c-0.1-0.5-1.6-2.6-1.5-3l-0.2,3.6
			c0.2-0.7-1.2-2.2-2-2.7c0.5,0.4-1.5,0.8-1.9,1.4l1.1,0.2c-2.2,0.8,0.2,4.8-1.9,5.8c-0.1-0.7-1.3-3.6-2.5-3.4
			c0.3,1.6,1.7,7.6,0.5,9.6l-0.8-0.6l-0.8,1.6c-0.3-2.5-0.4-8.1-0.1-10.4c-1.1-0.2-0.7-0.8-1.8-0.1c-0.8-0.5,0-1.4,0.3-1.7l-2.9,1
			c1,1.5-1.1,2.7-0.2,3.9l1.9-3.2c1,1.5,0.9,5.3-1.1,6.1c-0.8-0.3-1.2-3-1.6-3.5c0.1,0.7-1.2,2-1.5,1.7l0.3-1.3
			c-1.4,0-0.5,3-2.6,2.3c-0.5,0.1-2.4-1.3-2-0.3c1.7,1.4,5,6.8,5.3,8.4c-0.2,0-3.2-0.4-4.2-1c-1.5-1-0.8-3.9-2.1-4.8
			c0.2,0.4,0.1,1.2,0.1,1.4c-0.7-0.1-0.6-1.4-1.4-0.7c0.7,1.7-2.1,1,0.3,1.6c-0.7,1-1.2,0.2-2.3,0.9c0.9,0.8,1,4,0.3,5
			c-0.2-0.4-0.7-0.8-0.9-1c-2,1-3.5,0.8-5.3,1.8c-0.4-0.3-1.5-0.3-1.5-1.2c-0.1,0.4,0,1.1-0.6,1.5c-1.9-0.8,1.1-0.9-0.6-2.1
			c0.4,1-0.7,2.1-1.2,3.1c1,1.3,2-0.7,2.5-1.8c1.1,2,0.8,4.8-0.6,6.8c-1.3,1.3-1.4-0.9-1.5-0.5c-3.1,1.2-0.6,4.8-3.7,4.7
			c-1.6-0.7-1.4-2.5-2.1-3.3c1-1.2,2.4-0.2,3.2-0.8l-1.4,0c0.2-0.6,0.8-1.4,1.5-1.3c-1.4-0.7-5,2.4-7.8,2.6c-0.2,0.6-0.6,1.4,0,1.8
			l0.6-0.6c1.2,0.7-0.6,2.1,0.6,2.1c-0.6,1.2-1,2.9-2.7,3.1l-1-1.3c0.3,0.4,1.3,0.4,1.5-0.2c-0.2,0.9-3.1-0.9-2.7,1.3l1.5,0.5
			c-0.6,1.2-0.9,3.4-2.4,3.5c1.3,1.1,0.2-0.3,1.9,0.9c-1.8-1.7,3.1-1.5,0.8-3.1c1.9,1.5,1.9,0,4,1.1c-0.3-0.5-0.9-0.7,0.2-1
			c0-0.2,0-0.4,0-0.5c0,0,0.1,0,0.1,0c0,0-0.1,0-0.1,0c0-0.1,0-0.1,0,0c-0.3-0.1-0.7-0.2-0.9-0.5c-0.1-1.4,1.5-2.2,1.7-3
			c0.7-0.1,0,0.7,0.6,1l0.3-1.3c0.6,1,2.5,0.9,1.5,2.3l1.3-0.6c1.1,0.2,2.2-0.1,2.6-0.9c0.7-0.1,0.9-2,0.8-0.9l1.6-1.7l0.2,0.3
			c2-0.9,3-3.9,6.3-3.2c0.5-0.6,1-1.3,2.2-1.6l0.7,0.8c0.7-0.8,3-0.5,2.8-1.6c2.3,1.9,4.3-1.7,6-2.1l-0.6-1.2c1-0.5,1.8-1.4,2.8-2.6
			l-0.7-1c0.6-1.5,3.2-0.8,4.8-1.9c0.1,0.5-0.4,0.6-0.8,0.5c3.4,1.2,3.3-4.2,6.1-3.5c0.2-0.6,0.6-0.7,1.1-0.6c0,0-0.1,0.1-0.1,0.1
			c0.1,0,0.1-0.1,0.2-0.1c0.3,0.1,0.6,0.1,1,0.2c-0.3-0.1-0.6-0.2-0.9-0.2c0.3-0.2,0.8-0.7,1.2-1.2l0.9,1c0,0,0.1-0.1,0.1-0.1
			c0.7,0.1,0.1-0.8-0.7-1.4c0.2-0.3,0.3-0.7,0.3-1.1c1.5,1.5,1-1.4,2.7,0.2c-0.2-1.1,2.2-2.2,1.3-4.4c0.2,0.2,0.4,0.3,0.1,0.5
			c0.7-0.1,1.4-0.2,1.6-1.1l1.1,1.3l0.1-2.6c1.3,0.4,1.9,0.7,1.8,2.2c0.8-2.7,1.1-1.5,1.7-4.1l0.5,1c0.5-0.4,0.7-2.1,1.5-1.6
			c2.3,1,6.3-3.5,10.4-3.8c-2.2-2.3,2.2,0.3,1.1-1.8c0.6,0.5,1.2,0.6,1,1.5c1.2-1.6,3-0.5,3.1-2.9c0.6,0.5,0.2,1.1,0.6,1.4
			c0-0.2,0.2-0.9,0.6-0.6c0.4,0.3,0.1,0.7,0,1.1c1.6-1.1,0.6-3.2-0.4-5c1.4,0.3,1.7,0,1.6-1.6c0.7,0.4,1.5,0.7,0.6,1.6
			c0.6-0.3,4.1-1.3,3.2-2.8c0.4,0.3,0.9-0.4,0.9-0.6c1.3-0.7,1.5-0.6,2.7-1.6l-0.5,0c-0.6-2.1,0.8-1,1.7-1.9l0.1,0.2
			c3.1-0.2,0.6-1.2,3.8-1.2l-0.8-1c-1.2-2.5,2.9,0.1,3.7-1.6l-0.9-0.3c0.2-1.3,4,1.9,4.9,1.8c0.3,0.1-0.1,0.5-0.2,0.8
			c2.8,0.2-0.6-1.6,0.6-2.8c0.7,0.6,0.9,2.2,1.9,1.7c0.9,0.3,1.3-4.2,3.5-3.6c-0.7-0.4-1.3-0.8-0.9-1.7c0.9-0.8,4.2,0.5,3.9-1.9
			c0.2,0.1,0.4,0.2,0.5,0.4c0.5-1,2-2.4,1.9-3.7c3.1,3.3,3.7-4.8,5.8-1.4l2.3-1.7l0.2,0.4c1.7-0.7,1.7-1.9,1.7-3.1
			c0.5,0,0.4,0.5,0.5,0.7c2.7-0.7,2.8-1,3.6-3.9l0.9,1c0.1-1,4.3-0.2,5.7-2.9c0.1,0.1,0.1,0.4,0.1,0.7c1.7-2.9,7.8-0.6,6.2-5.2l1-2
			c-2.3,1-0.8-2-2.1-2.1c0.7-0.8,2.9-0.1,2,0.7l-0.3-0.1c0.9,2.4,3.1-0.9,3.9,0.6c4.1-2.7,8.9-4,12.8-6.3l-1.5-1.4l1.4-0.7
			c0.6,0.2,1.3,1,0.3,1.5c1.1,0.6,1.1-1.8,0.9-2.2c2.3-0.5,0.5,2.4,1.1,2.1l0.7-0.6l-0.3-0.1c0.2-1.1-0.2-1.8,1.1-2.5
			c0.9-0.1,1,0.8,1.3,0.7c0.1,0.1,0.2,0.1,0.5-0.2l1.8-0.9l-1.5-0.9c0.4-1.1,1.7-0.9-0.1-1.9c2.6,1.6,6.9-3.1,8-2.8
			c0.5-1.6,1.5-2.2,2.9-2.9c-0.5-0.1-1.6-1.4-0.4-1.9c1.5,3.3,2.9,0.1,5.1,1.7c-1.7-1,3-2.3,0.4-3.6c1.1-0.3,0.8,1.1,1.9,1.4
			c1.5-2.5,5.4-2.2,7.9-4.3c-0.2-0.4-1-0.8-0.8-1.7l2.7,1.1c0.4-0.5-0.9-2.6,0.9-1.8c-0.3-0.3-0.9-0.6-0.6-1
			c6.6-1.3,10.1-8.3,17.8-7.9c-1.2-0.3-0.8-0.7-0.2-1.1c-0.5,0-0.6-1-1-1.5l3.2,0.1c-0.5-1.8,2.4-1.6,1.8-3.2l-0.6,0.7
			c-0.1-2.3-3.6-3-4.8-5.3c0.1,2.6-4.6-1.1-4.7,2.7c-0.7-0.2-0.1-0.9-0.6-1.3c0.1,1.2-0.3,1.7-1.6,1.9l0-0.3
			c-2.7,1.9-4.5,1.8-8.1,3.1l0.9,0.9c-0.8,0.3-1.1,0-1.6-0.1c0.2,2.1,2-1.1,2.4,1.2c-2.2-1.7-4.9,2.9-7,0.8c-1.1,0.6,1.1,1.1,0,1.7
			l-0.7-0.5l0.3,1c-0.8,0.3-1.6-0.4-2-0.9c0.2,0,0.4-0.5,0.5-0.6c-1.4-0.3-2.4,1.8-2.8,1.7l1.3-0.2c-2.5,2.4-6.5,3.6-8.5,6.7
			l0.5,0.4c-1.5,2.2-2,0.5-4.1,2.3l0-0.2c-0.2,0.8-0.6,1.4-1.3,1.8c0.2-1-1.8-0.5-1.4-1.6c-1.7,2.4-0.6,1.5-1,4.3l-0.9-0.6
			c0,1.1,0.2,1.5-0.9,2.4c0.5-1.3-1.5-0.8-1.1-2.4c-3.6-0.3-2.5,4.1-5.2,2.1c0.3,3,2.9,0,2.6,0.9c1,0.4,0.1,2.3-0.8,2.5
			c-0.8,0.4-3.2-2.2-5.1-0.9c0.2-0.1,0.1-0.3,0.3-0.4c-1.1-0.1-0.9,1.7-2.4,1.3c0.4,1.7-1.2,0.6-0.3,2.5l1.5-1.5
			c-0.7,1.1-0.4,3.8-2.7,3.8c-0.1-0.4,0.1-1.2,0.3-1.7c-0.8-0.2-0.7,0.9-1.6,0.7c-1-1.9,1.9-1.7,2.2-3.8c-1-0.4-1.3,2.6-1.9,0.3
			c0.7,3-2.1,0.9-2.3,3.6l-0.6-1.1c-0.1,0.3-0.2,1.1-0.6,1.3l-0.2-1.8c-0.3,1.9-2.7,0.2-3.3,1.5c2.1-1.4,1.3,1,2.7,1.2
			c-1.8,3.1-3.3-1.9-5.9,0.5c0.3-0.4,1.9-0.3,1.6,0.6c-0.7,0.1-1.7,0.2-2.4-0.2c-1.8,1.4,1,0.9,0.6,2.1c-1.5-0.9-0.6,1.1-1.2,2.1
			l-0.7-1.1c-2.7,0.7,0.8,2.6-1.7,3l-0.1-2l-0.8,1l-0.6-1.4c-0.6,1.6-1.1,1.6-2.4,2c0.7,0.6,1.1,2.1,0.1,2.7
			c-1.1-0.2-0.3-1.3-1.6-0.2c-0.1-0.9-0.3-2,0.9-1.3c-0.2-0.4-0.1-0.9-0.3-1.3c-1.2-0.3-1.9,1-2.4,1.3c0.2-0.1,0.5-0.2,0.7-0.1
			l-1.1,2.8c-0.6-0.2-0.5-0.7-0.5-1.2c-0.3,0.4-0.3,1.1-0.9,1.5c-0.4-1-1-1.9-0.4-2.8l-1.3,2.2c-0.4-0.3-1.7-0.4-1.6-0.9
			c-1.4,0.1-1.6,3.4-3.4,3.6c0,0.2,0,0.5-0.2,0.8c-1.5,0.6-3.3,0.3-4.2,2.5l-1.9-1c-1,1.1,2.5,1.3,0.8,3.1c-1.2,1.4-1.4-1-2.2-1.1
			c-0.2,1.3-0.5,3.7-2.6,3.2C406,190.6,406.5,190.6,406.9,190.3z M392,200.5c0.2-0.4,0.3-1.5,0.9-1C393.3,201,392.7,200.5,392,200.5
			z M370.2,217.5c0-0.5,0.5-0.5,1.1-0.3C371.1,217.4,370.7,217.6,370.2,217.5z M308.4,263.7C308.4,263.7,308.4,263.6,308.4,263.7
			C309.3,263.7,309,263.6,308.4,263.7z M306.7,264c-0.1,0.2,0,0.4,0.2,0.5c-0.1-0.3,0.3-0.5,0.7-0.7
			C307.3,263.6,307,263.5,306.7,264z M456,173.7l-0.4-0.1C456,172.9,456,173.3,456,173.7z"/>
		<path class="st12" d="M371.9,214.4c0.2,0.1,0.3,0.3,0.5,0.5C372.4,214.6,372.3,214.4,371.9,214.4z"/>
		<path class="st12" d="M416.1,183.8C416.1,183.8,416.1,183.7,416.1,183.8c0-0.1,0-0.2,0-0.2L416.1,183.8z"/>
		<path class="st12" d="M323.4,242.3c0.4,0,0.7,0.1,0.9,0.3C324.1,242.2,323.9,242.1,323.4,242.3z"/>
		<path class="st12" d="M300.1,270l0.8-0.8c-0.4,0.3-0.7,0.1-1,0.1C300,269.5,300.4,269.8,300.1,270z"/>
		<path class="st12" d="M288.4,267.1c-0.1,0.2-0.3,0.2-0.3,0.4l0.3,0.5C288.9,267.7,289.1,267,288.4,267.1z"/>
		<path class="st12" d="M297.2,266.7c-0.6-0.9-1-0.3-1.5,0.2c0,0,0.1-0.1,0.1-0.1C296.3,268.3,296.8,267.5,297.2,266.7z"/>
		<path class="st12" d="M295.6,267c-0.2,0.1-0.4,0.3-0.6,0.3C295.2,267.9,295.3,267.3,295.6,267z"/>
		<path class="st12" d="M305.2,265.6c-0.4-0.1,0.5,1.3,0.1,1C305.6,268,306.5,264.1,305.2,265.6z"/>
		<polygon class="st12" points="295,263.8 295.9,264.8 295.8,263.7 		"/>
		<path class="st12" d="M300.6,262l-1.2,0.2c0.1,0.2,0.1,0.4-0.1,0.6C300,262.4,300.8,262.3,300.6,262z"/>
		<path class="st12" d="M299.3,262.7c-0.3,0.2-0.6,0.3-0.7,0.6C298.8,263.3,299.1,263,299.3,262.7z"/>
		<polygon class="st12" points="296.3,262.7 296.7,262.8 297.5,262.5 		"/>
		<path class="st12" d="M311.7,256.2l0.9-0.9c-0.1-0.5-0.5-0.5-0.9-0.2C311.7,255.5,311.3,255.9,311.7,256.2z"/>
		<path class="st12" d="M306.6,254.8c0.4,0.1,0.6,0.3,1,0.6l-0.8-1.5L306.6,254.8z"/>
		<path class="st12" d="M309.6,252.7c-0.1-0.5,1-2-0.4-1.2C309.4,252,308.4,253,309.6,252.7z"/>
		<polygon class="st12" points="327.3,245.2 327.1,245.4 328.5,247.8 		"/>
		<path class="st12" d="M338.6,231.2c-1.6,0.2,0.5,1.6-1,1.6c0,0.7,1.3,0,1.3,0.7C339.3,232.4,339.9,232.5,338.6,231.2z"/>
		<path class="st12" d="M338.9,233.5c-0.1,0.2-0.1,0.4-0.2,0.6C338.8,233.8,338.8,233.6,338.9,233.5z"/>
		<polygon class="st12" points="507.2,144.2 508.3,144.2 507.3,143.8 		"/>
		<path class="st12" d="M507.7,141.6l1.1,1.4l-0.3-1.6C508.3,141.5,508.1,141.8,507.7,141.6z"/>
		<path class="st12" d="M387.9,198.9l0.2,0.4c0.4,0.3,0.6,0.2,1,0L387.9,198.9z"/>
		<polygon class="st12" points="399.7,193.1 399.5,193.2 400.7,194.3 		"/>
		<path class="st12" d="M408,185.6c-0.4,0.2-0.7,0.8-1.1,0.9C407.6,185.8,409.1,187.2,408,185.6z"/>
	</g>
</g>
</svg>
