<?xml version="1.0" encoding="utf-8"?>
<!-- Generator: Adobe Illustrator 26.0.1, SVG Export Plug-In . SVG Version: 6.00 Build 0)  -->
<svg version="1.1" id="Layer_1" xmlns="http://www.w3.org/2000/svg" xmlns:xlink="http://www.w3.org/1999/xlink" x="0px" y="0px"
	 viewBox="0 0 1000 800" style="enable-background:new 0 0 1000 800;" xml:space="preserve">
<style type="text/css">
	.st0{fill:#F8C83E;}
	.st1{fill:#303C4C;}
	.st2{opacity:0.31;}
	.st3{fill:#F8756E;}
	.st4{opacity:0.24;fill:#303178;}
	.st5{fill:#43BCA0;}
	.st6{fill:#FFFFFF;}
	.st7{fill:#4D50A2;}
	.st8{fill:#122032;}
	.st9{fill:#E7E7F2;}
	.st10{opacity:0.38;}
	.st11{fill:#5BC4AC;}
	.st12{fill:none;stroke:#FBB8B5;stroke-width:3.8369;stroke-miterlimit:10;}
	.st13{fill:#FA9377;}
</style>
<g>
	<path class="st0" d="M89.4,584.8c0-162.4,131.6-294,294-294s294,131.6,294,294H89.4z"/>
	<g>
		<path class="st1" d="M858.2,576.9c1.2,0.1,0.7-1,0.9-1.2C857.2,576,858.3,577.2,858.2,576.9z"/>
		<polygon class="st1" points="838.6,579.6 839,579.1 836.1,580.2 		"/>
		<path class="st1" d="M820.3,579.5c1.7,1.9,6.6-0.3,9.9,0.4l0.5,0.4l1.5-1.5C828.3,579.1,823.1,580.1,820.3,579.5z"/>
		<path class="st1" d="M810.5,575.4c0.6,0.7-2.1,0.6,2.3,0.2c-0.2-0.1-0.3-0.1-0.4-0.2C812,575.5,811.5,575.5,810.5,575.4z"/>
		<path class="st1" d="M812.4,575.4C814.3,575.4,811.1,574.8,812.4,575.4L812.4,575.4z"/>
		<path class="st1" d="M803.5,575.8l2.5-0.7c-0.5-0.4-2.8-0.5-2-0.9C801.5,574.7,802,575.1,803.5,575.8z"/>
		<path class="st1" d="M801.1,577.2l1.3-0.3C802.2,576.8,801.8,576.7,801.1,577.2z"/>
		<path class="st1" d="M805.2,576.4l-2.8,0.6c0.4,0.3,0.4,0.9,1.3-0.2C803.4,577.3,804,576.8,805.2,576.4z"/>
		<path class="st1" d="M806.8,576.7c1.4,0.4,3.3,0.7,0.7,1.3C812.3,577.7,811.6,576.4,806.8,576.7z"/>
		<path class="st1" d="M819.4,581.5l1.9,0.6l1.7-0.6C822.1,581.7,819.2,580.9,819.4,581.5z"/>
		<path class="st1" d="M787.6,574.8c-0.2,0.4,0.8,1.1,1,1.6l1.9-0.5C789.6,575.6,787.8,575.4,787.6,574.8z"/>
		<path class="st1" d="M788.7,576.4l-2.8,0.7C788.4,577.2,788.8,576.8,788.7,576.4z"/>
		<polygon class="st1" points="800.6,579.3 805.2,577.9 799.7,579.4 		"/>
		<polygon class="st1" points="776.9,574.7 778.5,573.7 775.6,575.1 		"/>
		<path class="st1" d="M769.8,574.8c1.2-0.8-1.6-1.3-0.4-1.8c-1.9,0.1-3.6,0.8-5.1,1.4C765.9,574,767.6,574.1,769.8,574.8z"/>
		<path class="st1" d="M761.8,575.2c0.8-0.2,1.6-0.5,2.5-0.9C763.5,574.5,762.6,574.8,761.8,575.2z"/>
		<path class="st1" d="M781.1,576.8c-0.2-0.2-0.6-0.9-2.2-1.2l1.1,1.1C780.3,576.8,780.7,576.8,781.1,576.8z"/>
		<path class="st1" d="M780,576.8L780,576.8c-1.2-0.1-2.1-0.1-2.4-0.1C777.9,576.7,778.6,576.8,780,576.8z"/>
		<path class="st1" d="M781.3,576.8c-0.1,0-0.2,0-0.3,0C781.2,576.9,781.2,577,781.3,576.8z"/>
		<path class="st1" d="M793.2,578.3c-1.7,0.6-5.1,1.3-1.8,2.3C792.6,579.8,790.7,579.2,793.2,578.3z"/>
		<path class="st1" d="M782.7,578.3l3,0.3c-0.1-0.3-0.6-0.7,0.2-1.1L782.7,578.3z"/>
		<polygon class="st1" points="781.2,578.6 782.7,578.3 781.6,578.2 		"/>
		<path class="st1" d="M766.9,576.3c-1.3,0.5-2.7,0.5-4.3,0.6c1.7,0.2,3.5,0.4,5.2,0.4C768,576.9,768.8,576.3,766.9,576.3z"/>
		<path class="st1" d="M773.3,576.7c-0.1,0-0.2,0-0.3,0.1C773.2,576.8,773.3,576.9,773.3,576.7z"/>
		<path class="st1" d="M746.9,576.8c0.1,0.1,0.2,0.1,0.3,0.2c0-0.1,0-0.1,0.1-0.2L746.9,576.8z"/>
		<path class="st1" d="M768.1,577.5c1.3,0.2,2.1,0,2.8-0.4c-1,0.1-2,0.2-3.1,0.2C767.7,577.4,767.6,577.5,768.1,577.5z"/>
		<path class="st1" d="M757.4,575.7c0.7,0.2,1.4,0.4,2.2,0.6C759,576,757.7,575.4,757.4,575.7z"/>
		<path class="st1" d="M772.6,576.4c0.1,0,0.1,0,0.2,0C772.3,576.1,772.4,576.2,772.6,576.4z"/>
		<path class="st1" d="M772.6,576.4c-0.7,0.2-1.2,0.4-1.7,0.7c0.8-0.1,1.5-0.2,2.1-0.4C772.8,576.7,772.7,576.5,772.6,576.4z"/>
		<path class="st1" d="M742.1,584c0.2-1.1,3.6-2,6.5-0.8c2.9-0.8,1-4.2-1.5-6.2c-0.1,0.5-0.1,0.9-3.1,1.5c1,0.6,6.5,1.4,4,2.3
			c-3.9,0.5-3.2-0.4-5.1-1c1.6,1.3-5,1.9-4.2,3.8l3.4-0.7C742.4,583.3,741.1,583.8,742.1,584z"/>
		<path class="st1" d="M752.8,577.1l1.2-0.1c-1.4-0.2-2.4-0.6-4.2-1.5c-2,0.5-2.4,0.9-2.6,1.2l6,0.2L752.8,577.1z"/>
		<path class="st1" d="M759.5,577.1c-1,1.1-3.9,1.6-2.1,2.9c3.6-0.1,2.5-0.9,4.6-1.4c-5.8,0.2,1.7-0.6-2.5-1.3
			c1.1-0.2,2.2-0.2,3.1-0.3c-1-0.1-2-0.3-3-0.5c0.1,0,0.1,0,0.1,0.1l0,0c0,0,0,0,0,0c0.2,0.1,0.3,0.2,0,0.2c0,0-0.1,0-0.1,0
			C759.7,576.8,759.6,576.9,759.5,577.1c-1.7-0.3-0.3-0.3,0.3-0.4c0-0.1,0.1-0.1,0.1-0.2l0,0L754,577
			C755.2,577.2,756.8,577.2,759.5,577.1z"/>
		<path class="st1" d="M788.4,583c-0.2-0.1-0.2-0.2-0.2-0.3C787.8,582.9,787.7,583,788.4,583z"/>
		<path class="st1" d="M786,582.3c0.4-0.2,0.8-0.6,2.1-0.5c1.2,0.4,0,0.5,0.1,0.9c0.8-0.3,2.9-0.8,0.3-1.4l-0.4,0.2
			c-2.3-0.4-5.3-1.9-4.9-2C783.9,580.5,784.5,581.3,786,582.3z"/>
		<path class="st1" d="M772.6,580l-4.8,0.5l2.4,1l-0.1-0.6C772.8,581.2,772.2,580.4,772.6,580z"/>
		<polygon class="st1" points="746.4,576.2 747,575 744.2,576.7 		"/>
		<polygon class="st1" points="740.1,576.3 740.4,575.2 738.7,575.9 		"/>
		<path class="st1" d="M387.9,586.1l-1.4,0.3C387.1,586.3,387.5,586.2,387.9,586.1z"/>
		<path class="st1" d="M398.1,586.3l0.3-0.5C397.8,586,397.7,586.2,398.1,586.3z"/>
		<path class="st1" d="M586.9,575c-2-1-4.3-2.5-4.1-1.4l0.6,1.2C584.8,574.6,585.9,574.7,586.9,575z"/>
		<path class="st1" d="M481.8,580.9c0.2,0.1,0.4,0.2,0.6,0.4c0.5-0.4,1-0.8,1.4-1.1C483.2,580.4,482.5,580.6,481.8,580.9z"/>
		<path class="st1" d="M480.3,585.6l-2.7-0.8C478.2,585.1,479.1,585.4,480.3,585.6z"/>
		<path class="st1" d="M332.1,586.9l-1.7,1.2C333,588.1,331.9,587.5,332.1,586.9z"/>
		<path class="st1" d="M676.2,576.2c-1.8-0.5-3.2-0.7-4.4-0.7C673.9,576.1,675.6,577.1,676.2,576.2z"/>
		<path class="st1" d="M392,573.9c-0.9,0.2-1.2,0.4-1.2,0.7C391.6,574.4,392.2,574.2,392,573.9z"/>
		<path class="st1" d="M666.7,575.4c0.3,0.1,0.6,0.2,0.9,0.3c1.3-0.2,2.6-0.3,4.2-0.2C670.2,574.9,668.4,574.6,666.7,575.4z"/>
		<path class="st1" d="M129.8,585.8c-0.1,0-0.3-0.1-0.5-0.1C129.3,585.9,129.5,585.9,129.8,585.8z"/>
		<path class="st1" d="M70.6,575.3c0.6-0.1,1.5-0.1,2.4-0.2C72.6,575.1,71.9,575.1,70.6,575.3z"/>
		<path class="st1" d="M715,575.6C716.4,575.5,715.2,575.5,715,575.6L715,575.6z"/>
		<path class="st1" d="M721.4,580.2c-0.3,0.1-0.5,0.3-0.5,0.6C721,580.5,721.2,580.3,721.4,580.2z"/>
		<path class="st1" d="M653.4,582.4c0,0-0.1,0-0.1,0C653.7,582.7,653.6,582.6,653.4,582.4z"/>
		<path class="st1" d="M717,576.1c-0.5-0.1-1.1-0.3-1.7-0.4C715.6,575.9,716.1,576,717,576.1z"/>
		<path class="st1" d="M716.8,575.6c0.5,0,0.8,0.1,1.2,0.1C718.1,575.5,717.9,575.4,716.8,575.6z"/>
		<path class="st1" d="M713.2,575.6c0.8,0,1.5,0,2.1,0.1c-0.3-0.1-0.4-0.1-0.3-0.2C714.6,575.6,714.1,575.6,713.2,575.6z"/>
		<path class="st1" d="M238.2,582.5c-0.1,0-0.2-0.1-0.3-0.1C236.5,582.9,237.1,582.8,238.2,582.5z"/>
		<path class="st1" d="M552.3,586.6c0.1,0,0.1,0,0.2-0.1C552.4,586.6,552.3,586.5,552.3,586.6L552.3,586.6z"/>
		<path class="st1" d="M547.5,587.4c2-1.4,3.2-1.2,4.7-0.9l-1.5-3.3L547.5,587.4z"/>
		<path class="st1" d="M363.4,586.3l3.3,1.1c-4,1.7-7,1.1-3.8,2.5c0.5-3.6,13-0.3,13.5-3.9l2.2,0.8c-0.6,0-0.7,0.2-1.4,0.1
			c4.3,1.8,3.2-2.6,8.7-2c1.9,0.3,3.3,0.8,1.9,1.2l4.3-0.9c1.2,0.1,0.9,0.7-0.3,0.6l6.5-0.2l0,0.1c0.9-0.6,3.1-1.4,4.1-1.8
			c1.7,0.5-0.8,0.4-0.4,0.8l3.6-0.8c1.5,1-1.5,1.8-4,1.7c3.3,3.6,3-0.9,10.3,1.3l-3.4,0.4c2.2,2.1,4.9,1.3,8.7,2.7
			c-0.9-0.7-7.7-3.3-3.8-4.2c1.1,0.3,2.6,0.4,4.7-0.3c0,1.3,2.1,1,4.7,0.9l-0.2,1.7c2.8-0.5,2.6-1.3,4.2-2.1
			c3.1,0.2,3.8,1.5,4.5,2.6c5,0.3-3.4-2.1,2.5-2.4c4.1,0.7,7.1,0,12-1c2.9,0.6-0.5,1,0.5,1.5l2.6-1.3c0.6,0,0.4,0.5,0.3,0.7
			c2.2-0.5,0.2-1.7,3.6-2.1c0.9-1.9,7,2.8,11.2,0.7c1,0.5-0.5,1-0.2,1.7c5.8-1.3,5-1,9.8-2.8l4,1.2c-3-1.3,0.9-2.8,4.2-4
			c-1.1-0.6-1.9-1.2-2.6-1.4l5.3-0.9c0.6,0.3,0.1,0.9-0.8,1.6c0.4-0.1,0.7-0.3,1-0.4c1.9,0.6,0.9,1.6-0.5,2.6
			c-0.6-0.3-1.3-0.7-1.9-1.1c-1.3,1-2.6,2.2-2.3,3.2c0.3-0.2,1-0.4,1.7-0.4c-0.3,0.3-0.6,0.5-0.4,0.7c0.2,0.2,0.7-0.2,1.6-0.6
			l1.2,1.9l0.3-0.8l6.9,1.3c5-1.9,9.4-4.6,17.3-5.3c-2,1.4-0.4,2.3-0.6,3.9c-2.1-1.8-6.1,0.7-10.2,0.3c2.1,0.2,1.7,1,1.1,1.3
			l7.3-1.5c-0.2,1.3,1.5,1,3.4,1.6c-1.4-2.7,5.5-1.7,8.4-2.5c0.2,0.9-0.5,1.8-4.2,1.6c4,2,5.2-3.1,9.1-1.3c-0.9,0-1.4-0.1-1.7,0.3
			c2.1-0.8,7.1-0.1,5.9,0.7l-0.9,0c5.9,0.4,17.9,0.2,18.8-2.1c0.1,0.3-0.8,2.7-1.2,3.2l10.6-7.5c-0.9,1.9,2.6,6.6-2.3,7.6
			c1.4,0.3,3.1,0.6,6.1,0c-1-0.3-2.4-2.8-1-3c3.6,2.2,2.5,1.2,6.9,3.1c-1.4-0.4,0.2-3.5,2.5-3.3c-0.4,0.5,0.2,3-0.7,3.3l5.7-2.9
			c-1.4,0.5-0.3,2.5,1,3.4c-0.6-0.6,4.9,0.1,6.4-0.2l-2.4-0.7c6.4,0.5,6.3-4.1,12.6-3.9c-0.8,0.6-1.9,3.8,1.3,4.2
			c1.5-1.5,6.6-7.3,12.2-8.4l1.1,0.9l4.3-1c-2.7,2.3-10.2,7.1-14.3,8.9c2.4,0.7,0.7,1,4.2,1c1.2,0.8-2,1.2-3,1.3l8.3,0.6
			c-0.4-1.8,6.4-1.7,6.1-3.2l-9,1.8c-0.3-1.8,5.3-5,11.1-4.7c1.5,0.7-1.1,3.2-1,3.8c0.8-0.6,5.6-1.1,6.1-0.7l-2.5,0.9
			c3.3,0.7,5.4-2.3,9.3-0.6c1.4,0.1,4,2.3,4.3,1.3c-2.2-2.1-2.6-8.4-1.1-9.9c0.5,0.1,7.1,2,8.6,3c2.2,1.6-3.4,3.8-1.5,5.2
			c0.1-0.5,1.3-1.1,1.8-1.3c1.4,0.4-0.6,1.5,2.5,1.3c0.5-1.8,6.3,0.2,1.5-1.5c3-0.5,3.2,0.4,6.8,0.4c-1.1-1.2,3.2-4,6.3-4.4
			c-0.2,0.5,0.5,1.1,0.8,1.3c6.2,0.2,9.5,1.1,15.3,1.1c0.5,0.4,3.3,1,2.1,1.8c0.8-0.3,1.6-0.9,3.4-0.9c3.4,1.6-4,0.2-1.4,2.1
			c0.2-1.1,4.6-1.4,7.2-2c-0.8-1.6-5.9-0.4-8.4,0.3c0-2.2,4.5-4.6,10.5-5.5c4.8-0.5,2.1,1.5,2.9,1.2c9,0.5,7.7-3.8,15.2-2.2
			c3,1.5,0.1,2.8,0.8,3.9c-3.9,0.5-6-1-8.7-0.9l3.3,0.7c-1.3,0.5-3.9,0.8-5.3,0.4c2.5,1.3,15.3,0.4,22.2,1.6
			c1.2-0.5,3.4-0.9,2.4-1.5l-2.2,0.2c-2-1.2,4.2-1.6,1.4-2.1c3-0.8,6.3-2,10.4-1.3l0.8,1.6c-0.1-0.5-2.7-1-3.9-0.5
			c1.7-0.7,6.4,2.3,8.3,0.1l-2.9-1.2c3-0.8,6.7-2.5,10.3-1.9c-1.7-1.6-0.9,0.2-3.5-1.7c2.3,2.4-9.4-0.2-5.8,2.3
			c-2.7-2.2-4.6-1-8.1-2.9c0.1,0.5,1.2,1-1.9,0.7c-0.1,0.2-0.5,0.4-0.7,0.5c-0.1,0-0.1,0-0.2,0c0.1,0,0.1,0,0.2,0.1
			c-0.1,0.1-0.1,0.1,0.1,0c0.7,0.2,1.3,0.5,1.6,0.8c-1.5,1.2-6.5,1.1-8.1,1.8c-1.8-0.3,0.8-0.6-0.2-1.2l-2.5,0.9
			c-0.2-1.2-4.9-2-0.5-2.7l-3.9-0.1c-2.3-0.7-5.4-1-7.4-0.5c-1.8-0.3-4.7,1.3-3,0.4l-6.1,0.7l-0.1-0.3c-6-0.2-12.4,1.9-19.3-0.4
			c-2,0.3-4.1,0.6-7.5,0.3l-0.7-1c-2.6,0.3-7.8-1.1-8.9,0c-2.8-2.8-12.6-0.7-17.2-1.3l-0.2,1.3c-3.2-0.1-6.2,0.2-10.1,0.7l0.2,1.2
			c-3.4,0.9-8.7-0.9-14-0.9c0.4-0.5,1.7-0.3,2.7,0c-6.4-2.8-13.5,1.8-19.3-0.2c-1.4,0.4-2.5,0.3-3.5,0c0.1,0,0.3,0,0.4-0.1
			c-0.1,0-0.4,0-0.6,0c-0.6-0.2-1.3-0.5-2-0.7c0.6,0.3,1.2,0.5,1.7,0.7c-1.1,0-2.8,0.1-4.5,0.4l-0.7-1.3c-0.1,0-0.2,0-0.4,0
			c-1.6-0.5-1.3,0.6-0.5,1.6c-0.8,0.2-1.6,0.4-2.2,0.8c-1.3-2.1-4.3,0.7-6.1-1.6c-1.1,1.1-8.3,0.7-9.2,3c-0.1-0.3-0.5-0.4,0.4-0.5
			c-1.8-0.3-3.7-0.6-5.3,0.1l-0.8-1.6l-4,2.1c-2.4-1-3.4-1.6-1-2.8c-5.9,1.9-4.8,0.7-9.8,2.5l0.3-1.1c-1.8,0-4.6,1.4-5.7,0.5
			c-4-2-19.7-0.5-29.9-2.4c2,3.1-4.7-1.4-5.2,1c-0.6-0.7-2-1.2-0.3-1.8c-5.2,0.7-7.8-1.2-11.5,0.8c-0.6-0.7,1.1-1.1,0.6-1.5
			c-0.4,0.2-1.7,0.6-2.2,0.2c-0.5-0.4,0.8-0.6,1.6-0.9c-5.3,0.1-5.9,2.3-6.3,4.4c-2.7-1-4-0.9-6,0.5c-0.9-0.7-2.5-1.4,0.8-1.7
			c-1.9-0.1-11.4-1.1-11.6,0.6c-0.6-0.4-2.6-0.2-3.1,0c-4.2-0.1-4.6-0.3-8.7-0.2l1.1,0.3c-1.6,2-3.4,0.4-6.7,0.6l0.1-0.2
			c-7.6-1.5-3.3,0.7-10.8-1.1l0.4,1.3c-0.7,2.7-6.6-1.7-11-0.7l1.6,0.7c-2.4,0.9-6.6-3.8-9-4.2c-0.5-0.2,0.8-0.4,1.6-0.5
			c-6.2-1.7-0.8,1.7-5.5,2c-0.9-0.9,1.1-2.3-2-2.5c-1.6-0.7-9.1,2.9-13.4,1.1c0.9,0.7,1.9,1.4-0.3,1.9c-3.3,0.2-8.9-2.7-11.9-0.5
			c-0.4-0.2-0.6-0.4-0.6-0.6c-2.5,0.5-8.2,0.9-9.8,2.1c-2.3-4.4-15.8,2-15.7-2l-7.8,0.2l0.2-0.4c-5-0.3-6.7,0.7-8.5,1.6
			c-1.1-0.3-0.3-0.7-0.2-0.9c-7.3-0.9-8-0.7-14.1,1.3l-0.6-1.3c-1.7,0.8-10.5-2.1-17.7-0.6c0.1-0.2,0.2-0.4,0.8-0.6
			c-8,1.5-19.2-3.8-22.2,1l-5.3,1.2c6.9,0.4-1,2.1,1.8,2.9c-2.7,0.3-7-1.5-3.6-1.7l0.5,0.2c1.2-2.5-8.5-0.9-8.3-2.6
			c-13.5,0-26.6-1.4-39.3-1.5l1.5,1.9l-4.4-0.1c-1.2-0.5-1.6-1.5,1.6-1.4c-1.7-1.1-5.3,0.9-5.4,1.3c-6.2-0.8,2.4-2.3,0.5-2.3
			l-2.6,0.1l0.6,0.2c-2.1,0.8-2.3,1.6-6,1.5c-2.4-0.4-1.2-1.2-2.2-1.3c0-0.1-0.3-0.2-1.4-0.1l-5.6-0.2l2.2,1.5
			c-2.5,0.8-5.2-0.1-2.7,1.7c-3.8-2.7-20.7-1-23-1.8c-3.4,1.1-6.9,1.1-11.1,1c1,0.3,1.7,2-2,1.8c1.3-3.6-6.7-1.5-9.6-4.1
			c2.6,1.7-10.3,0.4-6.2,2.8c-3-0.3-0.2-1.3-2.5-2.2c-7.2,1.4-15.9-0.8-24.9-0.3c-0.1,0.5,1.4,1.2-0.5,1.9l-4.7-2.3
			c-1.8,0.2-1.6,2.7-4.8,1.1c0.5,0.4,1.1,1,0,1.1c-4.4-0.5-8.8-0.7-13.3-0.6c-4.5,0.1-8.9,0.3-13.4,0.5c-4.5,0.2-9,0.3-13.5,0.2
			c-4.5-0.2-9-0.7-13.5-1.5c2.5,0.8,0.8,1-1,1.1c1.2,0.2,0,1.2,0.3,1.8l-7.5-1.5c-1.3,1.8-8,0.4-8.7,2.2l2.3-0.4
			c-3,2.1,4.6,4.2,4.3,6.8c3.4-2.4,9.3,3,14.9-0.5c1.3,0.5-1.1,0.9-0.4,1.4c1.4-1.2,3.2-1.4,6.4-1l-0.4,0.3
			c9.1-0.4,13.1,0.6,23.4,1.1l-0.8-1.2c2.2,0.1,2.7,0.5,3.7,0.8c2.5-2-6.2,0-3.9-2.1c1.5,1.3,5.4,1.2,9.2,1.2c3.8,0,7.4,0.1,8.4,1.5
			c3.4,0-1-1.5,2.4-1.5l0.9,0.8l0.8-1c2.2,0.1,3.4,1.1,3.5,1.8c-0.5-0.1-1.5,0.2-2.1,0.3c2.9,0.9,8.1-0.4,9.1-0.1l-3.3-0.5
			c9.3-0.8,20.6,0.1,29.6-1.5l-0.7-0.6c6.8-1.1,5.5,0.6,13,0.1l-0.3,0.1c1.5-0.6,3.5-0.9,5.6-0.8c-1.9,0.7,3.6,1.3,1.1,2.1
			c7.4-1.2,3.7-0.9,8.6-3.2l1.1,1c1.7-0.9,1.8-1.4,5.6-1.6c-3.1,0.9,2.4,1.5-1.1,2.6c7.9,2.1,11.7-2.2,15.3,1
			c3.6-2.7-6.8-1.5-4.8-2.1c-1.7-0.9,3-2,5.5-1.8c2.5,0.1,4.3,3.5,10.6,3.5c-0.6,0-0.7,0.2-1.3,0.2c2.4,0.7,4.6-0.9,7.6,0.2
			c1.6-1.6,3.8,0.1,4.2-2l-5.8,0.5c3.3-0.5,6.4-3,11.8-1.8c-0.4,0.4-2,1-3.2,1.3c1.6,0.6,3.1-0.4,4.7,0.2c-0.5,2.1-7.1,0.4-10.6,2
			c1.7,0.9,6.7-1.5,4.9,0.8c2.6-2.9,6.2,0.4,10.5-1.8l-0.3,1.3c0.7-0.2,2.1-0.8,3.3-0.8l-2.3,1.6c3.5-1.4,6.7,1.2,10,0.5
			c-7,0-1.6-1.5-4.5-2.5c8.6-1.7,4.9,3.3,14.6,2.7c-1.3,0.2-4.9-0.8-2.9-1.4c1.8,0.3,4.3,0.8,5.4,1.4c6.4-0.2-1-1.3,1.7-2.1
			c2.2,1.5,3.1-0.6,5.9-1.1l0,1.3c7.3,0.9,1.9-2.7,8.5-1.6l-2.8,1.8l3.4-0.4l-0.7,1.5c3.7-1.1,4.9-0.8,8.5-0.4
			c-0.8-0.9,0.5-2.3,3.7-2.3c2.2,0.8-1.2,1.2,3.3,1.1c-1,0.8-2.2,1.8-4.2,0.6c-0.2,0.4-1,0.8-1.2,1.2c2.4,0.9,5.9,0.2,7.6,0.2
			c-0.6-0.1-1.4-0.1-1.8-0.3l6.6-1.7c1,0.5,0.2,0.9-0.6,1.2c1.3-0.1,2.3-0.7,4.2-0.8c-0.5,1-0.4,2.1-3.2,2.6l6.3-1.1
			c0.4,0.5,3.2,1.3,2.4,1.6c3.5,0.6,8.6-2,13.2-1.1c0.2-0.2,0.7-0.4,1.7-0.5c4.4,0.3,8.2,1.6,13.4,0.2l2.9,1.9c4-0.4-4-2.4,2.8-3
			c4.8-0.6,1.8,1.6,3.4,2.1c2.4-0.9,6.5-2.8,10.9-1.3C365.9,586.4,364.8,586.1,363.4,586.3z M413.3,585.8c-1,0.3-2.9,1.1-3.6,0.3
			C410.8,584.7,411.6,585.4,413.3,585.8z M489.2,583.4c-0.7,0.4-1.8,0.2-3.1-0.3C487,583,488,583.1,489.2,583.4z M700.5,576.5
			c0,0-0.1,0-0.1,0.1C698.3,576,699,576.2,700.5,576.5z M705,577.1c0.5-0.2,0.4-0.4,0.2-0.5c-0.3,0.3-1.3,0.3-2.5,0.2
			C703.1,577.1,703.6,577.4,705,577.1z M224,573.8l0.9,0.3C222.9,574.5,223.5,574.2,224,573.8z"/>
		<path class="st1" d="M480.5,585.1c-0.3-0.2-0.3-0.5-0.4-0.7C479.7,584.6,479.7,584.8,480.5,585.1z"/>
		<path class="st1" d="M332.4,586.7c-0.1,0-0.1,0-0.2,0c-0.1,0.1-0.1,0.2-0.2,0.2L332.4,586.7z"/>
		<path class="st1" d="M635.5,587.3c-0.9-0.2-1.4-0.4-1.8-0.7C633.7,587,634.1,587.2,635.5,587.3z"/>
		<path class="st1" d="M728.7,575.1l-2.9,0.3c1.4-0.1,1.9,0.2,2.6,0.4C728.4,575.6,727.8,575.1,728.7,575.1z"/>
		<path class="st1" d="M753.6,583.3c0.4-0.2,0.9,0,1.3-0.2l-0.1-0.6C753,582.5,751.7,583,753.6,583.3z"/>
		<path class="st1" d="M731.4,579.4c0.2,1.1,2,0.7,4,0.5c-0.1,0-0.2,0-0.4,0C735.6,578.4,733.5,578.9,731.4,579.4z"/>
		<path class="st1" d="M735.8,579.9c0.6,0,1.3-0.1,1.9,0C737.9,579.3,737,579.8,735.8,579.9z"/>
		<path class="st1" d="M710.7,576.4c0.9,0.3,0.6-1.4,1.1-0.9C712.9,574.1,705.5,577.1,710.7,576.4z"/>
		<polygon class="st1" points="732.9,583 732.2,581.6 731.1,582.7 		"/>
		<path class="st1" d="M717.1,581.9l3.2,0.4c0-0.2,0.4-0.4,0.9-0.4C719.2,581.7,717,581.5,717.1,581.9z"/>
		<path class="st1" d="M721.2,581.8c1,0,2,0,2.6-0.2C723.2,581.6,722,581.7,721.2,581.8z"/>
		<polygon class="st1" points="728.6,583.3 727.6,583.1 725.3,582.9 		"/>
		<path class="st1" d="M682.6,581.3l-3.5,0.3c-0.4,0.5,0.6,0.7,1.9,0.6C681.8,581.9,683.1,581.7,682.6,581.3z"/>
		<path class="st1" d="M693.1,585c-0.9-0.3-1-0.6-1.5-1l-0.1,1.6L693.1,585z"/>
		<path class="st1" d="M682.9,585.3c-0.4,0.5-5.1,1.3-0.7,1.2C682.6,586.1,686.1,585.7,682.9,585.3z"/>
		<polygon class="st1" points="630.1,582.7 631,582.7 630.9,580 		"/>
		<path class="st1" d="M583.5,588.8c4.1,0.7,1-1.7,4.7-0.8c1-0.6-3.1-0.7-2.1-1.2C583.7,587.4,582.4,587,583.5,588.8z"/>
		<path class="st1" d="M586.2,586.7c0.4-0.1,0.8-0.2,1.3-0.4C586.8,586.5,586.5,586.6,586.2,586.7z"/>
		<polygon class="st1" points="60.7,574.3 58,573.8 59.8,574.7 		"/>
		<path class="st1" d="M55.6,576.5l-0.7-1.7l-1.5,1.6C54,576.3,55.2,576.1,55.6,576.5z"/>
		<path class="st1" d="M420.7,589.4l0.2-0.4c-0.4-0.5-1-0.5-2.3-0.6L420.7,589.4z"/>
		<polygon class="st1" points="384.5,587.8 385.1,587.8 383.9,586.2 		"/>
		<path class="st1" d="M354.1,589.5c1.2,0.1,2.7-0.3,3.9-0.2C355.3,589.6,353.8,587.6,354.1,589.5z"/>
	</g>
	<g class="st2">
		<path class="st3" d="M546.4,336.1c0.4,0.4,0.9-0.5,1.1-0.6C546.6,335,546.3,336.3,546.4,336.1z"/>
		<polygon class="st3" points="537.1,332 537.5,331.7 535.6,331.8 		"/>
		<path class="st3" d="M529.5,326.8c-0.3,2,2.9,1.6,3.9,3.1l0,0.5l1.5-0.8C533,328.7,530.3,328,529.5,326.8z"/>
		<path class="st3" d="M527.3,320.9c-0.1,0.8-1.2,0,0.9,0.8c-0.1-0.1-0.1-0.2-0.1-0.3C528,321.3,527.7,321.1,527.3,320.9z"/>
		<path class="st3" d="M528.1,321.4C529,321.8,527.9,320.5,528.1,321.4L528.1,321.4z"/>
		<path class="st3" d="M524,319.4l1.4,0.1c0-0.5-1-1.2-0.4-1.2C523.7,317.9,523.7,318.4,524,319.4z"/>
		<path class="st3" d="M522.3,320l0.7,0.1C523,319.9,522.9,319.7,522.3,320z"/>
		<path class="st3" d="M524.5,320.3l-1.5-0.2c0,0.4-0.3,0.9,0.7,0.1C523.3,320.7,523.8,320.3,524.5,320.3z"/>
		<path class="st3" d="M525.1,321c0.4,0.7,1.1,1.4-0.3,1.3C527,323.3,527.3,322,525.1,321z"/>
		<path class="st3" d="M528,328.2l0.5,1l1-0.1C529,329.1,528.3,327.7,528,328.2z"/>
		<path class="st3" d="M517.3,314.8c-0.3,0.3-0.1,1.1-0.2,1.6l1.1,0C517.9,315.9,517.1,315.3,517.3,314.8z"/>
		<path class="st3" d="M517.1,316.4l-1.6,0C516.6,317,517,316.8,517.1,316.4z"/>
		<polygon class="st3" points="521.1,321.7 523.8,321.6 520.7,321.5 		"/>
		<polygon class="st3" points="512.5,312.2 513.6,311.8 511.7,312.4 		"/>
		<path class="st3" d="M509.1,310.9c0.9-0.4-0.2-1.5,0.6-1.7c-1-0.3-2,0-2.9,0.2C507.6,309.4,508.4,309.9,509.1,310.9z"/>
		<path class="st3" d="M505.2,309.7c0.4,0,0.9-0.1,1.5-0.3C506.3,309.4,505.8,309.5,505.2,309.7z"/>
		<path class="st3" d="M513.5,315.1c0-0.3,0.1-0.9-0.5-1.5l0,1.3C513.1,314.9,513.3,315,513.5,315.1z"/>
		<path class="st3" d="M513,314.8L513,314.8c-0.5-0.3-0.9-0.6-1.1-0.6C512.1,314.3,512.4,314.5,513,314.8z"/>
		<path class="st3" d="M513.6,315.1c0,0-0.1,0-0.1-0.1C513.5,315.2,513.5,315.2,513.6,315.1z"/>
		<path class="st3" d="M518.3,319c-1,0.2-2.9,0-1.8,1.6C517.4,320.2,516.8,319.3,518.3,319z"/>
		<path class="st3" d="M513.6,316.7l1.2,0.9c0.1-0.3,0.1-0.8,0.6-0.9L513.6,316.7z"/>
		<polygon class="st3" points="512.8,316.7 513.6,316.7 513.1,316.4 		"/>
		<path class="st3" d="M507.2,311.7c-0.8,0.2-1.5-0.1-2.2-0.3c0.7,0.5,1.5,1,2.2,1.3C507.4,312.4,508,312,507.2,311.7z"/>
		<path class="st3" d="M510,313.2c-0.1,0-0.1,0-0.2,0C509.9,313.4,509.9,313.4,510,313.2z"/>
		<path class="st3" d="M497.7,308.3c0,0.1,0,0.2,0,0.2c0-0.1,0.1-0.1,0.1-0.2L497.7,308.3z"/>
		<path class="st3" d="M507.2,312.9c0.5,0.5,1,0.4,1.4,0.2c-0.5-0.1-1-0.2-1.5-0.4C507.1,312.8,507,312.9,507.2,312.9z"/>
		<path class="st3" d="M503,309.3c0.2,0.4,0.5,0.7,0.8,1C503.6,309.8,503.2,309,503,309.3z"/>
		<path class="st3" d="M509.8,312.9c0,0,0.1,0,0.1,0C509.8,312.6,509.7,312.7,509.8,312.9z"/>
		<path class="st3" d="M509.8,312.9c-0.4,0-0.7,0.2-1.1,0.3c0.4,0.1,0.8,0.1,1.1,0.1C509.8,313.1,509.8,313,509.8,312.9z"/>
		<path class="st3" d="M492.9,314.1c0.5-0.9,2.4-1.2,3.3,0.3c1.6-0.2,2-3.7,1.5-5.9c-0.2,0.4-0.4,0.8-2,0.8c0.3,0.7,2.6,2.4,1.1,2.8
			c-2-0.2-1.3-0.9-2-1.7c0.3,1.5-3,0.9-3.2,2.8l1.8,0C493.3,313.5,492.6,313.7,492.9,314.1z"/>
		<path class="st3" d="M500.3,309.6l0.6,0.1c-0.6-0.5-0.9-1-1.4-2.1c-1.1,0.1-1.5,0.4-1.7,0.7c0.9,0.4,1.8,0.8,2.7,1.2L500.3,309.6z
			"/>
		<path class="st3" d="M503.4,310.9c-0.9,0.8-2.4,0.7-2,2.2c1.6,0.6,1.5-0.4,2.7-0.4c-2.7-0.9,1-0.2-0.7-1.7
			c0.6,0.1,1.1,0.2,1.5,0.4c-0.4-0.3-0.8-0.7-1.2-1.1c0,0,0,0.1,0,0.1l0,0l0,0c0.1,0.2,0.1,0.3,0,0.1c0,0,0,0-0.1,0
			C503.6,310.7,503.5,310.8,503.4,310.9c-0.7-0.6,0-0.3,0.3-0.3c0,0,0.1-0.1,0.1-0.1c0,0,0,0,0,0l-2.9-0.6
			C501.4,310.2,502.1,310.4,503.4,310.9z"/>
		<path class="st3" d="M514,322c0-0.1,0-0.2,0-0.3C513.8,321.8,513.7,321.9,514,322z"/>
		<path class="st3" d="M513.3,320.9c0.3,0,0.6-0.4,1.2,0c0.4,0.6-0.2,0.5-0.4,0.8c0.5-0.1,1.6-0.1,0.7-1.1l-0.2,0
			c-0.8-0.9-1.5-2.8-1.3-2.8C513.1,318.9,513.1,319.7,513.3,320.9z"/>
		<path class="st3" d="M508.3,316l-2.4-0.5l0.7,1.4l0.2-0.6C507.9,317.1,508,316.3,508.3,316z"/>
		<polygon class="st3" points="497.6,307.7 498.4,306.7 496.4,307.8 		"/>
		<polygon class="st3" points="494.6,306.7 495.1,305.8 494.1,306.1 		"/>
		<path class="st3" d="M324.3,310l-0.6,0.4C324,310.3,324.2,310.2,324.3,310z"/>
		<path class="st3" d="M329.1,309l0-0.5C329,308.8,328.9,309,329.1,309z"/>
		<path class="st3" d="M420,290.7c-0.9-1.1-2-2.6-1.9-1.5l0.2,1.1C419,290.3,419.5,290.5,420,290.7z"/>
		<path class="st3" d="M368.3,297.5c0.1,0.1,0.2,0.2,0.3,0.3c0.2-0.4,0.4-0.8,0.6-1.1C368.9,296.9,368.6,297.2,368.3,297.5z"/>
		<path class="st3" d="M368,302.2c-0.5-0.2-0.9-0.4-1.4-0.6C366.9,301.8,367.4,302,368,302.2z"/>
		<path class="st3" d="M298.9,318l-0.4,1.3C299.7,319,299,318.6,298.9,318z"/>
		<path class="st3" d="M463.9,297.8c-0.8-0.6-1.4-1-2-1.1C462.8,297.6,463.4,298.7,463.9,297.8z"/>
		<path class="st3" d="M323.7,297.9c-0.4,0.3-0.5,0.6-0.4,0.8C323.6,298.4,323.8,298.2,323.7,297.9z"/>
		<path class="st3" d="M459.4,296.1c0.1,0.1,0.3,0.2,0.4,0.4c0.7,0,1.3,0,2.1,0.2C461.2,296.1,460.4,295.6,459.4,296.1z"/>
		<path class="st3" d="M213.6,361.3c-0.1,0-0.2,0-0.3,0C213.4,361.5,213.5,361.5,213.6,361.3z"/>
		<path class="st3" d="M184.8,372.2c0.1-0.3,0.5-0.6,0.8-0.9C185.3,371.4,185.1,371.6,184.8,372.2z"/>
		<path class="st3" d="M482.9,302.1C483.5,302.3,483,302,482.9,302.1L482.9,302.1z"/>
		<path class="st3" d="M484.6,307.3c-0.2,0.1-0.3,0.2-0.4,0.4C484.3,307.5,484.4,307.4,484.6,307.3z"/>
		<path class="st3" d="M451.6,301.7C451.6,301.7,451.6,301.7,451.6,301.7C451.7,301.9,451.7,301.9,451.6,301.7z"/>
		<path class="st3" d="M483.7,302.9c-0.2-0.2-0.4-0.4-0.7-0.6C483.1,302.5,483.3,302.6,483.7,302.9z"/>
		<path class="st3" d="M483.7,302.4c0.2,0.1,0.4,0.2,0.5,0.3C484.4,302.5,484.3,302.4,483.7,302.4z"/>
		<path class="st3" d="M482,301.9c0.4,0.1,0.7,0.3,1,0.4c-0.1-0.1-0.1-0.2-0.1-0.2C482.7,302.1,482.4,302,482,301.9z"/>
		<path class="st3" d="M255.7,331.1c-0.1,0-0.1,0-0.2,0C255.2,331.8,255.4,331.6,255.7,331.1z"/>
		<path class="st3" d="M402.5,301.6C402.6,301.5,402.6,301.5,402.5,301.6C402.6,301.5,402.5,301.5,402.5,301.6L402.5,301.6z"/>
		<path class="st3" d="M400.2,302.4c1-1.4,1.6-1.2,2.3-0.9l-0.7-3.3L400.2,302.4z"/>
		<path class="st3" d="M313,313.1l1.8,0.6c-1.4,2.1-2.9,1.9-1.1,2.9c-0.7-3.5,5.8-2,5.2-5.4l1.2,0.5c-0.3,0-0.3,0.2-0.6,0.3
			c2.4,1.2,0.9-2.8,3.6-2.9c1,0.1,1.7,0.4,1.2,1l1.8-1.3c0.6-0.1,0.6,0.6,0,0.6l3-1l0,0.1c0.3-0.6,1.1-1.7,1.6-2.1
			c0.9,0.4-0.3,0.4,0,0.8l1.5-1.1c0.9,0.8-0.4,1.9-1.6,2c2.3,3.2,1.2-1.1,5.1,0.3l-1.5,0.7c1.4,1.8,2.5,0.8,4.5,1.7
			c-0.5-0.6-4.2-2.4-2.5-3.6c0.6,0.2,1.3,0.2,2.2-0.7c0.2,1.2,1.1,0.8,2.4,0.5l0.2,1.7c1.2-0.7,1-1.5,1.6-2.4c1.5,0,2,1.2,2.5,2.2
			c2.4-0.1-1.9-1.8,0.8-2.5c2.1,0.4,3.3-0.5,5.6-1.8c1.5,0.4-0.1,1,0.4,1.4l1.1-1.5c0.3,0,0.3,0.4,0.2,0.6c1-0.7-0.1-1.7,1.4-2.3
			c0.2-1.9,3.7,2.3,5.5,0c0.5,0.4-0.1,1,0.1,1.7c2.6-1.6,2.3-1.2,4.4-3.3l2,0.9c-1.5-1.1,0.2-2.8,1.7-4.1c-0.6-0.6-1-1.1-1.4-1.3
			c0.8-0.4,1.7-0.7,2.5-1.1c0.3,0.3,0.1,0.8-0.3,1.6c0.2-0.1,0.3-0.3,0.4-0.4c1,0.6,0.6,1.5,0,2.5c-0.3-0.3-0.7-0.6-1-1
			c-0.6,1-1.1,2.2-0.9,3.2c0.2-0.2,0.5-0.4,0.8-0.5c-0.1,0.3-0.2,0.5-0.1,0.7c0.1,0.2,0.3-0.2,0.7-0.7l0.7,1.8l0.1-0.7l3.4,0.9
			c2.3-2,4.2-4.9,8-5.8c-0.9,1.4-0.1,2.2-0.1,3.8c-1.1-1.7-2.9,0.9-4.9,0.6c1,0.1,0.8,0.9,0.6,1.2l3.4-1.8c0,1.3,0.8,1,1.7,1.5
			c-0.8-2.6,2.6-1.8,4-2.6c0.1,0.9-0.2,1.8-2,1.6c2,1.9,2.4-3.1,4.4-1.5c-0.4,0-0.7-0.1-0.8,0.4c1-0.8,3.4-0.2,2.9,0.5l-0.4,0
			c0.7,0.1,1.6,0.1,2.5,0c0.9,0,1.9-0.1,2.9-0.2c1.9-0.3,3.4-0.9,3.7-2c0,0.3-0.4,2.7-0.6,3.1c1.7-2.5,3.5-4.9,5.3-7.4
			c-0.5,1.9,1.1,6.4-1.3,7.5c0.7,0.3,1.5,0.6,2.9,0c-0.4-0.3-1.1-2.8-0.4-2.9c1.7,2.2,1.2,1.2,3.2,3.1c-0.7-0.4,0.2-3.4,1.3-3.2
			c-0.2,0.4-0.1,2.9-0.5,3.2l2.9-2.8c-0.7,0.5-0.3,2.5,0.3,3.3c-0.2-0.6,2.3,0.2,3.1-0.1l-1.1-0.7c3,0.6,3.3-4,6.4-3.5
			c-0.4,0.6-1.2,3.6,0.3,4.1c0.8-1.4,3.8-6.9,6.7-7.8l0.4,0.9l2.2-0.8c-1.6,2.1-5.7,6.5-7.8,8.1c1.1,0.8,0.2,1,1.9,1.1
			c0.5,0.9-1,1.1-1.5,1.1l3.9,0.9c0-1.7,3.2-1.5,3.2-2.9c-1.5,0.4-3,0.9-4.5,1.4c0-1.7,3-4.7,5.8-4.1c0.6,0.8-0.9,3-0.9,3.6
			c0.4-0.5,2.8-0.8,3-0.3l-1.3,0.8c1.5,0.9,2.8-2,4.5,0c0.6,0.2,1.6,2.5,1.9,1.5c-0.8-2.1-0.1-8.2,0.8-9.6c0.2,0.2,3.2,2.3,3.8,3.5
			c0.8,1.7-2.2,3.4-1.5,4.9c0.1-0.5,0.8-0.9,1.1-1.1c0.6,0.5-0.5,1.4,1,1.5c0.5-1.7,3,0.7,0.9-1.4c1.5-0.2,1.5,0.6,3.2,0.9
			c-0.3-1.2,2.2-3.6,3.8-3.8c-0.2,0.4,0,1.1,0.2,1.4c3,0.6,4.4,1.9,7.1,2.5c0.2,0.5,1.4,1.3,0.6,1.9c0.5-0.2,1-0.7,1.8-0.6
			c1.3,1.9-1.9-0.2-1.1,1.9c0.3-1,2.5-0.9,3.8-1.3c0-1.6-2.7-0.9-4.1-0.6c0.5-2.1,3.1-3.9,6.3-4.2c2.4,0.1,0.6,1.6,1.1,1.4
			c4.2,1.5,4.7-2.7,7.8-0.2c1,1.7-0.7,2.7-0.7,3.7c-2,0-2.6-1.6-3.9-1.9l1.4,1.1c-0.7,0.3-2,0.3-2.6-0.3c0.4,0.8,2.2,1.3,4.3,1.9
			c1,0.3,2.1,0.6,3.1,1c1,0.4,1.9,0.9,2.7,1.4c0.7-0.3,1.8-0.4,1.5-1.1l-1.1-0.1c-0.6-1.4,2.4-0.9,1.3-1.8c1.6-0.3,3.6-1,5.3,0.3
			l-0.1,1.6c0.1-0.5-1-1.3-1.7-1c1-0.4,2.3,3,3.9,1.3l-1-1.5c1.7-0.3,3.9-1.2,5.5-0.1c-0.2-1.8-0.5,0-1.1-2.2c0.1,1.3-1,0.8-2,0.4
			c-1-0.4-2-0.7-1.5,0.7c-0.6-2.4-1.9-1.6-3-3.8c-0.1,0.5,0.3,1.1-1.1,0.4c-0.1,0.1-0.3,0.3-0.5,0.3c0,0-0.1,0-0.1-0.1
			c0,0,0,0.1,0.1,0.1c-0.1,0.1-0.1,0.1,0,0c0.3,0.3,0.5,0.7,0.5,1c-1.1,0.9-3.4,0.1-4.4,0.5c-0.8-0.5,0.5-0.5,0.2-1.1l-1.4,0.5
			c0.2-1.2-1.8-2.6,0.5-2.6c-0.6-0.2-1.2-0.4-1.9-0.6c-0.9-0.9-2.4-1.6-3.5-1.4c-0.8-0.5-2.6,0.6-1.6,0l-3.1-0.1l0-0.3
			c-0.7-0.2-1.5-0.3-2.3-0.4c-0.8,0-1.6,0-2.4-0.1c-1.6-0.1-3.2-0.5-4.7-1.9c-1.1,0.1-2.1,0.2-3.7-0.5l-0.1-1.1
			c-1.3,0.1-3.7-1.7-4.4-0.8c-0.9-2.9-6.1-1.7-8.3-2.6l-0.3,1.3c-1.6-0.3-3.1-0.1-5.1,0.1l0,1.2c-1.8,0.7-4.2-1.4-6.8-1.6
			c0.2-0.4,0.9-0.2,1.3,0.1c-1.4-1.5-3.2-1.2-4.8-0.8c-1.7,0.4-3.3,0.9-4.7-0.2c-0.8,0.4-1.3,0.2-1.7-0.2c0.1,0,0.1,0,0.2,0
			c-0.1,0-0.2,0-0.3,0c-0.3-0.2-0.6-0.5-0.9-0.7c0.3,0.3,0.5,0.6,0.8,0.7c-0.6,0-1.4,0-2.2,0.3l-0.3-1.3c-0.1,0-0.1,0-0.2,0
			c-0.8-0.5-0.7,0.6-0.3,1.5c-0.4,0.2-0.8,0.4-1.1,0.7c-0.5-2.1-2.2,0.6-2.9-1.6c-0.6,1-4.2,0.6-4.7,2.7c0-0.3-0.2-0.4,0.2-0.4
			c-0.9-0.3-1.8-0.6-2.6,0l-0.3-1.6c-0.7,0.7-1.4,1.4-2.1,2.1c-1.2-1-1.7-1.6-0.4-2.8c-3,1.8-2.4,0.7-4.9,2.5l0.1-1
			c-0.9,0-2.3,1.4-2.8,0.5c-2-2.1-9.7-0.2-14.8-1.9c1.1,3-2.4-1.3-2.5,1.1c-0.3-0.7-1.1-1.1-0.3-1.7c-2.5,0.9-4-0.9-5.6,1.2
			c-0.3-0.7,0.5-1.1,0.2-1.5c-0.2,0.2-0.8,0.7-1.1,0.3c-0.3-0.4,0.3-0.6,0.7-1c-2.7,0.3-2.8,2.5-2.8,4.6c-1.4-0.9-2.1-0.7-2.9,0.7
			c-0.5-0.6-1.3-1.3,0.3-1.7c-0.9,0-5.7-0.4-5.6,1.2c-0.3-0.4-1.3,0-1.5,0.2c-2.1,0.1-2.3,0-4.3,0.3l0.6,0.2
			c-0.6,2.1-1.6,0.6-3.2,1.1l0-0.2c-3.9-0.9-1.5,0.9-5.4-0.2l0.4,1.2c0,2.7-3.5-1.1-5.4,0.2l0.9,0.6c-0.5,0.5-1.5-0.3-2.4-1.2
			c-1-0.9-2-2-2.6-2c-0.3-0.2,0.3-0.4,0.7-0.7c-3.3-1-0.1,1.7-2.3,2.5c-0.6-0.8,0.2-2.3-1.4-2.2c-0.9-0.6-3.9,3.6-6.3,2.3
			c0.6,0.6,1.2,1.2,0.2,1.9c-1.6,0.5-4.9-1.6-5.9,0.8c-0.2-0.1-0.4-0.3-0.4-0.5c-1.1,0.8-3.8,1.8-4.3,3.1c-1-2-2.8-1.1-4.5-0.1
			c-1.6,1-3,2-3.5,0.1l-3.7,1.2l0-0.4c-2.5,0.4-3,1.5-3.6,2.7c-0.6-0.1-0.3-0.6-0.3-0.8c-3.7,0.2-4,0.6-6.3,3.3l-0.7-1.1
			c-0.3,0.5-1.7,0.4-3.4,0.5c-1.7,0.1-3.7,0.4-5.1,1.7c0-0.2,0-0.4,0.2-0.7c-3.2,2.8-10.2-0.1-10,4.8c-0.7,0.6-1.4,1.4-2,2
			c3.3-0.9,0.3,2.1,1.8,2.3c-1.1,0.8-3.7,0-2.3-0.9l0.3,0.1c-0.3-2.5-4.2,0.8-4.7-0.8c-6.2,2.5-12.6,4.2-18.3,6.7l1.5,1.4
			c-0.7,0.3-1.3,0.6-2,0.9c-0.7-0.1-1.3-1,0.1-1.6c-1.2-0.6-1.9,2-1.8,2.4c-3.1,0.7,0.1-2.5-0.8-2.1l-1.1,0.7l0.4,0.1
			c-0.6,1.2-0.3,1.9-2,2.7c-1.2,0.2-1.1-0.8-1.5-0.6c-0.1-0.1-0.2-0.1-0.7,0.3l-2.5,1.1l1.7,0.8c-0.7,1.2-2.3,1.1-0.4,2
			c-0.7-0.3-1.7-0.3-2.7,0c-1,0.3-2.1,0.9-3.2,1.6c-2.1,1.3-4.1,2.6-4.8,2.6c-0.9,1.8-2.4,2.6-4.2,3.7c0.6,0,1.8,1.2,0.2,2
			c-1.3-3.3-3.6,0.5-6.2-0.7c2,0.7-4.1,3.2-1,4c-1.4,0.6-0.8-1-2.2-1.1c-0.6,0.8-1.3,1.4-2.1,2c-0.8,0.6-1.7,1.1-2.6,1.6
			c-1.9,1-3.9,1.9-5.6,3.4c0.2,0.4,1.2,0.5,0.9,1.6c-1.1-0.1-2.2-0.3-3.3-0.4c-0.5,0.7,1,2.6-1.2,2.4c0.4,0.2,1,0.4,0.7,0.9
			c-2,0.9-3.8,2.2-5.5,3.6c-0.9,0.7-1.7,1.4-2.5,2.2c-0.8,0.8-1.6,1.6-2.3,2.4c-1.6,1.6-3.2,3.1-5,4.5c-0.9,0.7-1.8,1.3-2.9,1.8
			c-1,0.6-2,1.1-3.2,1.5c1.5-0.2,1,0.4,0.4,1.1c0.6-0.3,0.8,0.8,1.3,1.2l-3.8,1.5c0.8,1.7-2.7,3-1.7,4.3l0.6-1
			c0.4,2.4,4.7,1.4,6.3,3.3c-0.4-2.8,5.4-0.9,5.1-5.1c0.8-0.1,0.2,0.9,0.8,1.1c-0.1-0.6-0.1-1.1,0.2-1.6c0.3-0.4,0.8-0.8,1.5-1.2
			l0.1,0.3c3-3.2,5.1-3.7,9.2-6.5l-1.1-0.7c0.9-0.6,1.3-0.4,1.9-0.5c-0.3-2.2-2.3,1.8-2.9-0.4c2.7,1,5.8-4.8,8.3-3.2
			c1.3-1-1.3-0.8,0-1.8l0.8,0.3l-0.3-1c0.9-0.6,1.9-0.1,2.4,0.3c-0.2,0.1-0.4,0.6-0.6,0.8c1.6-0.2,2.9-2.6,3.4-2.7l-1.5,0.5
			c1.6-1.6,3.6-3,5.5-4.5c1.9-1.5,3.8-3.1,5.2-4.8l-0.6-0.3c2.1-2.7,2.6-0.9,5.3-3.3l0,0.2c0.3-0.9,0.9-1.7,1.8-2.2
			c-0.4,1.1,2.1,0.2,1.5,1.5c1.2-1.5,1.5-1.9,1.5-2.3c0.1-0.4-0.1-0.9,0.4-2.4l1,0.5c0.2-1.2,0.1-1.6,1.5-2.7
			c-0.9,1.5,1.7,0.7,0.9,2.5c4.3-0.1,3.8-4.7,6.8-2.9c0.2-3.2-3.6,0.4-3-0.6c-1.1-0.3,0.3-2.5,1.4-2.8c1.1-0.5,3.5,2,6.1,0.6
			c-0.3,0.1-0.2,0.3-0.5,0.4c1.3,0.1,1.5-1.8,3.3-1.5c0-1.8,1.6-0.8,0.9-2.7l-2.3,1.7c1.2-1.2,1.4-4.1,4.3-4.2
			c0,0.4-0.5,1.3-0.8,1.8c0.9,0.2,1.1-1,2.1-0.8c0.4,1-0.4,1.4-1.3,1.9c-0.9,0.5-2,1.1-2.4,2.2c1.1,0.4,2.2-2.8,2.4-0.4
			c-0.2-3.1,2.8-1,3.7-3.8l0.4,1.2c0.2-0.3,0.6-1.1,1.1-1.3l-0.3,1.9c0.9-1.9,3.4-0.3,4.5-1.6c-3,1.4-1.3-1-3-1.3
			c3.1-3.2,3.5,1.9,7.4-0.5c-0.5,0.4-2.4,0.3-1.8-0.7c0.9-0.1,2.2-0.1,2.9,0.3c2.7-1.4-0.9-1,0-2.2c1.5,1,1.1-1.1,2.2-2.1l0.5,1.2
			c3.5-0.6-0.1-2.8,3.1-3.1l-0.6,2.1l1.3-1l0.2,1.5c1.3-1.6,1.8-1.7,3.6-1.9c-0.7-0.7-0.6-2.2,0.9-2.8c1.3,0.3-0.1,1.3,1.9,0.4
			c-0.2,0.9-0.4,2-1.7,1.2c0.1,0.4-0.2,0.9-0.1,1.3c1.4,0.4,2.7-0.8,3.5-1.1c-0.3,0.1-0.7,0.1-0.9,0l2.4-2.7
			c0.6,0.3,0.4,0.8,0.1,1.2c0.6-0.3,0.8-1,1.6-1.5c0.1,1,0.5,2-0.6,2.9l2.5-2.1c0.3,0.4,1.8,0.6,1.6,1.1c1.8,0,3.3-3.1,5.6-3
			c0.1-0.2,0.2-0.5,0.6-0.8c2.1-0.4,4.2,0.2,6.1-1.8l1.8,1.4c1.8-0.9-2.5-1.7,0.5-3.2c2.1-1.2,1.2,1.3,2.1,1.6
			c0.8-1.2,2.3-3.5,4.7-2.6C314.2,312.9,313.6,312.8,313,313.1z M336.2,307.1c-0.4,0.3-1.2,1.3-1.6,0.6
			C334.8,306.3,335.3,306.9,336.2,307.1z M372,299.6c-0.3,0.4-0.9,0.3-1.5-0.2C371,299.3,371.5,299.4,372,299.6z M475.6,301
			C475.6,301,475.6,301,475.6,301C474.7,300.3,475,300.6,475.6,301z M477.6,302.1c0.3-0.1,0.3-0.3,0.3-0.5c-0.2,0.3-0.7,0.2-1.3-0.1
			C476.7,301.9,476.9,302.2,477.6,302.1z M245.7,326.8l0.5,0.1C245.6,327.7,245.7,327.3,245.7,326.8z"/>
		<path class="st3" d="M368,301.6c-0.1-0.2-0.2-0.4-0.3-0.7C367.6,301.2,367.6,301.4,368,301.6z"/>
		<path class="st3" d="M299,317.8C299,317.8,298.9,317.8,299,317.8c-0.1,0.1-0.1,0.2-0.1,0.2L299,317.8z"/>
		<path class="st3" d="M442.3,305c-0.4-0.3-0.6-0.5-0.7-0.8C441.5,304.6,441.6,304.8,442.3,305z"/>
		<path class="st3" d="M489.6,303.7l-1.5-0.1c0.7,0.2,0.8,0.5,1.1,0.8C489.3,304.1,489.2,303.6,489.6,303.7z"/>
		<path class="st3" d="M498.4,315.3c0.2-0.1,0.4,0.2,0.6,0.1l0.2-0.6C498.4,314.5,497.7,314.7,498.4,315.3z"/>
		<path class="st3" d="M489.5,308.1c-0.2,1,0.7,1,1.7,1.2c-0.1,0-0.1,0-0.2-0.1C491.8,307.9,490.6,308,489.5,308.1z"/>
		<path class="st3" d="M491.4,309.3c0.3,0.1,0.6,0.1,0.9,0.3C492.6,309.1,492,309.4,491.4,309.3z"/>
		<path class="st3" d="M480.5,302.3c0.4,0.4,0.7-1.2,0.8-0.7C482.3,300.5,477.8,302.1,480.5,302.3z"/>
		<polygon class="st3" points="489.1,311.6 489.2,310.3 488.3,311.1 		"/>
		<path class="st3" d="M482,308.3l1.4,0.8c0-0.2,0.3-0.3,0.5-0.3C483,308.5,482.1,307.9,482,308.3z"/>
		<path class="st3" d="M483.9,308.8c0.5,0.2,0.9,0.3,1.3,0.2C485,308.9,484.4,308.8,483.9,308.8z"/>
		<polygon class="st3" points="486.9,311.3 486.6,310.9 485.6,310.4 		"/>
		<path class="st3" d="M465.8,303.4l-1.8,0c-0.3,0.4,0.1,0.8,0.8,0.7C465.3,303.9,466,303.8,465.8,303.4z"/>
		<path class="st3" d="M469.9,308.2c-0.4-0.4-0.3-0.7-0.5-1.2l-0.5,1.5L469.9,308.2z"/>
		<path class="st3" d="M465.1,307.2c-0.3,0.4-2.7,0.7-0.6,1.1C464.8,307.9,466.5,308,465.1,307.2z"/>
		<polygon class="st3" points="440.4,300.3 440.8,300.3 441.1,297.7 		"/>
		<path class="st3" d="M417.4,304c1.9,0.8,0.6-1.6,2.3-0.6c0.5-0.6-1.4-0.8-0.9-1.3C417.6,302.7,417,302.3,417.4,304z"/>
		<path class="st3" d="M418.8,302.1c0.2-0.1,0.4-0.2,0.6-0.3C419.1,301.9,418.9,302,418.8,302.1z"/>
		<polygon class="st3" points="180.4,374.7 179,375.3 180.3,375.3 		"/>
		<path class="st3" d="M180,377.9l-1.5-0.9l0.6,1.6C179.3,378.4,179.6,377.8,180,377.9z"/>
		<path class="st3" d="M340.2,309.9l0-0.4c-0.3-0.4-0.6-0.4-1.2-0.3L340.2,309.9z"/>
		<polygon class="st3" points="323.1,312 323.4,311.9 322.5,310.6 		"/>
		<path class="st3" d="M309.6,317.4c0.6-0.1,1.2-0.6,1.7-0.7C310.2,317.3,309,315.6,309.6,317.4z"/>
	</g>
	<ellipse class="st4" cx="761.2" cy="684.7" rx="38.1" ry="3.4"/>
	<path class="st5" d="M758.8,683.6L595.3,520.2c-1.5-1.5-1.5-3.8,0-5.3l163.5-163.5c1.5-1.5,3.8-1.5,5.3,0l163.5,163.5
		c1.5,1.5,1.5,3.8,0,5.3L764.1,683.6C762.6,685.1,760.3,685.1,758.8,683.6z"/>
	<g>
		<path class="st6" d="M608.4,719H383.8c-18.7,0-33.8-15.1-33.8-33.8V116.7c0-18.7,15.1-33.8,33.8-33.8h224.6
			c18.7,0,33.8,15.1,33.8,33.8v568.5C642.1,703.9,627,719,608.4,719z"/>
		<path class="st7" d="M608.4,83c18.7,0,33.8,15.1,33.8,33.8v568.5c0,18.7-15.1,33.8-33.8,33.8H383.8c-18.7,0-33.8-15.1-33.8-33.8
			V116.7c0-18.7,15.1-33.8,33.8-33.8H608.4 M608.4,59.6H383.8c-31.5,0-57.2,25.6-57.2,57.2v568.5c0,31.5,25.6,57.2,57.2,57.2h224.6
			c31.5,0,57.2-25.6,57.2-57.2V116.7C665.5,85.2,639.9,59.6,608.4,59.6L608.4,59.6z"/>
	</g>
	<path class="st8" d="M163.7,315.6l-12.1-10.3c-1-0.9-1.2-2.5-0.3-3.5c55.5-63.5,157.9-96.9,250.7-82c1.4,0.2,2.3,1.5,2,2.9
		l-2.7,15.7c-0.2,1.3-1.5,2.2-2.8,2c-86.1-13.9-180.6,16.8-231.6,75C166.2,316.3,164.7,316.5,163.7,315.6z"/>
	<g>
		<rect x="373.3" y="353.7" class="st9" width="243" height="10.4"/>
		<path class="st9" d="M615.2,449.2H374.4c-0.6,0-1.1-0.5-1.1-1.1v-8.2c0-0.6,0.5-1.1,1.1-1.1h240.8c0.6,0,1.1,0.5,1.1,1.1v8.2
			C616.3,448.7,615.8,449.2,615.2,449.2z"/>
		<path class="st9" d="M615.2,534.3H374.4c-0.6,0-1.1-0.5-1.1-1.1V525c0-0.6,0.5-1.1,1.1-1.1h240.8c0.6,0,1.1,0.5,1.1,1.1v8.2
			C616.3,533.8,615.8,534.3,615.2,534.3z"/>
		<path class="st9" d="M615.2,619.4H374.4c-0.6,0-1.1-0.5-1.1-1.1v-8.2c0-0.6,0.5-1.1,1.1-1.1h240.8c0.6,0,1.1,0.5,1.1,1.1v8.2
			C616.3,618.9,615.8,619.4,615.2,619.4z"/>
	</g>
	<g>
		<g>
			<circle class="st5" cx="497.5" cy="235.3" r="68.9"/>
			<path class="st6" d="M487,271.9l-27.6-28.1c-1-1-0.9-2.5,0-3.5l8.5-8.4c1-1,2.5-0.9,3.5,0l17.1,17.4l43.9-46.7
				c0.9-1,2.5-1,3.5-0.1l8.7,8.2c1,0.9,1,2.5,0.1,3.5l-54.2,57.7C489.6,272.9,487.9,272.9,487,271.9z"/>
		</g>
		<g class="st10">
			<path class="st11" d="M529.4,291.3c0.1,0-0.1-0.3-0.1-0.4C529.2,291.1,529.5,291.3,529.4,291.3z"/>
			<polygon class="st11" points="528.2,293 528.1,292.8 528,293.3 			"/>
			<path class="st11" d="M526.5,293.9c0.4,0.5,0.6-0.4,0.9-0.4l0.1,0.1l-0.1-0.5C527.2,293.4,526.9,293.9,526.5,293.9z"/>
			<path class="st11" d="M525.1,293.2c0.2,0.2-0.1,0.3,0.2,0c0,0,0,0-0.1,0C525.2,293.1,525.1,293.2,525.1,293.2z"/>
			<path class="st11" d="M525.2,293.1C525.4,293,525,293,525.2,293.1L525.2,293.1z"/>
			<path class="st11" d="M524.5,293.6l0.1-0.3c-0.1-0.1-0.3,0-0.3-0.2C524.2,293.4,524.3,293.5,524.5,293.6z"/>
			<path class="st11" d="M524.5,294.1l0.1-0.1C524.5,293.9,524.5,293.9,524.5,294.1z"/>
			<path class="st11" d="M524.7,293.7l-0.2,0.3c0.1,0.1,0.2,0.2,0.1-0.1C524.7,294,524.7,293.9,524.7,293.7z"/>
			<path class="st11" d="M524.9,293.7c0.2,0.1,0.4,0.1,0.3,0.4C525.6,293.8,525.3,293.4,524.9,293.7z"/>
			<path class="st11" d="M526.7,294.5l0.3,0.1l0.1-0.3C527,294.4,526.6,294.3,526.7,294.5z"/>
			<path class="st11" d="M522.9,294c0,0.1,0.2,0.3,0.3,0.4l0.1-0.2C523.2,294.2,523,294.2,522.9,294z"/>
			<path class="st11" d="M523.2,294.4l-0.2,0.3C523.3,294.7,523.3,294.5,523.2,294.4z"/>
			<polygon class="st11" points="524.7,294.7 524.9,294.1 524.6,294.8 			"/>
			<polygon class="st11" points="522,294.4 522,294 521.9,294.6 			"/>
			<path class="st11" d="M521.3,294.7c0-0.3-0.3-0.3-0.2-0.5c-0.2,0.1-0.2,0.4-0.3,0.6C520.9,294.6,521,294.6,521.3,294.7z"/>
			<path class="st11" d="M520.6,295.1c0.1-0.1,0.1-0.2,0.1-0.4C520.7,294.9,520.7,295,520.6,295.1z"/>
			<path class="st11" d="M522.6,294.9c-0.1-0.1-0.2-0.2-0.3-0.3l0.2,0.3C522.5,294.9,522.6,294.9,522.6,294.9z"/>
			<path class="st11" d="M522.5,294.9L522.5,294.9c-0.1,0-0.2,0-0.2,0.1C522.3,295,522.4,294.9,522.5,294.9z"/>
			<path class="st11" d="M522.6,294.9L522.6,294.9C522.6,294.9,522.6,294.9,522.6,294.9z"/>
			<path class="st11" d="M523.9,294.8c-0.1,0.3-0.3,0.6,0.1,0.7C524,295.2,523.8,295.1,523.9,294.8z"/>
			<path class="st11" d="M522.9,295.2c0.1,0,0.2,0,0.3,0c0-0.1-0.1-0.2-0.1-0.3C523.1,295,523,295.1,522.9,295.2z"/>
			<polygon class="st11" points="522.8,295.4 522.9,295.2 522.8,295.2 			"/>
			<path class="st11" d="M521.2,295.3c-0.1,0.2-0.2,0.3-0.3,0.3c0.2,0,0.4,0,0.5-0.1C521.4,295.4,521.4,295.2,521.2,295.3z"/>
			<path class="st11" d="M521.9,295.1L521.9,295.1C521.9,295.2,521.9,295.2,521.9,295.1z"/>
			<polygon class="st11" points="519.4,296.1 519.5,296.2 519.4,296.1 			"/>
			<path class="st11" d="M521.5,295.6c0.1,0,0.2-0.1,0.2-0.2C521.6,295.4,521.5,295.5,521.5,295.6
				C521.4,295.6,521.4,295.6,521.5,295.6z"/>
			<path class="st11" d="M520.3,295.4c0.1,0.1,0.2,0.1,0.3,0.1C520.5,295.5,520.3,295.3,520.3,295.4z"/>
			<path class="st11" d="M521.8,295.1L521.8,295.1C521.7,295,521.7,295,521.8,295.1z"/>
			<path class="st11" d="M521.8,295.1c0,0.1-0.1,0.2-0.1,0.3C521.8,295.3,521.8,295.2,521.8,295.1
				C521.8,295.1,521.8,295.1,521.8,295.1z"/>
			<path class="st11" d="M519.7,298.5c-0.1-0.3,0.2-0.7,0.6-0.5c0.2-0.3-0.3-1.3-0.8-1.8c0,0.1,0.1,0.3-0.1,0.6
				c0.2,0.1,0.8,0.2,0.6,0.6c-0.3,0.3-0.4,0-0.6-0.1c0.3,0.3-0.3,0.7,0,1.3l0.3-0.3C519.6,298.2,519.6,298.4,519.7,298.5z"/>
			<path class="st11" d="M520,296l0.1-0.1c-0.2,0-0.3-0.1-0.5-0.3c-0.1,0.2-0.1,0.4-0.1,0.5L520,296L520,296z"/>
			<path class="st11" d="M520.6,295.8c0,0.4-0.2,0.6,0.1,0.9c0.3-0.1,0.1-0.4,0.3-0.6C520.5,296.4,521.1,295.8,520.6,295.8
				c0.1-0.1,0.2-0.1,0.3-0.2c-0.1,0-0.2,0-0.3,0l0,0l0,0l0,0c0,0,0.1,0.1,0,0l0,0C520.6,295.7,520.6,295.7,520.6,295.8
				c-0.2,0-0.1-0.1,0-0.1l0-0.1l0,0l-0.5,0.4C520.2,295.9,520.4,295.9,520.6,295.8z"/>
			<path class="st11" d="M524.1,296.4C524,296.3,524,296.3,524.1,296.4C524,296.4,524,296.4,524.1,296.4z"/>
			<path class="st11" d="M523.7,296.3c0-0.1,0-0.2,0.1-0.2c0.2,0,0.1,0.2,0.1,0.3c0-0.1,0.2-0.4-0.1-0.4l0,0.1
				c-0.3,0-0.7-0.3-0.7-0.4C523.3,295.8,523.5,296,523.7,296.3z"/>
			<path class="st11" d="M522.2,296.1l-0.4,0.3l0.3,0.2l-0.1-0.2C522.4,296.5,522.2,296.3,522.2,296.1z"/>
			<polygon class="st11" points="519.3,296 519.2,295.6 519.1,296.2 			"/>
			<polygon class="st11" points="518.7,296.2 518.6,295.9 518.5,296.1 			"/>
			<path class="st11" d="M482.4,299.7l-0.2,0C482.3,299.7,482.4,299.7,482.4,299.7z"/>
			<path class="st11" d="M483.5,300l0.1-0.2C483.5,299.9,483.4,300,483.5,300z"/>
			<path class="st11" d="M503.5,298.6c-0.2-0.3-0.4-0.8-0.4-0.4l0.1,0.4C503.3,298.5,503.4,298.5,503.5,298.6z"/>
			<path class="st11" d="M492.6,300c0,0,0,0.1,0,0.1c0.1-0.1,0.1-0.2,0.2-0.3C492.8,299.9,492.7,299.9,492.6,300z"/>
			<path class="st11" d="M492.2,301.5l-0.2-0.3C492,301.3,492.1,301.4,492.2,301.5z"/>
			<path class="st11" d="M476.6,298.2l-0.3,0.3C476.6,298.6,476.5,298.3,476.6,298.2z"/>
			<path class="st11" d="M512.5,297.8c-0.2-0.1-0.4-0.1-0.5-0.1C512.3,297.9,512.5,298.2,512.5,297.8z"/>
			<path class="st11" d="M483.9,296c-0.1,0-0.2,0.1-0.2,0.2C483.9,296.2,483.9,296.1,483.9,296z"/>
			<path class="st11" d="M511.5,297.8c0,0,0.1,0,0.1,0.1c0.1-0.1,0.2-0.2,0.4-0.2C511.9,297.6,511.7,297.5,511.5,297.8z"/>
			<path class="st11" d="M457.3,288.6C457.3,288.6,457.3,288.6,457.3,288.6C457.2,288.6,457.2,288.6,457.3,288.6z"/>
			<path class="st11" d="M453.9,282.2c0.1,0,0.1,0.1,0.2,0.1C454.1,282.3,454,282.3,453.9,282.2z"/>
			<path class="st11" d="M516.3,296.7C516.4,296.7,516.3,296.7,516.3,296.7L516.3,296.7z"/>
			<path class="st11" d="M517.3,298c0,0,0,0.1,0,0.2C517.3,298.1,517.3,298,517.3,298z"/>
			<path class="st11" d="M510.5,300.3L510.5,300.3C510.6,300.3,510.6,300.3,510.5,300.3z"/>
			<path class="st11" d="M516.5,296.8c-0.1,0-0.1-0.1-0.2-0.1C516.3,296.8,516.4,296.8,516.5,296.8z"/>
			<path class="st11" d="M516.4,296.7c0,0,0.1,0,0.1,0C516.5,296.6,516.5,296.6,516.4,296.7z"/>
			<path class="st11" d="M516.1,296.8c0.1,0,0.1,0,0.2,0c0,0,0,0,0,0C516.2,296.7,516.2,296.8,516.1,296.8z"/>
			<path class="st11" d="M467.9,293.1C467.9,293.1,467.9,293.1,467.9,293.1C467.7,293.1,467.8,293.1,467.9,293.1z"/>
			<path class="st11" d="M499.9,302.4C499.9,302.4,499.9,302.4,499.9,302.4L499.9,302.4L499.9,302.4z"/>
			<path class="st11" d="M499.3,302.6c0.2-0.4,0.4-0.4,0.5-0.3l-0.1-1.1L499.3,302.6z"/>
			<path class="st11" d="M479.9,299l0.2,0.4c-0.6,0.4-0.8,0.1-0.6,0.7c0.4-1.1,1.4,0.3,1.8-0.8l0.2,0.3c-0.1,0-0.1,0-0.2,0
				c0.3,0.7,0.6-0.7,1.1-0.4c0.2,0.1,0.3,0.3,0.1,0.4l0.5-0.1c0.1,0.1,0,0.2-0.1,0.2l0.7,0.1l0,0c0.1-0.1,0.4-0.4,0.6-0.4
				c0.1,0.2-0.1,0.1-0.1,0.2l0.4-0.2c0.1,0.3-0.3,0.5-0.6,0.4c0,1.2,0.4-0.2,1,0.7l-0.4,0.1c0.1,0.7,0.4,0.5,0.7,1
				c0-0.2-0.6-1.2-0.1-1.4c0.1,0.1,0.2,0.2,0.5,0c-0.1,0.4,0.1,0.4,0.4,0.4l-0.1,0.5c0.3-0.1,0.4-0.4,0.6-0.6
				c0.3,0.1,0.3,0.6,0.3,0.9c0.5,0.2-0.2-0.7,0.4-0.7c0.4,0.3,0.7,0.1,1.3-0.1c0.3,0.3-0.1,0.3,0,0.5l0.4-0.4c0.1,0,0,0.2,0,0.2
				c0.3-0.1,0.1-0.5,0.5-0.6c0.2-0.6,0.6,1,1.1,0.4c0.1,0.2-0.1,0.3-0.1,0.5c0.7-0.3,0.6-0.2,1.2-0.7l0.4,0.4
				c-0.2-0.5,0.2-0.9,0.6-1.2c-0.1-0.2-0.1-0.4-0.2-0.5c0.2-0.1,0.4-0.1,0.6-0.2c0.1,0.1,0,0.3-0.2,0.5c0,0,0.1-0.1,0.1-0.1
				c0.2,0.2,0,0.5-0.2,0.8c0-0.1-0.1-0.2-0.1-0.4c-0.2,0.3-0.4,0.6-0.4,1c0-0.1,0.1-0.1,0.2-0.1c-0.1,0.1-0.1,0.2-0.1,0.2
				c0,0.1,0.1-0.1,0.2-0.2l0,0.6l0.1-0.2l0.7,0.5c0.6-0.5,1.2-1.4,2-1.5c-0.3,0.4-0.1,0.7-0.2,1.2c-0.2-0.6-0.7,0.1-1.1,0
				c0.2,0.1,0.1,0.3,0.1,0.4l0.8-0.4c-0.1,0.4,0.1,0.3,0.3,0.5c-0.1-0.9,0.6-0.5,1-0.7c0,0.3-0.1,0.6-0.5,0.5c0.4,0.7,0.6-0.9,1-0.4
				c-0.1,0-0.1-0.1-0.2,0.1c0.2-0.2,0.8,0,0.6,0.3l-0.1,0c0.6,0.2,1.9,0.1,2-0.6c0,0.1-0.1,0.9-0.2,1c0.4-0.8,0.8-1.6,1.2-2.4
				c-0.1,0.6,0.2,2.1-0.3,2.4c0.1,0.1,0.3,0.2,0.7,0c-0.1-0.1-0.2-0.9-0.1-1c0.4,0.7,0.3,0.4,0.7,1c-0.2-0.1,0-1.1,0.3-1.1
				c0,0.1,0,1-0.1,1.1l0.6-1c-0.2,0.2,0,0.8,0.1,1.1c-0.1-0.2,0.5,0,0.7-0.1l-0.3-0.2c0.7,0.2,0.7-1.3,1.3-1.3
				c-0.1,0.2-0.2,1.2,0.2,1.3c0.2-0.5,0.6-2.4,1.2-2.8l0.1,0.3l0.4-0.3c-0.2,0.7-1,2.3-1.4,2.9c0.3,0.2,0.1,0.3,0.5,0.3
				c0.1,0.3-0.2,0.4-0.3,0.4l0.9,0.1c-0.1-0.6,0.7-0.6,0.6-1.1l-0.9,0.6c-0.1-0.6,0.5-1.6,1.1-1.6c0.2,0.2-0.1,1,0,1.2
				c0.1-0.2,0.6-0.4,0.6-0.3l-0.2,0.3c0.4,0.2,0.5-0.8,1-0.3c0.1,0,0.5,0.7,0.5,0.4c-0.3-0.6-0.5-2.6-0.4-3.1c0.1,0,0.8,0.6,1,0.9
				c0.3,0.5-0.2,1.3,0,1.7c0-0.2,0.1-0.4,0.2-0.4c0.2,0.1,0,0.5,0.3,0.4c0-0.6,0.7,0,0.1-0.5c0.3-0.2,0.4,0.1,0.7,0
				c-0.2-0.4,0.2-1.3,0.5-1.5c0,0.1,0.1,0.3,0.1,0.4c0.7,0,1,0.2,1.6,0.1c0.1,0.1,0.4,0.2,0.3,0.5c0.1-0.1,0.1-0.3,0.3-0.4
				c0.4,0.4-0.4,0.1,0,0.7c0-0.3,0.4-0.5,0.6-0.8c-0.2-0.5-0.6,0-0.9,0.3c-0.1-0.7,0.2-1.5,0.8-2c0.5-0.3,0.3,0.4,0.4,0.3
				c0.9-0.1,0.5-1.4,1.4-1.1c0.4,0.4,0.2,0.9,0.4,1.2c-0.4,0.3-0.7-0.1-0.9-0.1l0.4,0.1c-0.1,0.2-0.3,0.3-0.5,0.3
				c0.3,0.3,1.6-0.2,2.4-0.1c0.1-0.2,0.3-0.4,0.1-0.5l-0.2,0.1c-0.3-0.3,0.3-0.6,0-0.7c0.2-0.3,0.4-0.8,0.9-0.7l0.2,0.5
				c-0.1-0.1-0.4-0.2-0.4,0c0.1-0.3,0.8,0.5,0.8-0.2l-0.4-0.3c0.2-0.3,0.4-0.9,0.8-0.9c-0.3-0.4-0.1,0.1-0.5-0.4
				c0.4,0.7-0.9,0.2-0.3,0.9c-0.5-0.6-0.5-0.2-1-0.6c0.1,0.2,0.2,0.3-0.1,0.3c0,0.1,0,0.1,0,0.2c0,0,0,0,0,0l0,0c0,0,0,0,0,0
				c0.1,0.1,0.2,0.1,0.2,0.2c0,0.4-0.5,0.5-0.6,0.8c-0.2,0,0-0.2-0.1-0.4l-0.2,0.4c-0.1-0.4-0.6-0.5-0.3-0.8l-0.4,0.1
				c-0.3-0.2-0.6-0.2-0.8,0c-0.2,0-0.4,0.5-0.3,0.2l-0.6,0.4l0-0.1c-0.6,0.1-1.1,0.8-1.9,0.3c-0.2,0.1-0.4,0.3-0.7,0.2l-0.1-0.3
				c-0.2,0.1-0.8-0.2-0.9,0.1c-0.4-0.9-1.3,0-1.8-0.1l0,0.4c-0.3,0-0.6,0.1-1,0.3l0.1,0.4c-0.3,0.3-0.9-0.2-1.4-0.1
				c0-0.1,0.2-0.1,0.3,0c-0.7-0.8-1.3,0.7-2,0.1c-0.1,0.1-0.3,0.1-0.4,0c0,0,0,0,0,0c0,0,0,0-0.1,0c-0.1-0.1-0.1-0.1-0.2-0.2
				c0.1,0.1,0.1,0.2,0.2,0.2c-0.1,0-0.3,0.1-0.5,0.2l-0.1-0.4c0,0,0,0,0,0c-0.2-0.2-0.1,0.2,0,0.5c-0.1,0.1-0.2,0.1-0.2,0.2
				c-0.1-0.7-0.4,0.2-0.6-0.5c-0.1,0.3-0.8,0.2-1,1c0-0.1-0.1-0.1,0-0.1c-0.2-0.1-0.4-0.2-0.6,0l-0.1-0.5l-0.4,0.7
				c-0.2-0.3-0.3-0.5-0.1-0.9c-0.6,0.6-0.5,0.2-1,0.8l0-0.3c-0.2,0-0.5,0.4-0.6,0.2c-0.4-0.6-2-0.3-3-1c0.1,1-0.4-0.5-0.6,0.3
				c0-0.2-0.2-0.4,0-0.6c-0.6,0.2-0.7-0.5-1.2,0.1c0-0.2,0.2-0.3,0.1-0.5c0,0-0.2,0.2-0.2,0c0-0.1,0.1-0.2,0.2-0.3
				c-0.5,0-0.7,0.7-0.8,1.3c-0.2-0.4-0.4-0.3-0.6,0.1c-0.1-0.2-0.2-0.5,0.2-0.5c-0.2-0.1-1.1-0.5-1.2,0c0-0.1-0.3-0.1-0.3,0
				c-0.4-0.1-0.4-0.2-0.9-0.2l0.1,0.1c-0.3,0.6-0.4,0.1-0.7,0.1l0-0.1c-0.7-0.6-0.4,0.1-1-0.5l0,0.4c-0.3,0.8-0.6-0.6-1.1-0.4
				l0.1,0.3c-0.3,0.2-0.4-1.3-0.6-1.5c0-0.1,0.1-0.1,0.2-0.1c-0.5-0.7-0.2,0.5-0.7,0.5c0-0.3,0.3-0.7,0-0.8c-0.1-0.3-1.1,0.7-1.4,0
				c0,0.2,0.1,0.5-0.2,0.6c-0.4,0-0.7-1.1-1.1-0.5c0-0.1,0-0.1,0-0.2c-0.3,0.1-0.9,0.1-1.2,0.4c0.2-1.4-1.8,0.2-1.4-1.1l-0.8-0.2
				l0.1-0.1c-0.5-0.2-0.7,0-1,0.2c-0.1-0.1,0-0.2,0.1-0.3c-0.6-0.5-0.7-0.5-1.5-0.1l0.1-0.4c-0.3,0.2-0.8-1-1.6-0.8
				c0,0,0.1-0.1,0.1-0.1c-1,0.2-1.4-1.8-2.3-0.5l-0.7,0.1c0.6,0.4-0.4,0.6-0.2,0.9c-0.3,0-0.5-0.7-0.1-0.6l0,0.1
				c0.4-0.7-0.7-0.6-0.5-1.1c-1.3-0.5-2.4-1.5-3.5-2.1l-0.1,0.6l-0.4-0.2c0-0.2,0.1-0.5,0.3-0.3c0-0.4-0.6,0-0.7,0.2
				c-0.5-0.5,0.5-0.5,0.4-0.6l-0.3-0.1l0,0.1c-0.3,0.1-0.4,0.4-0.8,0.2c-0.2-0.2,0.1-0.4,0-0.5c0,0,0-0.1-0.1-0.1l-0.5-0.3l0,0.5
				c-0.3,0.1-0.5-0.3-0.5,0.4c0-0.9-1.8-1.2-1.9-1.6c-0.5,0.2-0.8,0-1.2-0.3c0,0.1-0.2,0.7-0.5,0.4c0.7-0.9-0.4-0.8-0.3-1.6
				c0,0.6-1-0.4-1,0.5c-0.2-0.2,0.2-0.4,0.1-0.7c-0.9,0-1.3-1.1-2.2-1.4c-0.1,0.1-0.1,0.4-0.3,0.5l-0.1-0.9c-0.2,0-0.6,0.7-0.6,0.1
				c0,0.1-0.1,0.3-0.2,0.3c-1.2-1.5-3.5-1.4-4.4-3.5c0.1,0.4-0.1,0.3-0.3,0.2c0.1,0.1-0.2,0.3-0.3,0.5l-0.4-0.9
				c-0.4,0.4-0.7-0.4-1.1,0l0.3,0c-0.6,0.4-0.4,1.4-0.8,2.1c0.7-0.4,0.3,1.4,1.3,0.9c0,0.2-0.2,0.2-0.3,0.4c0.3-0.2,0.5-0.2,0.7,0.1
				l-0.1,0.1c0.9,0.4,1,0.9,1.9,1.7l0.1-0.4c0.2,0.2,0.2,0.3,0.2,0.4c0.5-0.4-0.5-0.4,0-0.8c-0.1,0.9,1.4,0.8,1.1,1.8
				c0.3,0.2,0.1-0.5,0.5-0.3l0,0.3l0.2-0.2c0.2,0.2,0.1,0.5,0,0.7c0-0.1-0.2,0-0.2,0c0.1,0.4,0.8,0.3,0.8,0.5l-0.2-0.3
				c1,0.3,1.9,1.2,2.9,1.2l0-0.2c0.8,0,0.4,0.5,1.2,0.7l0,0c0.2-0.1,0.5-0.1,0.6,0c-0.3,0.1,0.1,0.6-0.2,0.7c0.9,0,0.5-0.1,1.3-0.5
				l0,0.3c0.3-0.2,0.4-0.3,0.8-0.2c-0.4,0.1,0,0.5-0.5,0.7c0.4,1,1.4-0.1,1.3,1c0.7-0.6-0.4-0.8-0.2-0.8c0-0.3,0.6-0.4,0.8-0.3
				c0.2,0.1-0.1,1.2,0.5,1.5c-0.1,0-0.1,0-0.1,0c0.1,0.3,0.6-0.1,0.7,0.4c0.4-0.4,0.4,0.2,0.7-0.4l-0.6-0.1c0.4,0,1-0.6,1.4,0
				c-0.1,0.1-0.3,0.2-0.5,0.2c0.1,0.3,0.3,0,0.4,0.3c-0.3,0.6-0.7-0.2-1.3,0.1c0,0.3,0.9-0.1,0.4,0.4c0.6-0.7,0.6,0.4,1.3-0.1
				l-0.2,0.4c0.1,0,0.3-0.1,0.4-0.1l-0.4,0.4c0.5-0.3,0.5,0.7,0.9,0.6c-0.7-0.3,0-0.5-0.1-0.9c1.1-0.1,0,1.2,1.1,1.4
				c-0.2,0-0.4-0.4-0.1-0.5c0.1,0.2,0.3,0.4,0.3,0.6c0.7,0.2,0.1-0.4,0.4-0.5c0,0.5,0.4,0,0.7-0.1l-0.2,0.4c0.6,0.5,0.5-0.7,1-0.1
				l-0.5,0.4l0.4,0l-0.3,0.4c0.5-0.2,0.6,0,0.9,0.2c0-0.3,0.3-0.7,0.7-0.6c0.1,0.3-0.3,0.3,0.2,0.4c-0.2,0.2-0.4,0.4-0.5,0
				c-0.1,0.1-0.2,0.2-0.3,0.3c0.1,0.4,0.6,0.3,0.7,0.4c-0.1,0-0.1-0.1-0.1-0.2l0.9-0.3c0,0.2-0.1,0.3-0.2,0.3c0.2,0,0.3-0.1,0.5-0.1
				c-0.2,0.3-0.3,0.6-0.6,0.7l0.8-0.1c0,0.2,0.2,0.5,0.1,0.6c0.3,0.3,1.1-0.3,1.5,0.1c0-0.1,0.1-0.1,0.2-0.1
				c0.4,0.2,0.7,0.8,1.3,0.5l0.1,0.7c0.5,0-0.2-0.9,0.6-0.8c0.5,0,0,0.5,0.1,0.8c0.3-0.2,1-0.7,1.2-0.1
				C480.1,299.1,480,299,479.9,299z M485.1,300.3c-0.1,0.1-0.4,0.3-0.4,0C484.9,299.8,485,300.1,485.1,300.3z M493.2,300.9
				c-0.1,0.1-0.2,0-0.3-0.1C493,300.8,493.1,300.8,493.2,300.9z M514.9,297.4C514.9,297.4,514.9,297.4,514.9,297.4
				C514.7,297.3,514.8,297.4,514.9,297.4z M515.4,297.5c0-0.1,0-0.1,0-0.2c0,0.1-0.1,0.1-0.2,0.1
				C515.2,297.5,515.3,297.6,515.4,297.5z M467.8,289.9l0,0.1C467.6,290.1,467.7,290,467.8,289.9z"/>
			<path class="st11" d="M492.2,301.3c0-0.1,0-0.2,0-0.2C492.2,301.2,492.2,301.2,492.2,301.3z"/>
			<path class="st11" d="M476.7,298.1C476.7,298.1,476.7,298.1,476.7,298.1C476.6,298.1,476.6,298.2,476.7,298.1L476.7,298.1z"/>
			<path class="st11" d="M508.8,302.1c-0.1,0-0.2-0.1-0.2-0.2C508.6,302,508.7,302.1,508.8,302.1z"/>
			<path class="st11" d="M517.5,296.2l-0.2,0.2c0.1-0.1,0.2,0,0.3,0.1C517.5,296.3,517.4,296.2,517.5,296.2z"/>
			<path class="st11" d="M520.7,297.8c0-0.1,0.1,0,0.1-0.1l-0.1-0.2C520.6,297.6,520.5,297.8,520.7,297.8z"/>
			<path class="st11" d="M518.2,297.4c0.1,0.3,0.3,0.2,0.4,0c0,0,0,0,0,0C518.5,297,518.3,297.2,518.2,297.4z"/>
			<path class="st11" d="M518.7,297.4c0.1,0,0.1-0.1,0.2-0.1C518.8,297.2,518.8,297.4,518.7,297.4z"/>
			<path class="st11" d="M515.9,297.1c0.1,0.1,0-0.4,0-0.3C515.9,296.3,515.5,297.5,515.9,297.1z"/>
			<polygon class="st11" points="518.7,298.5 518.5,298.1 518.5,298.5 			"/>
			<path class="st11" d="M517,298.6l0.4,0c0-0.1,0-0.1,0-0.2C517.2,298.5,516.9,298.5,517,298.6z"/>
			<path class="st11" d="M517.4,298.5c0.1,0,0.2-0.1,0.2-0.1C517.6,298.4,517.5,298.4,517.4,298.5z"/>
			<polygon class="st11" points="518.3,298.7 518.1,298.7 517.9,298.7 			"/>
			<path class="st11" d="M513.5,299.3l-0.3,0.2c0,0.2,0.1,0.2,0.2,0.1C513.4,299.5,513.5,299.5,513.5,299.3z"/>
			<path class="st11" d="M514.8,300.3c-0.1-0.1-0.1-0.2-0.2-0.3l0.1,0.5L514.8,300.3z"/>
			<path class="st11" d="M513.7,300.6c0,0.2-0.5,0.5,0,0.4C513.8,300.8,514.1,300.7,513.7,300.6z"/>
			<polygon class="st11" points="508.1,300.7 508.2,300.7 508.1,299.8 			"/>
			<path class="st11" d="M503.2,303c0.5,0.2,0.1-0.5,0.5-0.3c0.1-0.2-0.3-0.2-0.2-0.4C503.3,302.6,503.1,302.5,503.2,303z"/>
			<path class="st11" d="M503.5,302.4c0,0,0.1-0.1,0.1-0.1C503.6,302.3,503.5,302.3,503.5,302.4z"/>
			<polygon class="st11" points="453.2,281.3 453.1,281 453.1,281.4 			"/>
			<path class="st11" d="M452.4,281.6l0.2-0.5l-0.4,0.3C452.3,281.4,452.5,281.5,452.4,281.6z"/>
			<path class="st11" d="M485.6,301.5l0.1-0.1c0-0.2-0.1-0.2-0.2-0.2L485.6,301.5z"/>
			<polygon class="st11" points="481.9,300.1 482,300.1 482,299.6 			"/>
			<path class="st11" d="M478.6,299.7c0.1,0.1,0.3,0,0.4,0.1C478.7,299.8,478.8,299.1,478.6,299.7z"/>
		</g>
	</g>
	<path class="st8" d="M618.3,253.9c-8.7,0-17.6-0.4-26.7-1.1c-1.4-0.1-2.4-1.3-2.3-2.7l1.4-15.8c0.1-1.3,1.3-2.3,2.6-2.2
		c83.8,6.7,150-19.9,186.9-74.9c0.7-1.1,2.2-1.4,3.3-0.7l13.3,8.7c1.2,0.7,1.5,2.3,0.7,3.5C760.4,224.2,697.5,253.9,618.3,253.9z"/>
	<g>
		<g>
			<path class="st12" d="M319.1,582.3"/>
		</g>
	</g>
	<g>
		<g>
			<path class="st12" d="M319.1,469.6"/>
		</g>
	</g>
	<path class="st8" d="M696.3,505.1c-2.3,0-4.3-1.8-4.3-4.2l0,0c0-2.3,1.8-4.3,4.1-4.3l0,0c2.3,0,4.3,1.8,4.3,4.2l0,0
		C700.5,503.1,698.7,505,696.3,505.1L696.3,505.1C694,505.1,696.3,505.1,696.3,505.1z M646,503.6c-2.3-0.2-4.1-2.2-3.9-4.5l0,0
		c0.2-2.3,2.2-4.1,4.5-3.9l0,0c2.3,0.2,4.1,2.2,3.9,4.5l0,0c-0.2,2.2-2,3.9-4.2,3.9l0,0C646.2,503.6,646.1,503.6,646,503.6z
		 M741.8,497.5c-0.3-2.3,1.3-4.5,3.6-4.8l0,0c2.3-0.3,4.5,1.3,4.8,3.6l0,0c0.3,2.3-1.3,4.5-3.6,4.8l0,0c-0.2,0-0.4,0-0.6,0l0,0
		C743.9,501.1,742.1,499.6,741.8,497.5z M596.1,498.6c-2.3-0.3-4-2.4-3.7-4.7l0,0c0.3-2.3,2.4-4,4.7-3.7l0,0l0,0l0,0
		c2.3,0.3,4,2.4,3.7,4.7l0,0c-0.3,2.1-2.1,3.7-4.2,3.7l0,0C596.4,498.6,596.2,498.6,596.1,498.6z M790.7,487.5
		c-0.6-2.2,0.7-4.6,2.9-5.2l0,0l0,0l0,0c2.2-0.6,4.6,0.7,5.2,2.9l0,0c0.6,2.2-0.7,4.6-2.9,5.2h0c-0.4,0.1-0.8,0.2-1.1,0.2l0,0
		C792.9,490.6,791.2,489.3,790.7,487.5z M838.4,472.6c-0.8-2.2,0.4-4.6,2.6-5.4l0,0c2.2-0.8,4.6,0.4,5.4,2.6l0,0
		c0.8,2.2-0.4,4.6-2.6,5.4l0,0c-0.5,0.2-0.9,0.2-1.4,0.2l0,0C840.7,475.5,839,474.4,838.4,472.6z M884.9,454c-1-2.1,0-4.6,2.1-5.6
		l0,0c2.1-1,4.6,0,5.6,2.1l0,0c1,2.1,0,4.6-2.1,5.6l0,0c-0.6,0.2-1.2,0.4-1.7,0.4l0,0C887.1,456.5,885.6,455.6,884.9,454z
		 M930.3,433c-1-2.1-0.1-4.6,2-5.6l0,0c2.1-1,4.6-0.1,5.6,2l0,0c1,2.1,0.1,4.6-2,5.6l0,0c-0.6,0.3-1.2,0.4-1.8,0.4l0,0
		C932.5,435.4,931,434.5,930.3,433z"/>
	<path class="st8" d="M19,431.3c-1.1-2.1-0.4-4.6,1.7-5.7l0,0l0,0l0,0c2-1.1,4.6-0.4,5.7,1.7l0,0c1.1,2,0.4,4.6-1.7,5.7v0
		c-0.6,0.3-1.3,0.5-2,0.5l0,0C21.3,433.5,19.8,432.7,19,431.3z M64,409.5c-0.9-2.2,0.2-4.6,2.3-5.5l0,0c2.2-0.9,4.6,0.2,5.5,2.3l0,0
		c0.9,2.2-0.2,4.6-2.3,5.5l0,0c-0.5,0.2-1.1,0.3-1.6,0.3l0,0C66.2,412.1,64.6,411.1,64,409.5z M111.1,393c-0.6-2.3,0.7-4.6,3-5.2
		l0,0l0,0l0,0c2.2-0.6,4.6,0.7,5.2,3l0,0c0.6,2.3-0.7,4.6-3,5.2l0,0c-0.4,0.1-0.7,0.2-1.1,0.2l0,0
		C113.3,396.1,111.6,394.9,111.1,393z M312.1,394L312.1,394c-2.3-0.5-3.7-2.8-3.2-5.1l0,0c0.5-2.3,2.8-3.7,5.1-3.2l0,0l0,0l0,0
		c2.3,0.5,3.7,2.8,3.2,5.1l0,0c-0.5,2-2.2,3.3-4.1,3.3l0,0C312.7,394.1,312.4,394,312.1,394z M160,382.5c-0.3-2.3,1.3-4.5,3.6-4.8
		l0,0c2.3-0.3,4.5,1.3,4.8,3.6l0,0c0.3,2.3-1.3,4.5-3.6,4.8l0,0c-0.2,0-0.4,0-0.6,0l0,0C162.1,386.2,160.2,384.6,160,382.5z
		 M263.3,385.5L263.3,385.5c-2.3-0.3-4-2.4-3.7-4.7l0,0c0.3-2.3,2.4-4,4.7-3.7l0,0c2.3,0.3,4,2.4,3.7,4.7l0,0
		c-0.2,2.1-2.1,3.7-4.2,3.7l0,0C263.7,385.5,263.5,385.5,263.3,385.5z M209.7,378.5c0-2.3,1.9-4.2,4.2-4.2l0,0
		c2.3,0,4.2,1.9,4.3,4.2l0,0c0,2.3-1.9,4.2-4.2,4.3l0,0c0,0,0,0,0,0l0,0C211.6,382.7,209.8,380.8,209.7,378.5z"/>
	<circle class="st13" cx="761.6" cy="306.3" r="45.9"/>
	<g>
		<path class="st3" d="M797.8,298.1c0.1-0.1-0.9-0.1-1.1-0.1C796.9,298.1,798.1,298.1,797.8,298.1z"/>
		<polygon class="st3" points="799.9,299.7 799.5,299.7 800.5,300 		"/>
		<path class="st3" d="M799.8,301.2c1.7,0-0.2-0.6,0.4-0.8l0.4,0l-1.4-0.2C799.4,300.5,800.3,301,799.8,301.2z"/>
		<path class="st3" d="M796.1,301.6c0.7,0,0.6,0.2,0.2-0.2c-0.1,0-0.1,0-0.2,0C796.1,301.5,796.1,301.5,796.1,301.6z"/>
		<path class="st3" d="M796.1,301.5C796.1,301.3,795.6,301.5,796.1,301.5L796.1,301.5z"/>
		<path class="st3" d="M796.5,302.2l-0.6-0.3c-0.4,0-0.5,0.2-0.8,0.1C795.4,302.2,795.8,302.2,796.5,302.2z"/>
		<path class="st3" d="M797.7,302.5l-0.2-0.1C797.3,302.4,797.2,302.4,797.7,302.5z"/>
		<path class="st3" d="M796.9,302.1l0.5,0.3c0.3,0,0.8,0.1-0.2-0.1C797.7,302.3,797.3,302.2,796.9,302.1z"/>
		<path class="st3" d="M797.2,302c0.4-0.1,0.6-0.2,1.2,0.1C798.2,301.7,797,301.6,797.2,302z"/>
		<path class="st3" d="M801.5,301.5l0.5-0.1l-0.6-0.2C801.8,301.2,801,301.4,801.5,301.5z"/>
		<path class="st3" d="M795.4,303.2c0.4,0.1,1,0.1,1.4,0.1l-0.4-0.2C796.2,303.2,795.9,303.3,795.4,303.2z"/>
		<path class="st3" d="M796.8,303.4l0.6,0.3C797.5,303.5,797.2,303.4,796.8,303.4z"/>
		<polygon class="st3" points="799.5,302.8 798.3,302.3 799.5,302.9 		"/>
		<polygon class="st3" points="795.2,304 794.4,303.8 795.6,304.2 		"/>
		<path class="st3" d="M795.3,304.6c-0.7-0.2-1.2-0.1-1.6-0.2c0.1,0.2,0.7,0.4,1.2,0.6C794.6,304.7,794.7,304.6,795.3,304.6z"/>
		<path class="st3" d="M795.6,305.2c-0.2-0.1-0.4-0.2-0.7-0.3C795,305,795.3,305.1,795.6,305.2z"/>
		<path class="st3" d="M797.2,304c-0.2,0-0.8-0.1-1,0L797.2,304C797.2,304.1,797.2,304,797.2,304z"/>
		<path class="st3" d="M797.2,304.1L797.2,304.1c-0.1,0.1-0.1,0.1-0.1,0.2C797.1,304.2,797.1,304.2,797.2,304.1z"/>
		<path class="st3" d="M797.2,304L797.2,304C797.3,304,797.3,304,797.2,304z"/>
		<path class="st3" d="M798.5,303.2c0.5,0.2,1.1,0.6,2,0.4C799.9,303.5,799.3,303.5,798.5,303.2z"/>
		<path class="st3" d="M798.5,304.1l0.3-0.2c-0.3,0-0.7,0-0.9-0.2L798.5,304.1z"/>
		<polygon class="st3" points="798.8,304.2 798.5,304.1 798.4,304.1 		"/>
		<path class="st3" d="M796.6,305c0.4,0.2,0.4,0.3,0.5,0.4c0.2-0.1,0.3-0.2,0.4-0.3C797.2,305,796.6,304.9,796.6,305z"/>
		<path class="st3" d="M797,304.6L797,304.6C797.1,304.6,797.1,304.6,797,304.6z"/>
		<path class="st3" d="M796.9,306.6c0.1,0,0.1,0,0.2,0L796.9,306.6L796.9,306.6z"/>
		<path class="st3" d="M797.7,305.1c0.2-0.1,0-0.2-0.3-0.3c0.1,0.1,0.1,0.2,0.1,0.3C797.6,305.1,797.7,305.1,797.7,305.1z"/>
		<path class="st3" d="M796,305.6c0.2,0,0.4,0,0.6-0.1C796.3,305.6,795.8,305.6,796,305.6z"/>
		<path class="st3" d="M796.7,304.6L796.7,304.6C796.5,304.6,796.6,304.6,796.7,304.6z"/>
		<path class="st3" d="M796.7,304.6c0.1,0.1,0.4,0.2,0.6,0.2c-0.1-0.1-0.2-0.1-0.3-0.2C797,304.6,796.8,304.6,796.7,304.6z"/>
		<path class="st3" d="M803.2,308.3c-0.9-0.2-1.7-0.7-0.7-0.7c-0.7-0.4-3.7-0.8-5.5-1c0.4,0.1,0.8,0.2,1.3,0.5
			c0.5,0,1.3-0.3,2.1,0.1c0.4,0.4-0.4,0.2-0.9,0.2c1.2,0.1,1.6,0.7,3.3,1l-0.5-0.4C802.6,308.2,803,308.3,803.2,308.3z"/>
		<path class="st3" d="M797.3,306.2l-0.1-0.1c-0.2,0.1-0.6,0.1-1.3,0.1c0.4,0.2,0.8,0.3,1.1,0.4l0.2-0.4L797.3,306.2z"/>
		<path class="st3" d="M797.2,305.7c1,0.3,1.4,0.6,2.5,0.6c0-0.3-0.8-0.4-1.2-0.6c0.2,0.5-0.5-0.2-1.2,0c-0.2-0.1-0.2-0.2-0.2-0.3
			c-0.1,0.1-0.3,0.1-0.5,0.1c0,0,0,0,0.1,0l0,0l0,0c0.1,0,0.2,0,0.1,0c0,0,0,0,0,0C797,305.6,797.1,305.7,797.2,305.7
			c-0.2,0.1-0.3,0-0.4-0.1c-0.1,0-0.1,0-0.2,0l0,0l0.5,0.5C797.3,306,797.3,305.9,797.2,305.7z"/>
		<path class="st3" d="M802.7,304.2c-0.1,0-0.2,0-0.2,0C802.6,304.2,802.6,304.3,802.7,304.2z"/>
		<path class="st3" d="M802,304.3c-0.1-0.1-0.5-0.1-0.4-0.2c0.3-0.1,0.5,0.1,0.8,0.1c-0.3-0.1-0.7-0.3-1.2-0.2l0.1,0.1
			c-0.4,0.1-1.7,0.2-1.8,0.1C800.5,304.3,801.1,304.3,802,304.3z"/>
		<path class="st3" d="M799.9,305.1l0.4,0.5l0.9-0.1l-0.5-0.1C800.9,305.3,800.3,305.2,799.9,305.1z"/>
		<polygon class="st3" points="796.4,306.6 795.4,306.3 796.8,306.8 		"/>
		<polygon class="st3" points="796.4,307 795.5,306.8 796,307.1 		"/>
		<path class="st3" d="M791.2,338.1l0.1,0.3C791.3,338.3,791.3,338.2,791.2,338.1z"/>
		<path class="st3" d="M792,337.5l-0.3-0.4C791.9,337.4,792,337.5,792,337.5z"/>
		<path class="st3" d="M792.7,317.9c-0.9-0.3-2.1-0.8-1.2-0.3l0.9,0.4C792.4,317.8,792.5,317.8,792.7,317.9z"/>
		<path class="st3" d="M793.3,328.2c0.1,0.1,0.2,0.1,0.3,0.2c-0.2-0.3-0.5-0.5-0.7-0.7C793,327.8,793.1,328,793.3,328.2z"/>
		<path class="st3" d="M796.5,331l-0.7-0.2C796.1,330.9,796.3,331,796.5,331z"/>
		<path class="st3" d="M787.6,342.2l0.5,1C788.3,343.1,787.9,342.7,787.6,342.2z"/>
		<path class="st3" d="M795.5,311.8c-0.4,0-0.6,0-0.7,0.1C795.4,312,796.3,312.1,795.5,311.8z"/>
		<path class="st3" d="M784.3,329.6c0.1,0.2,0.2,0.4,0.3,0.5C784.6,330,784.5,329.8,784.3,329.6z"/>
		<path class="st3" d="M794.7,312.3c0.1,0,0.2,0,0.3,0c-0.1-0.1-0.2-0.3-0.1-0.4C794.4,311.9,794.1,311.9,794.7,312.3z"/>
		<path class="st3" d="M770,349.8c0,0,0-0.1-0.1-0.1C770,349.8,770,349.8,770,349.8z"/>
		<path class="st3" d="M762.4,341c0-0.1,0.1-0.1,0.2-0.1C762.6,340.8,762.5,340.8,762.4,341z"/>
		<path class="st3" d="M795.5,308.8C795.5,308.7,795.4,308.7,795.5,308.8L795.5,308.8z"/>
		<path class="st3" d="M799.6,309.3c0.1,0,0.2,0.1,0.5,0.2C799.9,309.4,799.7,309.3,799.6,309.3z"/>
		<path class="st3" d="M800.4,315.4L800.4,315.4C800.6,315.5,800.6,315.5,800.4,315.4z"/>
		<path class="st3" d="M796,308.7c-0.1,0-0.2,0-0.3,0C795.8,308.8,795.9,308.8,796,308.7z"/>
		<path class="st3" d="M795.5,308.6c0.1,0,0.1,0,0.1-0.1C795.5,308.5,795.4,308.5,795.5,308.6z"/>
		<path class="st3" d="M795.6,308.9c0-0.1,0.1-0.1,0.1-0.1c-0.1,0-0.1,0-0.2,0C795.5,308.8,795.5,308.8,795.6,308.9z"/>
		<path class="st3" d="M778.3,343.6C778.2,343.6,778.2,343.5,778.3,343.6C778.3,343.9,778.3,343.9,778.3,343.6z"/>
		<path class="st3" d="M800.6,325.6C800.6,325.6,800.6,325.6,800.6,325.6L800.6,325.6L800.6,325.6z"/>
		<path class="st3" d="M801.1,326.4c-1-0.8-0.8-0.8-0.5-0.8l-2.6-1.4L801.1,326.4z"/>
		<path class="st3" d="M789.6,339.8l0.8,0.5c0.6,1.4,0.1,1.2,1.1,2c-2-2.6,0.8-1.1-1.2-3.6l0.6,0.4c-0.1,0,0,0.2,0,0.2
			c1.3,0.9-1.3-2-0.6-2c0.3,0.1,0.7,0.3,0.9,0.7l-0.2-0.9c0.1,0,0.5,0.4,0.3,0.4c0.1-0.2,0.2-0.4,0.3-0.6l0.1,0.1
			c-0.3-0.4-0.7-1.2-0.8-1.5c0.4,0.2,0.2,0.3,0.5,0.6l-0.3-0.8c0.7,0.5,1,1.3,0.8,1.4c2.4,2.2-0.3-0.8,1.4,0.1l0,0.5
			c1.4,1.2,1.1,0.5,2.2,1.1c-0.5-0.4-2.5-1.6-2.8-2.4c0.2,0.1,0.4,0.1,0.1-0.5c0.8,0.8,0.7,0.5,0.9,0.3l1.1,1.1
			c-0.1-0.5-0.7-1-1-1.6c0.3-0.1,1.2,0.7,2,1.3c0.5-0.2-1.6-1.1-1.4-1.7c0.7,0.1,0.5-0.5,0.1-1.5c0.6,0.2,0.7,0.7,1,0.9l-0.7-1
			c0.1,0,0.3,0.2,0.5,0.4c-0.2-0.5-1.1-1-1.2-1.6c-1.2-1.2,2.3,1.1,1.1-0.4c0.4,0.2,0.7,0.6,1.1,1c-0.6-1.2-0.4-1-1.4-2.4l1,0.4
			c-1.1-0.5-1.9-1.6-2.6-2.6c-0.5-0.3-0.9-0.5-1.1-0.6l-0.4-0.8c0.2,0.1,0.6,0.5,1.1,0.9c-0.1-0.1-0.2-0.2-0.2-0.3
			c0.5,0.2,1.2,0.8,1.8,1.5c-0.3-0.1-0.6-0.3-0.8-0.5c0.6,0.7,1.4,1.4,2.1,1.9c-0.1-0.1-0.2-0.3-0.2-0.4c0.2,0.2,0.3,0.3,0.5,0.4
			c0.1,0.1-0.1-0.2-0.3-0.5l1.4,1l-0.5-0.4l1.3,0.2c-1.1-1.4-2.9-3.3-3-4.2c0.9,0.9,1.6,1.2,2.8,2.1c-1.4-0.8,0.2,0.9-0.3,1
			c0.2-0.1,0.8,0.4,0.9,0.6l-0.7-1.4c1,0.7,0.8,0.4,1.3,0.6c-2-1.3-1-1.3-1.4-2c0.7,0.4,1.3,1,0.9,1.1c1.7,0.7-2-2-0.6-1.4
			c0,0.1-0.2,0,0.2,0.3c-0.5-0.6,0.3-0.6,0.8-0.1l0,0.1c0.3-0.1,0.5-0.5,0.5-0.9c0-0.5-0.4-1-1.2-1.6c0.2,0.1,2,1.4,2.4,1.6
			c-1.8-1.5-3.5-2.9-5.4-4.3c1.4,1,5.2,2.8,5.8,3.7c0.3,0,0.6,0,0.2-0.5c-0.3,0-2.3-1.1-2.4-1.3c1.8,0.7,1,0.3,2.6,0.8
			c-0.4-0.1-2.7-1.6-2.5-1.7c0.3,0.2,2.3,1.3,2.6,1.5l-2.1-1.8c0.4,0.3,2,1.1,2.7,1.4c-0.5-0.2,0.3-0.4,0.1-0.6l-0.7-0.1
			c0.7-0.3-3-2.3-2.7-2.7c0.5,0.3,3,1.7,3.4,1.6c-1.2-0.8-5.6-3.5-6.4-4.3l0.7,0.3l-0.7-0.7c1.8,1,5.4,3.5,6.8,4.6
			c0.6,0.1,0.9,0.4,0.9,0c0.7,0.2,0.9,0.7,0.9,0.8l0.8-0.5c-1.5-0.7-1.2-1.2-2.4-1.8l1.1,1.5c-1.4-0.7-3.9-2.4-3.4-2.7
			c0.6,0.1,2.5,1.3,3,1.5c-0.5-0.3-0.7-0.9-0.4-0.8l0.7,0.6c0.7,0-1.7-1.3-0.2-1c0.1-0.1,2.1,0.5,1.2,0.1c-1.8-0.5-7-2.7-8.2-3.4
			c0.1,0,1.8,0.2,2.7,0.4c1.4,0.4,3,1.6,4.2,1.9c-0.4-0.2-0.9-0.5-1-0.6c0.4,0,1.2,0.6,1.2,0.2c-1.5-0.6,0.3-0.5-1.2-0.6
			c-0.3-0.4,0.4-0.1,0.4-0.5c-1-0.3-3.2-1.5-3.6-1.9c0.4,0.2,0.9,0.3,1.1,0.4c0.3-0.4,1.1-0.5,1.3-0.9c0.4,0.1,0.9,0,1.5,0.3
			c-0.2-0.2-0.7-0.4-0.7-0.6c1.4,0.1,0.1,0.4,1.8,0.7c-0.9-0.3-1.1-0.8-1.6-1.2c-1.4-0.4-0.4,0.4,0,0.8c-1.9-0.6-3.8-1.7-4.5-2.4
			c-0.3-0.5,1.3,0.2,1,0.1c0.6-0.6-3.2-1.6-1.6-1.8c1.3,0.1,2.5,0.7,3.4,0.9c0.4,0.5-0.9,0.3-0.9,0.5l0.6-0.1
			c0.4,0.2,0.6,0.5,0.3,0.5c1.2,0.1,0.5-1.2,1.7-1.5c-0.4-0.2-0.8-0.5-1.3-0.5l0.1,0.2c-1-0.1-1.3-0.7-1.8-0.6
			c-0.6-0.4-1.7-0.9-1-1.1l1.4,0.3c-0.4-0.1-0.9,0-0.5,0.2c-0.6-0.3,2.1-0.1,0.2-0.6l-1,0c-0.7-0.4-2.1-1-1.6-1.2
			c-1.4-0.2,0.1,0.1-1.6-0.1c2.1,0.3-0.3,0.7,2,0.9c-2-0.2-0.9,0.2-2.6,0c0.5,0.1,0.9,0.1,0.6,0.3c0.1,0,0.3,0.1,0.4,0.2
			c0,0,0,0,0,0l0.1,0c0.1,0,0.1,0,0,0c0.2,0,0.5,0,0.7,0.1c1,0.4,0.9,0.8,1.4,1c-0.3,0.1-0.5-0.2-1-0.3l0.8,0.4
			c-1-0.3-1.8-0.1-2.3-0.6l-0.1,0.3c-0.6,0-0.9,0.2-0.5,0.4c-0.3,0.1,1.1,0.7,0.3,0.3c0.2,0.2,0.3,0.4,0.5,0.6l-0.3-0.1
			c-0.3,0.4,1.4,1.4-0.6,1.3c0.2,0.2,0.5,0.5,0.1,0.6l-0.9-0.3c0.2,0.3-1.1,0.2-0.2,0.6c-2.4-0.7-0.8,0.7-1.4,0.8l1.1,0.5
			c-0.2,0.2,0.1,0.5,0.4,1l1,0.4c0.7,0.6-1,0.3-1,0.7c-0.4-0.2-0.2-0.2,0-0.2c-2.4-0.6,1.2,1.7-0.6,1.3c0.3,0.3,0.2,0.3-0.1,0.2
			c0,0,0,0,0-0.1c0,0,0,0,0,0c-0.2,0-0.4-0.1-0.6-0.1c0.3,0.1,0.5,0.1,0.6,0.2c0,0.1,0,0.3,0.2,0.5l-1-0.5c0,0,0,0,0,0
			c-0.4-0.1,0.4,0.3,1.2,0.7c0.1,0.1,0.3,0.3,0.5,0.5c-1.7-0.8,0.4,0.6-1.4-0.2c0.8,0.5,0.3,0.9,2,2c-0.2-0.1-0.4-0.2-0.3-0.2
			c-0.3,0-0.5,0-0.1,0.4l-1.3-0.7l1.5,1.3c-0.9-0.3-1.3-0.5-2.2-1.2c1.3,1.3,0.4,0.6,1.6,1.9l-0.8-0.5c0,0.1,0.9,1,0.2,0.7
			c-1.7-0.7-1.1,1.1-2.9,0.8c2.3,1.5-1.2-0.4,0.5,0.9c-0.6-0.4-0.9-0.5-1.3-0.9c0.3,0.7-1.2-0.2,0.1,1.2c-0.5-0.4-0.7-0.7-1-0.9
			c0.1,0.1,0.4,0.5,0,0.2c-0.3-0.2-0.4-0.4-0.6-0.6c-0.1,0.4,1.4,1.6,2.9,2.9c-0.8-0.4-0.8-0.2,0.1,0.7c-0.5-0.3-1.1-0.7-1.1-1
			c-0.2,0.1-1.3,0.1-0.1,1.1c-0.3-0.2-0.2,0.1-0.1,0.2c-0.3,0.2-0.4,0.1-0.5,0.5l0.2,0.1c1.3,1.3,0.1,0.5,0.1,0.8l-0.1-0.1
			c-1.4-0.4,0.3,0.6-1.2,0l0.9,0.8c1.7,1.7-1.4-0.6-1,0.3l0.6,0.4c0.5,0.7-2.8-2-3.1-2.1c-0.2-0.1-0.2-0.3-0.3-0.4
			c-1.3-0.7,1,1.1,1,1.6c-0.6-0.5-1.4-1.5-1.6-1.5c-0.5-0.4,1.3,2.4,0,1.5c0.5,0.4,0.9,0.8,1.1,1.3c0,0.4-2.1-1.3-0.9,0.3
			c-0.1-0.1-0.3-0.2-0.4-0.3c0.2,0.5,0.1,1,0.6,1.9c-2.7-2.9,0.2,2.3-2-0.6l-0.3,0.5l-0.2-0.3c-0.4,0.1,0,0.8,0.4,1.6
			c-0.2-0.1-0.4-0.5-0.5-0.6c-0.9-0.3-0.8-0.1-0.2,1.6l-0.7-0.9c0.3,0.6-1.7-1.1-1.4,0.4c-0.1-0.1-0.2-0.3-0.2-0.5
			c0.2,1.5-2.9-1.9-0.9,1.8l0.2,1.1c0.7,0,0.9,1.6,1.5,2.1c-0.1,0.3-1.2-0.8-1-1.2l0.1,0.2c-1.1-2-1-0.3-1.8-1.7
			c-0.9,0.6-2.3,0.1-3.3,0.4l0.9,1.5l-0.4,0.1c-0.3-0.3-0.7-1.2-0.5-1.2c-0.5-0.8,0,0.9,0.1,1.3c-0.7-0.4-0.7-1.9-0.9-1.9l-0.1,0.2
			l0.1,0.2c0.2,0.7,0.5,1.4,0.2,1.4c-0.3-0.2-0.5-0.9-0.6-1c-0.1-0.1-0.1-0.2-0.1,0l-0.4,0l0.7,1.2c0.1,0.7-0.4,0.1,0.4,1.4
			c-0.6-1-1.1-1.1-1.4-0.9c-0.4,0.1-0.7,0.5-0.9,0.1c0.1,1-0.1,1.1-0.5,1.1c0.2,0.2,0.8,1.7,0.4,1.6c-1-3-1-1.1-2-3.2
			c0.7,1.4-0.6,0.6,0.4,2.6c-0.3-0.2-0.4-1.1-0.8-1.8c-0.1,1.4-1.4-0.4-2,0.2c0.1,0.4,0.4,1,0.5,1.6l-1-1.9c-0.1,0.2,0.6,2.3-0.1,1
			c0.1,0.3,0.3,0.8,0.3,1c-1-0.8-1.5-0.1-2.2,0.2c-0.7,0.3-1.4,0.5-2.5-1.2c0.4,0.7,0.3,0.9,0.1,0.9c0.1,0.2,0.2,1,0.4,1.6l-0.9-1.4
			c0.2,1.6-0.6,0.2-0.4,1.7l0.1-0.3c0.1,1.8,1.2,3.8,1.6,6c-0.1-2,1.5,2.7,1.3-0.2c0.2,0.4,0.1,0.7,0.3,1.2c-0.1-1,0-1.2,0.4-0.9
			l0,0.2c0.7-0.4,1.3,0.5,2.4,0.8l-0.4-1.1c0.2,0.1,0.4,0.4,0.5,0.7c-0.2-1.7-0.6,0.1-0.9-1.8c0.9,2.1,1.3-0.4,2.3,2.1
			c0.3-0.1-0.5-1.2-0.2-1.3l0.3,0.7l-0.2-0.9c0.2,0.1,0.6,0.9,0.8,1.5c-0.1-0.1-0.1,0.2-0.1,0.3c0.5,0.7,0.6-0.5,0.8-0.3l-0.4-0.3
			c0.6-0.9,1.9-0.3,2.2-2l-0.2-0.5c0.2-1.1,0.7,0.4,1.1-0.3l0,0.1c-0.1-0.5,0-0.9,0.2-0.9c0.1,0.6,0.7,1,0.8,1.7
			c0.3-1.2,0-0.9-0.3-2.9l0.4,0.8c-0.2-0.8-0.3-1.2-0.1-1.5c0,0.8,0.7,1.2,0.8,2.2c1.4,1.5,0.2-2.2,1.6,0.2c-0.7-2.4-1.1-1-1.2-1.5
			c-0.5-0.7-0.5-1.8-0.2-1.7c0.2,0,1.6,2.7,2.1,2.4c-0.1,0,0,0.2,0,0.2c0.5,0.5,0-0.9,0.7-0.1c-0.5-1.4,0.4-0.1-0.4-1.8l-0.3,0.6
			c0.1-0.6-0.6-2.7,0.3-1.9c0.1,0.4,0.2,0.9,0.3,1.2c0.4,0.4,0.1-0.4,0.5,0c0.8,1.7-0.4,0.6-0.1,2.1c0.5,0.6,0-1.5,0.7,0.4
			c-0.9-2.4,0.7,0,0.2-1.9l0.5,1c0-0.2-0.1-0.7,0-0.7l0.5,1.4c-0.3-1.2,1.1,0.7,1-0.1c-0.6,0.4-0.8-1.1-1.4-1.7
			c0-1.7,1.8,2.4,2.3,1.5c0,0.2-0.7-0.4-0.8-0.9c0.3,0.1,0.7,0.4,1.1,0.9c0.4-0.5-0.6-1-0.8-1.7c0.9,1.1,0-0.6,0-1.1l0.6,1
			c1,0.3-1-2.2-0.1-1.7l0.6,1.5l0.1-0.5l0.6,1.2c-0.2-1,0-0.8,0.5-0.7c-0.5-0.7-1-1.8-0.8-2c0.5,0.5,0.5,1,0.8,0.6
			c0.3,0.7,0.7,1.5,0,0.7c0.2,0.3,0.3,0.7,0.5,1c0.6,0.6,0.6-0.1,0.7-0.2c-0.1,0-0.2,0-0.3-0.1l-0.3-1.7c0.3,0.3,0.4,0.6,0.6,1
			c0-0.2-0.2-0.7-0.1-0.9c0.5,0.8,1,1.6,1,2.1l-0.1-1.2c0.3,0.3,0.9,0.8,1,1.1c0.6,0.3-0.3-2,0.5-1.6c-0.1-0.2-0.1-0.3-0.1-0.5
			c0.5-0.1,1.5,0.6,1.1-0.7l1.2,1.2c0.1-0.6-1.6-1.4-1.4-2.4c0-0.7,1,1,1.4,1.3c-0.3-0.8-1.1-2.4,0.1-1.6
			C789.9,339.7,789.6,339.6,789.6,339.8z M792.7,336.1c0.1,0.2,0.5,0.9,0,0.5C791.9,335.6,792.3,336,792.7,336.1z M795.4,329.1
			c0.3,0.3,0,0.2-0.4,0.1C795,329,795.1,329,795.4,329.1z M796.2,310.1C796.2,310.1,796.2,310.1,796.2,310.1
			C795.7,310.1,795.9,310.1,796.2,310.1z M796.7,309.9c-0.1-0.1-0.3-0.1-0.5-0.1c0.3,0.1,0.3,0.2,0.2,0.2
			C796.7,310,797,310,796.7,309.9z M773.9,337.1l0.2,0.2C774.1,337.7,774,337.4,773.9,337.1z"/>
		<path class="st3" d="M796.2,330.7c-0.2-0.1-0.3-0.2-0.5-0.4C795.8,330.5,795.9,330.6,796.2,330.7z"/>
		<path class="st3" d="M787.6,342.1C787.6,342.1,787.6,342.1,787.6,342.1l0.1,0.2L787.6,342.1z"/>
		<path class="st3" d="M804.1,318.6c-0.2,0-0.4,0-0.6-0.1C803.7,318.6,804,318.7,804.1,318.6z"/>
		<path class="st3" d="M795.3,307.7l0.2,0.3c0-0.1,0.2-0.1,0.4-0.1C795.7,307.8,795.3,307.7,795.3,307.7z"/>
		<path class="st3" d="M802.7,307.2c-0.1-0.1,0-0.1-0.1-0.1L802,307C802,307.1,802.4,307.3,802.7,307.2z"/>
		<path class="st3" d="M799,308.3c0.9,0.2,0.7,0,0.5-0.2c0,0,0,0,0,0C798.3,307.8,798.7,308.1,799,308.3z"/>
		<path class="st3" d="M799.5,308.1c0-0.1,0-0.1,0-0.2C799,307.8,799.4,307.9,799.5,308.1z"/>
		<path class="st3" d="M796.2,309.3c0.3,0-1.2-0.4-0.8-0.3C794.3,308.6,796.7,309.8,796.2,309.3z"/>
		<polygon class="st3" points="802.2,308.9 801,308.7 801.9,309 		"/>
		<path class="st3" d="M801,310l0.4-0.2c-0.2,0-0.3-0.1-0.4-0.2C800.9,309.8,800.7,309.9,801,310z"/>
		<path class="st3" d="M801,309.6c0-0.1,0-0.2-0.1-0.3C800.9,309.4,800.9,309.5,801,309.6z"/>
		<polygon class="st3" points="802.4,309.3 802.2,309.4 802,309.5 		"/>
		<path class="st3" d="M800,312.7l0.2,0.4c0.4,0.2,0.6,0.2,0.5,0C800.5,312.9,800.4,312.8,800,312.7z"/>
		<path class="st3" d="M803.4,312.8c-0.3,0-0.5-0.1-0.9-0.1l1.4,0.4L803.4,312.8z"/>
		<path class="st3" d="M803.5,313.8c0.4,0.2,1,0.8,1,0.4C804.1,314,803.9,313.6,803.5,313.8z"/>
		<polygon class="st3" points="800.1,317.5 800.1,317.4 797.9,316.5 		"/>
		<path class="st3" d="M803.6,323.8c0.7-0.1-1.3-0.8-0.5-0.8c-0.5-0.3-0.7,0-1.1-0.3C802.5,323.2,802.1,323.2,803.6,323.8z"/>
		<path class="st3" d="M802,322.7c-0.1-0.1-0.1-0.2-0.3-0.3C801.9,322.6,802,322.7,802,322.7z"/>
		<polygon class="st3" points="761.4,339.9 761.1,339.4 761.4,340.2 		"/>
		<path class="st3" d="M761.4,341.7l-0.4-1.5l0.2,1.4C761.2,341.6,761.3,341.4,761.4,341.7z"/>
		<path class="st3" d="M795.4,337.9l-0.2-0.3c-0.3-0.3-0.4-0.2-0.5-0.2L795.4,337.9z"/>
		<polygon class="st3" points="792,339.4 792,339.4 791,338.4 		"/>
		<path class="st3" d="M790.7,342.8c0.1,0,0.1-0.4,0.2-0.4C790.9,342.7,789.6,341.4,790.7,342.8z"/>
	</g>
</g>
</svg>
