<?xml version="1.0" standalone="no"?>
<!DOCTYPE svg PUBLIC "-//W3C//DTD SVG 20010904//EN"
 "http://www.w3.org/TR/2001/REC-SVG-20010904/DTD/svg10.dtd">
<svg version="1.0" xmlns="http://www.w3.org/2000/svg"
 width="225.000000pt" height="224.000000pt" viewBox="0 0 225.000000 224.000000"
 preserveAspectRatio="xMidYMid meet">
<metadata>
Created by potrace 1.16, written by Peter Selinger 2001-2019
</metadata>
<g transform="translate(0.000000,224.000000) scale(0.100000,-0.100000)"
fill="#000000" stroke="none">
<path d="M1837 1393 c-2 -5 3 -57 12 -118 16 -108 16 -110 44 -113 23 -3 27 0
27 22 0 33 7 33 32 0 16 -20 28 -24 57 -22 l36 3 12 85 c6 47 14 100 17 118
l5 32 -45 0 c-49 0 -52 -7 -34 -69 5 -19 8 -36 6 -38 -2 -3 -21 21 -42 51 -37
53 -41 56 -81 56 -23 0 -44 -3 -46 -7z"/>
<path d="M244 1380 c-60 -24 -85 -121 -44 -172 42 -54 138 -62 186 -17 l25 23
-25 13 c-21 11 -29 11 -46 1 -19 -12 -24 -9 -51 20 -49 55 -29 113 23 65 17
-15 21 -15 58 2 22 10 40 22 40 27 0 4 -15 17 -32 28 -34 21 -96 25 -134 10z"/>
<path d="M546 1371 c-55 -36 -70 -94 -41 -151 20 -39 63 -60 120 -60 112 0
177 90 123 170 -13 19 -35 40 -48 47 -39 20 -120 16 -154 -6z"/>
<path d="M924 1380 c-67 -27 -86 -125 -35 -182 27 -30 34 -33 90 -33 52 0 64
4 86 26 l26 25 -36 17 c-30 14 -35 15 -35 2 0 -24 -29 -18 -55 11 -48 51 -23
112 27 67 17 -15 21 -15 57 2 45 20 45 37 0 60 -31 16 -92 19 -125 5z"/>
<path d="M1213 1370 c-40 -24 -53 -48 -53 -97 0 -70 52 -113 135 -113 139 0
194 142 82 210 -43 26 -121 26 -164 0z"/>
<path d="M1555 1372 c-44 -27 -56 -46 -58 -91 -3 -74 51 -121 138 -121 104 0
164 85 120 170 -9 16 -29 36 -45 45 -40 21 -118 19 -155 -3z"/>
</g>
</svg>
