<svg width="40" height="30" viewBox="0 0 40 30" fill="none" xmlns="http://www.w3.org/2000/svg">
<path fill-rule="evenodd" clip-rule="evenodd" d="M36.3303 0C37.5288 0 38.5932 0.559195 39.2629 1.42413L19.8127 17.3003L0.53571 1.71243C1.18024 0.68547 2.34273 0 3.66972 0H36.3303ZM0 26.4286V4.52959L13.8317 15.7143L0.0285129 26.8759C0.00969843 26.7294 0 26.5801 0 26.4286ZM1.265 29.1264C1.90903 29.6706 2.74985 30 3.66972 30H36.3303C37.1209 30 37.8532 29.7567 38.4522 29.3428L23.7544 17.3457L21.1113 19.5031C20.3638 20.1133 19.2748 20.1157 18.5244 19.5089L15.8415 17.3395L1.265 29.1264ZM25.7531 15.7143L39.8997 27.2613C39.9653 26.9942 40 26.7153 40 26.4286V4.08536L25.7531 15.7143Z" fill="#2D72F8"/>
</svg>
