<svg width="53" height="51" viewBox="0 0 53 51" fill="none" xmlns="http://www.w3.org/2000/svg">
<path d="M16.9919 18.3045C20.423 27.0682 23.8003 30.6219 32.2304 34.5445L28.7889 39.5387C19.0968 34.6636 14.0964 26.768 11.6653 20.6483L16.9919 18.3045Z" fill="#2D72F8"/>
<path d="M19.2609 6.40455C20.9485 6.4459 22.2767 7.89713 22.2124 9.49582C22.1111 12.0116 22.3614 13.8359 22.9518 16.1052C23.2762 17.3517 22.6709 18.5911 21.6715 19.3721C20.3244 20.4248 19.3129 21.7861 18.5119 22.96C17.4017 24.5871 13.3963 24.354 12.4541 22.5203C10.5178 18.7518 9.06851 11.8691 11.5779 7.31818C11.9721 6.60334 12.8 6.24627 13.6703 6.26759L19.2609 6.40455Z" fill="#2D72F8"/>
<path d="M45.7529 34.6373C45.9124 33.05 44.5467 31.6303 42.8584 31.4984C40.2017 31.2908 38.3141 30.8367 35.9997 30.0102C34.7284 29.5562 33.3527 29.9746 32.4116 30.8177C31.143 31.9541 29.5904 32.7387 28.2601 33.3485C26.4162 34.1938 26.1795 37.977 27.9938 39.0809C31.7223 41.3495 38.783 43.536 43.8686 41.7306C44.6674 41.447 45.1423 40.7137 45.2246 39.8952L45.7529 34.6373Z" fill="#2D72F8"/>
</svg>
